<?xml version="1.0" encoding="UTF-8" standalone="no"?>
<!-- Created with Inkscape (http://www.inkscape.org/) -->

<svg
   xmlns:dc="http://purl.org/dc/elements/1.1/"
   xmlns:cc="http://creativecommons.org/ns#"
   xmlns:rdf="http://www.w3.org/1999/02/22-rdf-syntax-ns#"
   xmlns:svg="http://www.w3.org/2000/svg"
   xmlns="http://www.w3.org/2000/svg"
   xmlns:sodipodi="http://sodipodi.sourceforge.net/DTD/sodipodi-0.dtd"
   xmlns:inkscape="http://www.inkscape.org/namespaces/inkscape"
   id="svg2"
   version="1.1"
   inkscape:version="0.91 r13725"
   xml:space="preserve"
   width="205.13202"
   height="208.91422"
   viewBox="0 0 205.13202 208.91422"
   sodipodi:docname="sketch_fps_over_noise_corr.svg"><metadata
     id="metadata8"><rdf:RDF><cc:Work
         rdf:about=""><dc:format>image/svg+xml</dc:format><dc:type
           rdf:resource="http://purl.org/dc/dcmitype/StillImage" /><dc:title></dc:title></cc:Work></rdf:RDF></metadata><defs
     id="defs6"><clipPath
       clipPathUnits="userSpaceOnUse"
       id="clipPath20"><path
         d="m 34.110254,34.087755 131.811026,0 0,136.062995 -131.811026,0 0,-136.062995 z"
         id="path22"
         inkscape:connector-curvature="0" /></clipPath><clipPath
       clipPathUnits="userSpaceOnUse"
       id="clipPath30"><path
         d="m 34.110254,34.087755 131.811026,0 0,136.062995 -131.811026,0 0,-136.062995 z"
         id="path32"
         inkscape:connector-curvature="0" /></clipPath><clipPath
       clipPathUnits="userSpaceOnUse"
       id="clipPath40"><path
         d="m 34.110254,34.087755 131.811026,0 0,136.062995 -131.811026,0 0,-136.062995 z"
         id="path42"
         inkscape:connector-curvature="0" /></clipPath><clipPath
       clipPathUnits="userSpaceOnUse"
       id="clipPath50"><path
         d="m 34.110254,34.087755 131.811026,0 0,136.062995 -131.811026,0 0,-136.062995 z"
         id="path52"
         inkscape:connector-curvature="0" /></clipPath></defs><sodipodi:namedview
     pagecolor="#ffffff"
     bordercolor="#666666"
     borderopacity="1"
     objecttolerance="10"
     gridtolerance="10"
     guidetolerance="10"
     inkscape:pageopacity="0"
     inkscape:pageshadow="2"
     inkscape:window-width="2560"
     inkscape:window-height="1376"
     id="namedview4"
     showgrid="false"
     fit-margin-top="0"
     fit-margin-left="0"
     fit-margin-right="0"
     fit-margin-bottom="0"
     inkscape:zoom="4.1534969"
     inkscape:cx="159.31668"
     inkscape:cy="77.822821"
     inkscape:window-x="0"
     inkscape:window-y="27"
     inkscape:window-maximized="1"
     inkscape:current-layer="g10" /><g
     id="g10"
     inkscape:groupmode="layer"
     inkscape:label="sketch_fps_over_noise"
     transform="matrix(1.25,0,0,-1.25,-8.8822773,217.98139)"><path
       d="m 34.110254,34.087755 131.811026,0 0,136.062995 -131.811026,0 0,-136.062995 z"
       style="fill:#ffffff;fill-opacity:1;fill-rule:nonzero;stroke:none"
       id="path14"
       inkscape:connector-curvature="0" /><g
       id="g16"><g
         id="g18"
         clip-path="url(#clipPath20)"><path
           d="m 34.110254,39.528517 1.331424,0.149423 1.331425,0.316425 1.331424,0.43948 1.331424,0.123055 1.331425,0.21974 1.331424,0.272477 1.331425,-0.20216 1.331424,0.395531 1.331425,0.738327 1.331424,-0.140634 1.331425,0.114265 1.331424,1.028383 1.331425,0.281267 1.331424,0.377953 1.331425,0.377953 1.331424,0.0879 1.331425,0.149423 1.331424,1.142648 1.331425,-0.05274 1.331424,0.369163 1.331425,-0.290056 1.331424,1.274491 1.331425,-0.175792 1.331424,2.021608 1.331425,-0.835012 1.331424,-0.0088 1.331425,2.6193 1.331424,-1.31844 1.331424,-0.158212 1.331425,2.381981 1.331424,0.281267 1.331425,0.843802 1.331424,0.193371 1.331425,1.441494 1.331424,0.307636 1.331425,-0.87896 1.331424,2.083135 1.331425,0.553745 1.331424,0.254898 1.331425,2.62809 1.331424,1.125069 1.331425,-0.685589 1.331424,0.949277 1.331425,1.52939 1.331424,-1.0987 1.331425,2.329244 1.331424,0.949277 1.331425,-0.254899 1.331424,1.467863 1.331427,1.898554 1.33142,1.5206 1.33143,-0.307636 1.33142,2.41714 1.33143,-0.843801 1.33142,0.64164 1.33142,5.194653 1.33143,-0.518586 1.33142,2.091924 1.33143,2.223769 1.33142,-0.290057 1.33143,0.307636 1.33142,0.492218 1.33143,2.381981 1.33142,0.105475 1.33142,2.619301 1.33143,-0.843802 1.33142,5.010072 1.33143,-3.630105 1.33142,11.4089 1.33143,-5.335287 1.33142,5.03644 1.33143,-0.887749 1.33142,2.557773 1.33143,8.262223 1.33142,-3.04999 1.33142,1.05475 1.33143,6.57462 1.33142,-1.97766 1.33143,-0.53617 1.33142,7.56785 1.33143,1.04596 1.33142,0.27248 1.33143,1.59971 1.33142,-0.31643 1.33142,8.42923 1.33143,3.41915 1.33142,-2.72478 1.33143,9.39609 1.33142,-2.92694 1.33143,4.67607 1.33142,5.20344 1.33143,1.17781 1.33142,1.50302 1.33142,5.3177 1.33143,2.54899 1.33142,0.29005 1.33143,5.59898 1.33142,2.99725 1.33143,3.22578"
           style="fill:none;stroke:#000000;stroke-width:0.75;stroke-linecap:square;stroke-linejoin:round;stroke-miterlimit:10;stroke-dasharray:2.25,2.25;stroke-opacity:1;stroke-dashoffset:0"
           id="path24"
           inkscape:connector-curvature="0" /></g></g><g
       id="g26"><g
         id="g28"
         clip-path="url(#clipPath30)"><path
           d="m 34.110254,39.528517 1.331424,-1.336019 1.331425,-1.002015 1.331424,-0.615272 1.331424,-0.86138 1.331425,-0.316426 1.331424,-0.246109 1.331425,-0.193371 1.331424,-0.404321 1.331425,-0.184582 1.331424,0.07911 1.331425,-0.184581 1.331424,-0.06153 1.331425,0.01758 1.331424,-0.02637 1.331425,-0.03516 1.331424,-0.02637 1.331425,-0.01758 1.331424,0.0088 1.331425,-0.01758 1.331424,0 1.331425,-0.01758 1.331424,0.0088 1.331425,0 1.331424,0 1.331425,-0.0088 1.331424,0 1.331425,0 1.331424,0 1.331424,0 1.331425,0 1.331424,0 1.331425,0 1.331424,0 1.331425,0 1.331424,0 1.331425,0 1.331424,0 1.331425,0 1.331424,0 1.331425,0 1.331424,0 1.331425,0 1.331424,0 1.331425,0 1.331424,0 1.331425,0 1.331424,0 1.331425,0 1.331424,0 1.331427,0 1.33142,0 1.33143,0 1.33142,0 1.33143,0 1.33142,0 1.33142,0 1.33143,0 1.33142,0 1.33143,0 1.33142,0 1.33143,0 1.33142,0 1.33143,0 1.33142,0 1.33142,0 1.33143,0 1.33142,0 1.33143,0 1.33142,0 1.33143,0 1.33142,0 1.33143,0 1.33142,0 1.33143,0 1.33142,0 1.33142,0 1.33143,0 1.33142,0 1.33143,0 1.33142,0 1.33143,0 1.33142,0 1.33143,0 1.33142,0 1.33142,0 1.33143,0 1.33142,0 1.33143,0 1.33142,0 1.33143,0 1.33142,0 1.33143,0 1.33142,0 1.33142,0 1.33143,0 1.33142,0 1.33143,0 1.33142,0 1.33143,0"
           style="fill:none;stroke:#000000;stroke-width:0.75040002;stroke-linecap:butt;stroke-linejoin:round;stroke-miterlimit:10;stroke-dasharray:none;stroke-dashoffset:0;stroke-opacity:1"
           id="path34"
           inkscape:connector-curvature="0" /></g></g><g
       id="g36"><g
         id="g38"
         clip-path="url(#clipPath40)"><path
           d="m 34.110254,39.528517 1.331424,-0.210951 1.331425,-0.668009 1.331424,-0.597693 1.331424,-0.193371 1.331425,-0.360374 1.331424,0.105475 1.331425,-0.536165 1.331424,0.09669 1.331425,-0.43948 1.331424,-0.325216 1.331425,-0.01758 1.331424,-0.931697 1.331425,0.351584 1.331424,-0.07911 1.331425,-0.65043 1.331424,0.413111 1.331425,-0.228529 1.331424,-0.07911 1.331425,-0.175792 1.331424,-0.06153 1.331425,-0.0088 1.331424,0.114265 1.331425,-0.254898 1.331424,-0.263688 1.331425,0.06153 1.331424,0.272478 1.331425,-0.492218 1.331424,0.325215 1.331424,-0.307636 1.331425,0.131844 1.331424,-0.167002 1.331425,-0.131844 1.331424,0.0879 1.331425,0.01758 1.331424,-0.05274 1.331425,0.140634 1.331424,-0.272478 1.331425,0.04395 1.331424,0.140634 1.331425,-0.105475 1.331424,-0.09669 1.331425,-0.02637 1.331424,0.05274 1.331425,-0.03516 1.331424,0.06153 1.331425,-0.05274 1.331424,-0.0088 1.331425,-0.02637 1.331424,0 1.331427,0.03516 1.33142,-0.03516 1.33143,0 1.33142,0 1.33143,0 1.33142,0 1.33142,0.03516 1.33143,-0.03516 1.33142,0 1.33143,0 1.33142,0 1.33143,0 1.33142,0 1.33143,0.02637 1.33142,-0.02637 1.33142,0 1.33143,0 1.33142,0 1.33143,0 1.33142,0 1.33143,0 1.33142,0 1.33143,0 1.33142,0 1.33143,0 1.33142,0 1.33142,0 1.33143,0 1.33142,0 1.33143,0 1.33142,0 1.33143,0 1.33142,0 1.33143,0 1.33142,0 1.33142,0 1.33143,0 1.33142,0 1.33143,0 1.33142,0 1.33143,0 1.33142,0 1.33143,0 1.33142,0 1.33142,0 1.33143,0 1.33142,0 1.33143,0 1.33142,0 1.33143,0"
           style="fill:none;stroke:#3465a4;stroke-width:0.75;stroke-linecap:square;stroke-linejoin:round;stroke-miterlimit:10;stroke-dasharray:2.25,2.25;stroke-opacity:1;stroke-dashoffset:0"
           id="path44"
           inkscape:connector-curvature="0" /></g></g><g
       id="g46"><g
         id="g48"
         clip-path="url(#clipPath50)"><path
           d="m 34.110254,39.528517 1.331424,18.748214 1.331425,15.109321 1.331424,21.91247 1.331424,17.552828 1.331425,12.49002 1.331424,9.25545 1.331425,7.13715 1.331424,9.64219 1.331425,7.21626 1.331424,0.87017 1.331425,4.12233 1.331424,1.24812 1.331425,0.24611 1.331424,0.57132 1.331425,0.61527 1.331424,0.54496 1.331425,0.12305 1.331424,0.0176 1.331425,0.10548 1.331424,0 1.331425,-0.0176 1.331424,0.0703 1.331425,0.009 1.331424,0 1.331425,0.009 1.331424,0 1.331425,0 1.331424,0 1.331424,0 1.331425,0 1.331424,0 1.331425,0 1.331424,0 1.331425,0 1.331424,0 1.331425,0 1.331424,0 1.331425,0 1.331424,0 1.331425,0 1.331424,0 1.331425,0 1.331424,0 1.331425,0 1.331424,0 1.331425,0 1.331424,0 1.331425,0 1.331424,0 1.331427,0 1.33142,0 1.33143,0 1.33142,0 1.33143,0 1.33142,0 1.33142,0 1.33143,0 1.33142,0 1.33143,0 1.33142,0 1.33143,0 1.33142,0 1.33143,0 1.33142,0 1.33142,0 1.33143,0 1.33142,0 1.33143,0 1.33142,0 1.33143,0 1.33142,0 1.33143,0 1.33142,0 1.33143,0 1.33142,0 1.33142,0 1.33143,0 1.33142,0 1.33143,0 1.33142,0 1.33143,0 1.33142,0 1.33143,0 1.33142,0 1.33142,0 1.33143,0 1.33142,0 1.33143,0 1.33142,0 1.33143,0 1.33142,0 1.33143,0 1.33142,0 1.33142,0 1.33143,0 1.33142,0 1.33143,0 1.33142,0 1.33143,0"
           style="fill:none;stroke:#3465a4;stroke-width:0.75040002;stroke-linecap:butt;stroke-linejoin:round;stroke-miterlimit:10;stroke-dasharray:none;stroke-dashoffset:0;stroke-opacity:1"
           id="path54"
           inkscape:connector-curvature="0" /></g></g><g
       id="g56"><path
         d="m 34.110254,170.15075 131.811026,0"
         style="fill:none;stroke:#000000;stroke-width:0.25;stroke-linecap:square;stroke-linejoin:miter;stroke-miterlimit:10;stroke-dasharray:none;stroke-opacity:1"
         id="path58"
         inkscape:connector-curvature="0" /><path
         d="m 165.92128,34.087755 0,136.062995"
         style="fill:none;stroke:#000000;stroke-width:0.25;stroke-linecap:square;stroke-linejoin:miter;stroke-miterlimit:10;stroke-dasharray:none;stroke-opacity:1"
         id="path60"
         inkscape:connector-curvature="0" /><path
         d="m 34.110254,34.087755 131.811026,0"
         style="fill:none;stroke:#000000;stroke-width:0.25;stroke-linecap:square;stroke-linejoin:miter;stroke-miterlimit:10;stroke-dasharray:none;stroke-opacity:1"
         id="path62"
         inkscape:connector-curvature="0" /><path
         d="m 34.110254,34.087755 0,136.062995"
         style="fill:none;stroke:#000000;stroke-width:0.25;stroke-linecap:square;stroke-linejoin:miter;stroke-miterlimit:10;stroke-dasharray:none;stroke-opacity:1"
         id="path64"
         inkscape:connector-curvature="0" /><path
         d="m 34.110254,34.087755 0,4"
         style="fill:#000000;fill-opacity:1;fill-rule:nonzero;stroke:#000000;stroke-width:0.5;stroke-linecap:butt;stroke-linejoin:round;stroke-miterlimit:10;stroke-dasharray:none;stroke-opacity:1"
         id="path66"
         inkscape:connector-curvature="0" /><path
         d="m 34.110254,170.15075 0,-4"
         style="fill:#000000;fill-opacity:1;fill-rule:nonzero;stroke:#000000;stroke-width:0.5;stroke-linecap:butt;stroke-linejoin:round;stroke-miterlimit:10;stroke-dasharray:none;stroke-opacity:1"
         id="path68"
         inkscape:connector-curvature="0" /><text
         transform="matrix(1,0,0,-1,28.506268,23.672344)"
         style="font-variant:normal;font-size:8.9663763px;font-family:'URW Palladio L';-inkscape-font-specification:URWPalladioL-Roma;writing-mode:lr-tb;fill:#000000;fill-opacity:1;fill-rule:nonzero;stroke:none"
         id="text70"><tspan
           x="0 4.4831882 6.724782"
           y="0"
           sodipodi:role="line"
           id="tspan72">0.0</tspan></text>
<path
         d="m 60.472458,34.087755 0,4"
         style="fill:#000000;fill-opacity:1;fill-rule:nonzero;stroke:#000000;stroke-width:0.5;stroke-linecap:butt;stroke-linejoin:round;stroke-miterlimit:10;stroke-dasharray:none;stroke-opacity:1"
         id="path74"
         inkscape:connector-curvature="0" /><path
         d="m 60.472458,170.15075 0,-4"
         style="fill:#000000;fill-opacity:1;fill-rule:nonzero;stroke:#000000;stroke-width:0.5;stroke-linecap:butt;stroke-linejoin:round;stroke-miterlimit:10;stroke-dasharray:none;stroke-opacity:1"
         id="path76"
         inkscape:connector-curvature="0" /><text
         transform="matrix(1,0,0,-1,54.868473,23.672344)"
         style="font-variant:normal;font-size:8.9663763px;font-family:'URW Palladio L';-inkscape-font-specification:URWPalladioL-Roma;writing-mode:lr-tb;fill:#000000;fill-opacity:1;fill-rule:nonzero;stroke:none"
         id="text78"><tspan
           x="0 4.4831882 6.724782"
           y="0"
           sodipodi:role="line"
           id="tspan80">0.2</tspan></text>
<path
         d="m 86.834663,34.087755 0,4"
         style="fill:#000000;fill-opacity:1;fill-rule:nonzero;stroke:#000000;stroke-width:0.5;stroke-linecap:butt;stroke-linejoin:round;stroke-miterlimit:10;stroke-dasharray:none;stroke-opacity:1"
         id="path82"
         inkscape:connector-curvature="0" /><path
         d="m 86.834663,170.15075 0,-4"
         style="fill:#000000;fill-opacity:1;fill-rule:nonzero;stroke:#000000;stroke-width:0.5;stroke-linecap:butt;stroke-linejoin:round;stroke-miterlimit:10;stroke-dasharray:none;stroke-opacity:1"
         id="path84"
         inkscape:connector-curvature="0" /><text
         transform="matrix(1,0,0,-1,81.230678,23.672344)"
         style="font-variant:normal;font-size:8.9663763px;font-family:'URW Palladio L';-inkscape-font-specification:URWPalladioL-Roma;writing-mode:lr-tb;fill:#000000;fill-opacity:1;fill-rule:nonzero;stroke:none"
         id="text86"><tspan
           x="0 4.4831882 6.724782"
           y="0"
           sodipodi:role="line"
           id="tspan88">0.4</tspan></text>
<path
         d="m 113.19687,34.087755 0,4"
         style="fill:#000000;fill-opacity:1;fill-rule:nonzero;stroke:#000000;stroke-width:0.5;stroke-linecap:butt;stroke-linejoin:round;stroke-miterlimit:10;stroke-dasharray:none;stroke-opacity:1"
         id="path90"
         inkscape:connector-curvature="0" /><path
         d="m 113.19687,170.15075 0,-4"
         style="fill:#000000;fill-opacity:1;fill-rule:nonzero;stroke:#000000;stroke-width:0.5;stroke-linecap:butt;stroke-linejoin:round;stroke-miterlimit:10;stroke-dasharray:none;stroke-opacity:1"
         id="path92"
         inkscape:connector-curvature="0" /><text
         transform="matrix(1,0,0,-1,107.59288,23.672344)"
         style="font-variant:normal;font-size:8.9663763px;font-family:'URW Palladio L';-inkscape-font-specification:URWPalladioL-Roma;writing-mode:lr-tb;fill:#000000;fill-opacity:1;fill-rule:nonzero;stroke:none"
         id="text94"><tspan
           x="0 4.4831882 6.724782"
           y="0"
           sodipodi:role="line"
           id="tspan96">0.6</tspan></text>
<path
         d="m 139.55907,34.087755 0,4"
         style="fill:#000000;fill-opacity:1;fill-rule:nonzero;stroke:#000000;stroke-width:0.5;stroke-linecap:butt;stroke-linejoin:round;stroke-miterlimit:10;stroke-dasharray:none;stroke-opacity:1"
         id="path98"
         inkscape:connector-curvature="0" /><path
         d="m 139.55907,170.15075 0,-4"
         style="fill:#000000;fill-opacity:1;fill-rule:nonzero;stroke:#000000;stroke-width:0.5;stroke-linecap:butt;stroke-linejoin:round;stroke-miterlimit:10;stroke-dasharray:none;stroke-opacity:1"
         id="path100"
         inkscape:connector-curvature="0" /><text
         transform="matrix(1,0,0,-1,133.95509,23.672344)"
         style="font-variant:normal;font-size:8.9663763px;font-family:'URW Palladio L';-inkscape-font-specification:URWPalladioL-Roma;writing-mode:lr-tb;fill:#000000;fill-opacity:1;fill-rule:nonzero;stroke:none"
         id="text102"><tspan
           x="0 4.4831882 6.724782"
           y="0"
           sodipodi:role="line"
           id="tspan104">0.8</tspan></text>
<path
         d="m 165.92128,34.087755 0,4"
         style="fill:#000000;fill-opacity:1;fill-rule:nonzero;stroke:#000000;stroke-width:0.5;stroke-linecap:butt;stroke-linejoin:round;stroke-miterlimit:10;stroke-dasharray:none;stroke-opacity:1"
         id="path106"
         inkscape:connector-curvature="0" /><path
         d="m 165.92128,170.15075 0,-4"
         style="fill:#000000;fill-opacity:1;fill-rule:nonzero;stroke:#000000;stroke-width:0.5;stroke-linecap:butt;stroke-linejoin:round;stroke-miterlimit:10;stroke-dasharray:none;stroke-opacity:1"
         id="path108"
         inkscape:connector-curvature="0" /><text
         transform="matrix(1,0,0,-1,160.31729,23.672344)"
         style="font-variant:normal;font-size:8.9663763px;font-family:'URW Palladio L';-inkscape-font-specification:URWPalladioL-Roma;writing-mode:lr-tb;fill:#000000;fill-opacity:1;fill-rule:nonzero;stroke:none"
         id="text110"><tspan
           x="0 4.4831882 6.724782"
           y="0"
           sodipodi:role="line"
           id="tspan112">1.0</tspan></text>
<text
         transform="matrix(1,0,0,-1,84.824624,9.7284669)"
         style="font-variant:normal;font-size:8.9663763px;font-family:'URW Palladio L';-inkscape-font-specification:URWPalladioL-Roma;writing-mode:lr-tb;fill:#000000;fill-opacity:1;fill-rule:nonzero;stroke:none"
         id="text114"><tspan
           x="0 7.4420919 12.328767 14.929016 18.721794"
           y="0"
           sodipodi:role="line"
           id="tspan116">Noise</tspan></text>
<text
         transform="matrix(1,0,0,-1,110.72372,9.7284669)"
         style="font-style:italic;font-variant:normal;font-size:8.9663763px;font-family:'URW Palladio L';-inkscape-font-specification:URWPalladioL-Ital;writing-mode:lr-tb;fill:#000000;fill-opacity:1;fill-rule:nonzero;stroke:none"
         id="text118"><tspan
           x="0"
           y="0"
           id="tspan120">p</tspan></text>
<path
         d="m 34.110254,34.087755 4,0"
         style="fill:#000000;fill-opacity:1;fill-rule:nonzero;stroke:#000000;stroke-width:0.5;stroke-linecap:butt;stroke-linejoin:round;stroke-miterlimit:10;stroke-dasharray:none;stroke-opacity:1"
         id="path122"
         inkscape:connector-curvature="0" /><path
         d="m 165.92128,34.087755 -4,0"
         style="fill:#000000;fill-opacity:1;fill-rule:nonzero;stroke:#000000;stroke-width:0.5;stroke-linecap:butt;stroke-linejoin:round;stroke-miterlimit:10;stroke-dasharray:none;stroke-opacity:1"
         id="path124"
         inkscape:connector-curvature="0" /><text
         transform="matrix(1,0,0,-1,25.627065,32.144283)"
         style="font-variant:normal;font-size:8.9663763px;font-family:'URW Palladio L';-inkscape-font-specification:URWPalladioL-Roma;writing-mode:lr-tb;fill:#000000;fill-opacity:1;fill-rule:nonzero;stroke:none"
         id="text126"><tspan
           x="0"
           y="0"
           id="tspan128">0</tspan></text>
<path
         d="m 34.110254,49.205865 4,0"
         style="fill:#000000;fill-opacity:1;fill-rule:nonzero;stroke:#000000;stroke-width:0.5;stroke-linecap:butt;stroke-linejoin:round;stroke-miterlimit:10;stroke-dasharray:none;stroke-opacity:1"
         id="path130"
         inkscape:connector-curvature="0" /><path
         d="m 165.92128,49.205865 -4,0"
         style="fill:#000000;fill-opacity:1;fill-rule:nonzero;stroke:#000000;stroke-width:0.5;stroke-linecap:butt;stroke-linejoin:round;stroke-miterlimit:10;stroke-dasharray:none;stroke-opacity:1"
         id="path132"
         inkscape:connector-curvature="0" /><text
         transform="matrix(1,0,0,-1,21.143877,47.262393)"
         style="font-variant:normal;font-size:8.9663763px;font-family:'URW Palladio L';-inkscape-font-specification:URWPalladioL-Roma;writing-mode:lr-tb;fill:#000000;fill-opacity:1;fill-rule:nonzero;stroke:none"
         id="text134"><tspan
           x="0 4.4831882"
           y="0"
           sodipodi:role="line"
           id="tspan136">10</tspan></text>
<path
         d="m 34.110254,64.323975 4,0"
         style="fill:#000000;fill-opacity:1;fill-rule:nonzero;stroke:#000000;stroke-width:0.5;stroke-linecap:butt;stroke-linejoin:round;stroke-miterlimit:10;stroke-dasharray:none;stroke-opacity:1"
         id="path138"
         inkscape:connector-curvature="0" /><path
         d="m 165.92128,64.323975 -4,0"
         style="fill:#000000;fill-opacity:1;fill-rule:nonzero;stroke:#000000;stroke-width:0.5;stroke-linecap:butt;stroke-linejoin:round;stroke-miterlimit:10;stroke-dasharray:none;stroke-opacity:1"
         id="path140"
         inkscape:connector-curvature="0" /><text
         transform="matrix(1,0,0,-1,21.143877,62.380504)"
         style="font-variant:normal;font-size:8.9663763px;font-family:'URW Palladio L';-inkscape-font-specification:URWPalladioL-Roma;writing-mode:lr-tb;fill:#000000;fill-opacity:1;fill-rule:nonzero;stroke:none"
         id="text142"><tspan
           x="0 4.4831882"
           y="0"
           sodipodi:role="line"
           id="tspan144">20</tspan></text>
<path
         d="m 34.110254,79.442086 4,0"
         style="fill:#000000;fill-opacity:1;fill-rule:nonzero;stroke:#000000;stroke-width:0.5;stroke-linecap:butt;stroke-linejoin:round;stroke-miterlimit:10;stroke-dasharray:none;stroke-opacity:1"
         id="path146"
         inkscape:connector-curvature="0" /><path
         d="m 165.92128,79.442086 -4,0"
         style="fill:#000000;fill-opacity:1;fill-rule:nonzero;stroke:#000000;stroke-width:0.5;stroke-linecap:butt;stroke-linejoin:round;stroke-miterlimit:10;stroke-dasharray:none;stroke-opacity:1"
         id="path148"
         inkscape:connector-curvature="0" /><text
         transform="matrix(1,0,0,-1,21.143877,77.498614)"
         style="font-variant:normal;font-size:8.9663763px;font-family:'URW Palladio L';-inkscape-font-specification:URWPalladioL-Roma;writing-mode:lr-tb;fill:#000000;fill-opacity:1;fill-rule:nonzero;stroke:none"
         id="text150"><tspan
           x="0 4.4831882"
           y="0"
           sodipodi:role="line"
           id="tspan152">30</tspan></text>
<path
         d="m 34.110254,94.560196 4,0"
         style="fill:#000000;fill-opacity:1;fill-rule:nonzero;stroke:#000000;stroke-width:0.5;stroke-linecap:butt;stroke-linejoin:round;stroke-miterlimit:10;stroke-dasharray:none;stroke-opacity:1"
         id="path154"
         inkscape:connector-curvature="0" /><path
         d="m 165.92128,94.560196 -4,0"
         style="fill:#000000;fill-opacity:1;fill-rule:nonzero;stroke:#000000;stroke-width:0.5;stroke-linecap:butt;stroke-linejoin:round;stroke-miterlimit:10;stroke-dasharray:none;stroke-opacity:1"
         id="path156"
         inkscape:connector-curvature="0" /><text
         transform="matrix(1,0,0,-1,21.143877,92.616724)"
         style="font-variant:normal;font-size:8.9663763px;font-family:'URW Palladio L';-inkscape-font-specification:URWPalladioL-Roma;writing-mode:lr-tb;fill:#000000;fill-opacity:1;fill-rule:nonzero;stroke:none"
         id="text158"><tspan
           x="0 4.4831882"
           y="0"
           sodipodi:role="line"
           id="tspan160">40</tspan></text>
<path
         d="m 34.110254,109.67831 4,0"
         style="fill:#000000;fill-opacity:1;fill-rule:nonzero;stroke:#000000;stroke-width:0.5;stroke-linecap:butt;stroke-linejoin:round;stroke-miterlimit:10;stroke-dasharray:none;stroke-opacity:1"
         id="path162"
         inkscape:connector-curvature="0" /><path
         d="m 165.92128,109.67831 -4,0"
         style="fill:#000000;fill-opacity:1;fill-rule:nonzero;stroke:#000000;stroke-width:0.5;stroke-linecap:butt;stroke-linejoin:round;stroke-miterlimit:10;stroke-dasharray:none;stroke-opacity:1"
         id="path164"
         inkscape:connector-curvature="0" /><text
         transform="matrix(1,0,0,-1,21.143877,107.73483)"
         style="font-variant:normal;font-size:8.9663763px;font-family:'URW Palladio L';-inkscape-font-specification:URWPalladioL-Roma;writing-mode:lr-tb;fill:#000000;fill-opacity:1;fill-rule:nonzero;stroke:none"
         id="text166"><tspan
           x="0 4.4831882"
           y="0"
           sodipodi:role="line"
           id="tspan168">50</tspan></text>
<path
         d="m 34.110254,124.79642 4,0"
         style="fill:#000000;fill-opacity:1;fill-rule:nonzero;stroke:#000000;stroke-width:0.5;stroke-linecap:butt;stroke-linejoin:round;stroke-miterlimit:10;stroke-dasharray:none;stroke-opacity:1"
         id="path170"
         inkscape:connector-curvature="0" /><path
         d="m 165.92128,124.79642 -4,0"
         style="fill:#000000;fill-opacity:1;fill-rule:nonzero;stroke:#000000;stroke-width:0.5;stroke-linecap:butt;stroke-linejoin:round;stroke-miterlimit:10;stroke-dasharray:none;stroke-opacity:1"
         id="path172"
         inkscape:connector-curvature="0" /><text
         transform="matrix(1,0,0,-1,21.143877,122.85294)"
         style="font-variant:normal;font-size:8.9663763px;font-family:'URW Palladio L';-inkscape-font-specification:URWPalladioL-Roma;writing-mode:lr-tb;fill:#000000;fill-opacity:1;fill-rule:nonzero;stroke:none"
         id="text174"><tspan
           x="0 4.4831882"
           y="0"
           sodipodi:role="line"
           id="tspan176">60</tspan></text>
<path
         d="m 34.110254,139.91453 4,0"
         style="fill:#000000;fill-opacity:1;fill-rule:nonzero;stroke:#000000;stroke-width:0.5;stroke-linecap:butt;stroke-linejoin:round;stroke-miterlimit:10;stroke-dasharray:none;stroke-opacity:1"
         id="path178"
         inkscape:connector-curvature="0" /><path
         d="m 165.92128,139.91453 -4,0"
         style="fill:#000000;fill-opacity:1;fill-rule:nonzero;stroke:#000000;stroke-width:0.5;stroke-linecap:butt;stroke-linejoin:round;stroke-miterlimit:10;stroke-dasharray:none;stroke-opacity:1"
         id="path180"
         inkscape:connector-curvature="0" /><text
         transform="matrix(1,0,0,-1,21.143877,137.97105)"
         style="font-variant:normal;font-size:8.9663763px;font-family:'URW Palladio L';-inkscape-font-specification:URWPalladioL-Roma;writing-mode:lr-tb;fill:#000000;fill-opacity:1;fill-rule:nonzero;stroke:none"
         id="text182"><tspan
           x="0 4.4831882"
           y="0"
           sodipodi:role="line"
           id="tspan184">70</tspan></text>
<path
         d="m 34.110254,155.03264 4,0"
         style="fill:#000000;fill-opacity:1;fill-rule:nonzero;stroke:#000000;stroke-width:0.5;stroke-linecap:butt;stroke-linejoin:round;stroke-miterlimit:10;stroke-dasharray:none;stroke-opacity:1"
         id="path186"
         inkscape:connector-curvature="0" /><path
         d="m 165.92128,155.03264 -4,0"
         style="fill:#000000;fill-opacity:1;fill-rule:nonzero;stroke:#000000;stroke-width:0.5;stroke-linecap:butt;stroke-linejoin:round;stroke-miterlimit:10;stroke-dasharray:none;stroke-opacity:1"
         id="path188"
         inkscape:connector-curvature="0" /><text
         transform="matrix(1,0,0,-1,21.143877,153.08916)"
         style="font-variant:normal;font-size:8.9663763px;font-family:'URW Palladio L';-inkscape-font-specification:URWPalladioL-Roma;writing-mode:lr-tb;fill:#000000;fill-opacity:1;fill-rule:nonzero;stroke:none"
         id="text190"><tspan
           x="0 4.4831882"
           y="0"
           sodipodi:role="line"
           id="tspan192">80</tspan></text>
<path
         d="m 34.110254,170.15075 4,0"
         style="fill:#000000;fill-opacity:1;fill-rule:nonzero;stroke:#000000;stroke-width:0.5;stroke-linecap:butt;stroke-linejoin:round;stroke-miterlimit:10;stroke-dasharray:none;stroke-opacity:1"
         id="path194"
         inkscape:connector-curvature="0" /><path
         d="m 165.92128,170.15075 -4,0"
         style="fill:#000000;fill-opacity:1;fill-rule:nonzero;stroke:#000000;stroke-width:0.5;stroke-linecap:butt;stroke-linejoin:round;stroke-miterlimit:10;stroke-dasharray:none;stroke-opacity:1"
         id="path196"
         inkscape:connector-curvature="0" /><text
         transform="matrix(1,0,0,-1,21.143877,168.20728)"
         style="font-variant:normal;font-size:8.9663763px;font-family:'URW Palladio L';-inkscape-font-specification:URWPalladioL-Roma;writing-mode:lr-tb;fill:#000000;fill-opacity:1;fill-rule:nonzero;stroke:none"
         id="text198"><tspan
           x="0 4.4831882"
           y="0"
           sodipodi:role="line"
           id="tspan200">90</tspan></text>
<text
         transform="matrix(0,1,1,0,13.615411,61.963971)"
         style="font-variant:normal;font-size:8.9663763px;font-family:'URW Palladio L';-inkscape-font-specification:URWPalladioL-Roma;writing-mode:lr-tb;fill:#000000;fill-opacity:1;fill-rule:nonzero;stroke:none"
         id="text202"><tspan
           x="0 4.9763389 9.459527 12.059776 15.852553 22.380075 27.759901 32.646576 36.439354 39.0396 41.953674 44.553925 49.610958 53.896885 59.931259 62.908096 67.857536 70.457787 73.371857 77.164635"
           y="0"
           sodipodi:role="line"
           id="tspan204">Falsepositives[bits]</tspan></text>
</g></g></svg>