<?xml version="1.0" encoding="UTF-8" standalone="no"?>
<!-- Created with Inkscape (http://www.inkscape.org/) -->

<svg
   xmlns:dc="http://purl.org/dc/elements/1.1/"
   xmlns:cc="http://creativecommons.org/ns#"
   xmlns:rdf="http://www.w3.org/1999/02/22-rdf-syntax-ns#"
   xmlns:svg="http://www.w3.org/2000/svg"
   xmlns="http://www.w3.org/2000/svg"
   xmlns:sodipodi="http://sodipodi.sourceforge.net/DTD/sodipodi-0.dtd"
   xmlns:inkscape="http://www.inkscape.org/namespaces/inkscape"
   id="svg2"
   version="1.1"
   inkscape:version="0.91 r13725"
   xml:space="preserve"
   width="437.33099"
   height="227.27837"
   viewBox="0 0 437.33099 227.27837"
   sodipodi:docname="sketch_info_corr.svg"><metadata
     id="metadata8"><rdf:RDF><cc:Work
         rdf:about=""><dc:format>image/svg+xml</dc:format><dc:type
           rdf:resource="http://purl.org/dc/dcmitype/StillImage" /><dc:title></dc:title></cc:Work></rdf:RDF></metadata><defs
     id="defs6"><marker
       inkscape:isstock="true"
       style="overflow:visible"
       id="marker4337"
       refX="0.0"
       refY="0.0"
       orient="auto"
       inkscape:stockid="DotM"><path
         transform="scale(0.4) translate(7.4, 1)"
         style="fill-rule:evenodd;stroke:#000000;stroke-width:1pt;stroke-opacity:1;fill:#000000;fill-opacity:1"
         d="M -2.5,-1.0 C -2.5,1.7600000 -4.7400000,4.0 -7.5,4.0 C -10.260000,4.0 -12.5,1.7600000 -12.5,-1.0 C -12.5,-3.7600000 -10.260000,-6.0 -7.5,-6.0 C -4.7400000,-6.0 -2.5,-3.7600000 -2.5,-1.0 z "
         id="path4339" /></marker><inkscape:path-effect
       effect="spiro"
       id="path-effect4261"
       is_visible="true" /><marker
       inkscape:stockid="DotM"
       orient="auto"
       refY="0.0"
       refX="0.0"
       id="DotM"
       style="overflow:visible"
       inkscape:isstock="true"
       inkscape:collect="always"><path
         id="path4536"
         d="M -2.5,-1.0 C -2.5,1.7600000 -4.7400000,4.0 -7.5,4.0 C -10.260000,4.0 -12.5,1.7600000 -12.5,-1.0 C -12.5,-3.7600000 -10.260000,-6.0 -7.5,-6.0 C -4.7400000,-6.0 -2.5,-3.7600000 -2.5,-1.0 z "
         style="fill-rule:evenodd;stroke:#000000;stroke-width:1pt;stroke-opacity:1;fill:#000000;fill-opacity:1"
         transform="scale(0.4) translate(7.4, 1)" /></marker><inkscape:path-effect
       effect="spiro"
       id="path-effect4466"
       is_visible="true" /><clipPath
       clipPathUnits="userSpaceOnUse"
       id="clipPath20"><path
         d="m 43.07663,34.087755 259.22835,0 0,136.062995 -259.22835,0 0,-136.062995 z"
         id="path22"
         inkscape:connector-curvature="0" /></clipPath><clipPath
       clipPathUnits="userSpaceOnUse"
       id="clipPath30"><path
         d="m 43.07663,34.087755 259.22835,0 0,136.062995 -259.22835,0 0,-136.062995 z"
         id="path32"
         inkscape:connector-curvature="0" /></clipPath><clipPath
       clipPathUnits="userSpaceOnUse"
       id="clipPath146"><path
         d="m 43.07663,34.087755 259.22835,0 0,136.062995 -259.22835,0 0,-136.062995 z"
         id="path148"
         inkscape:connector-curvature="0" /></clipPath><clipPath
       clipPathUnits="userSpaceOnUse"
       id="clipPath156"><path
         d="m 43.07663,34.087755 259.22835,0 0,136.062995 -259.22835,0 0,-136.062995 z"
         id="path158"
         inkscape:connector-curvature="0" /></clipPath><marker
       inkscape:stockid="DotM"
       orient="auto"
       refY="0"
       refX="0"
       id="DotM-7"
       style="overflow:visible"
       inkscape:isstock="true"><path
         inkscape:connector-curvature="0"
         id="path4536-8"
         d="m -2.5,-1 c 0,2.76 -2.24,5 -5,5 -2.76,0 -5,-2.24 -5,-5 0,-2.76 2.24,-5 5,-5 2.76,0 5,2.24 5,5 z"
         style="fill:#000000;fill-opacity:1;fill-rule:evenodd;stroke:#000000;stroke-width:1pt;stroke-opacity:1"
         transform="matrix(0.4,0,0,0.4,2.96,0.4)" /></marker><inkscape:path-effect
       effect="spiro"
       id="path-effect4466-1"
       is_visible="true" /><marker
       inkscape:stockid="DotM"
       orient="auto"
       refY="0"
       refX="0"
       id="DotM-7-8"
       style="overflow:visible"
       inkscape:isstock="true"><path
         inkscape:connector-curvature="0"
         id="path4536-8-2"
         d="m -2.5,-1 c 0,2.76 -2.24,5 -5,5 -2.76,0 -5,-2.24 -5,-5 0,-2.76 2.24,-5 5,-5 2.76,0 5,2.24 5,5 z"
         style="fill:#000000;fill-opacity:1;fill-rule:evenodd;stroke:#000000;stroke-width:1pt;stroke-opacity:1"
         transform="matrix(0.4,0,0,0.4,2.96,0.4)" /></marker><inkscape:path-effect
       effect="spiro"
       id="path-effect4466-1-9"
       is_visible="true" /></defs><sodipodi:namedview
     pagecolor="#ffffff"
     bordercolor="#666666"
     borderopacity="1"
     objecttolerance="10"
     gridtolerance="10"
     guidetolerance="10"
     inkscape:pageopacity="0"
     inkscape:pageshadow="2"
     inkscape:window-width="2560"
     inkscape:window-height="1376"
     id="namedview4"
     showgrid="false"
     inkscape:zoom="3.539653"
     inkscape:cx="186.30468"
     inkscape:cy="128.03571"
     inkscape:window-x="0"
     inkscape:window-y="27"
     inkscape:window-maximized="1"
     inkscape:current-layer="g10" /><g
     id="g10"
     inkscape:groupmode="layer"
     inkscape:label="sketch_info"
     transform="matrix(1.25,0,0,-1.25,0,227.27836)"><g
       clip-path="url(#clipPath20)"
       id="g18"><path
         inkscape:connector-curvature="0"
         id="path24"
         style="fill:none;stroke:#000000;stroke-width:0.75;stroke-linecap:square;stroke-linejoin:round;stroke-miterlimit:10;stroke-dasharray:none;stroke-opacity:1"
         d="m 43.07663,35.093214 2.33539,9.049134 2.594878,10.054592 2.594879,10.054593 2.594878,10.054593 2.594879,10.054593 2.594878,10.054592 2.594878,10.054589 2.594879,10.0546 2.594878,9.64636 2.594878,9.12878 2.594879,8.22606 2.594878,7.86645 2.594878,6.79795 2.594879,3.96507 2.594878,4.27297 2.594878,1.21464 2.594879,0.73601 2.594878,-0.002 2.594878,-1.78622 2.594879,-2.48456 2.594878,-3.56976 2.594878,-3.70429 2.594875,-5.23365 2.59488,-3.89292 2.59488,-3.36156 2.59488,-4.58042 2.59488,-2.95346 2.59488,-3.57275 2.59487,-2.66074 2.59488,-3.51666 2.59488,-2.78179 2.59488,-2.74635 2.59488,-4.35748 2.59488,-2.96601 2.59487,-2.65359 2.59488,-3.62388 2.59488,-4.61691 2.59488,-2.636026 2.59488,-1.671785 2.59488,-1.737028 2.59487,-2.778543 2.59488,-1.347072 2.59488,-3.295487 2.59488,-4.363394 2.59488,-2.403602 2.59488,-3.237929 2.59487,-2.364216 2.59488,-1.674923 2.59488,-2.327772 2.59488,-1.976683 2.59488,-1.409587 2.59488,-1.494113 2.59487,-1.921288 2.59488,-0.967703 2.59488,-1.533409 2.59488,-1.899384 2.59488,-0.968085 2.59488,-0.83616 2.59487,-0.939313 2.59488,-1.458675 2.59488,-0.842198 2.59488,-0.875347 2.59488,-1.906252 2.59488,-1.264327 2.59487,-1.284914 2.59488,-1.82296 2.59488,-0.361242 2.59488,-0.791717 2.59488,-1.137648 2.59488,-0.0511 2.59487,-0.661827 2.59488,-0.878774 2.59488,-0.945758 2.59488,0.136004 2.59488,-0.283774 2.59488,-0.308673 2.59487,-1.466233 2.59488,-0.57895 2.59488,-0.596769 2.59488,-0.606026 2.59488,-0.151211 2.59488,-0.167336 2.59487,-0.415637 2.59488,-0.404457 2.59488,0.05158 2.59488,0.05147 2.59488,-0.183779 2.59488,-0.197064 2.59487,0.03435 2.59488,-0.724193 2.59488,-0.4904 2.59488,-0.485756 2.59488,0.01366 2.59488,-0.229627 2.59487,0.01712 2.59488,0.02053 2.59488,0.02395 2.59488,0.02748 2.59488,0.01366 2.59488,0.02057" /></g><g
       clip-path="url(#clipPath30)"
       id="g28"><path
         inkscape:connector-curvature="0"
         id="path34"
         style="fill:none;stroke:#000000;stroke-width:0.5;stroke-linecap:square;stroke-linejoin:round;stroke-miterlimit:10;stroke-dasharray:none;stroke-opacity:1"
         d="m 42.817142,130.61185 259.487838,0" /></g><path
       inkscape:connector-curvature="0"
       id="path38"
       style="fill:none;stroke:#000000;stroke-width:0.25;stroke-linecap:square;stroke-linejoin:miter;stroke-miterlimit:10;stroke-dasharray:none;stroke-opacity:1"
       d="m 43.07663,170.15075 259.22835,0" /><path
       inkscape:connector-curvature="0"
       id="path40"
       style="fill:none;stroke:#3465a4;stroke-width:0.25;stroke-linecap:square;stroke-linejoin:miter;stroke-miterlimit:10;stroke-dasharray:none;stroke-opacity:1"
       d="m 302.30498,34.087755 0,136.062995" /><path
       inkscape:connector-curvature="0"
       id="path42"
       style="fill:none;stroke:#000000;stroke-width:0.25;stroke-linecap:square;stroke-linejoin:miter;stroke-miterlimit:10;stroke-dasharray:none;stroke-opacity:1"
       d="m 43.07663,34.087755 259.22835,0" /><path
       inkscape:connector-curvature="0"
       id="path44"
       style="fill:none;stroke:#000000;stroke-width:0.25;stroke-linecap:square;stroke-linejoin:miter;stroke-miterlimit:10;stroke-dasharray:none;stroke-opacity:1"
       d="m 43.07663,34.087755 0,136.062995" /><text
       id="text46"
       style="font-variant:normal;font-size:8.9663763px;font-family:'URW Palladio L';-inkscape-font-specification:URWPalladioL-Roma;writing-mode:lr-tb;fill:#000000;fill-opacity:1;fill-rule:nonzero;stroke:none"
       transform="scale(1,-1)"
       x="40.575546"
       y="-23.672344"><tspan
         id="tspan48"
         y="-23.672344"
         x="40.575546">0</tspan></text>
<path
       inkscape:connector-curvature="0"
       id="path50"
       style="fill:#000000;fill-opacity:1;fill-rule:nonzero;stroke:#000000;stroke-width:0.5;stroke-linecap:butt;stroke-linejoin:round;stroke-miterlimit:10;stroke-dasharray:none;stroke-opacity:1"
       d="m 94.714709,34.087755 0,4" /><path
       inkscape:connector-curvature="0"
       id="path52"
       style="fill:#000000;fill-opacity:1;fill-rule:nonzero;stroke:#000000;stroke-width:0.5;stroke-linecap:butt;stroke-linejoin:round;stroke-miterlimit:10;stroke-dasharray:none;stroke-opacity:1"
       d="m 94.714709,170.15075 0,-4" /><text
       id="text54"
       style="font-variant:normal;font-size:8.9663763px;font-family:'URW Palladio L';-inkscape-font-specification:URWPalladioL-Roma;writing-mode:lr-tb;fill:#000000;fill-opacity:1;fill-rule:nonzero;stroke:none"
       transform="scale(1,-1)"
       x="87.989929"
       y="-23.672344"><tspan
         id="tspan56"
         sodipodi:role="line"
         y="-23.672344"
         x="87.989929 92.473114 96.956306">200</tspan></text>
<path
       inkscape:connector-curvature="0"
       id="path58"
       style="fill:#000000;fill-opacity:1;fill-rule:nonzero;stroke:#000000;stroke-width:0.5;stroke-linecap:butt;stroke-linejoin:round;stroke-miterlimit:10;stroke-dasharray:none;stroke-opacity:1"
       d="m 146.61228,34.087755 0,4" /><path
       inkscape:connector-curvature="0"
       id="path60"
       style="fill:#000000;fill-opacity:1;fill-rule:nonzero;stroke:#000000;stroke-width:0.5;stroke-linecap:butt;stroke-linejoin:round;stroke-miterlimit:10;stroke-dasharray:none;stroke-opacity:1"
       d="m 146.61228,170.15075 0,-4" /><text
       id="text62"
       style="font-variant:normal;font-size:8.9663763px;font-family:'URW Palladio L';-inkscape-font-specification:URWPalladioL-Roma;writing-mode:lr-tb;fill:#000000;fill-opacity:1;fill-rule:nonzero;stroke:none"
       transform="scale(1,-1)"
       x="139.8875"
       y="-23.672344"><tspan
         id="tspan64"
         sodipodi:role="line"
         y="-23.672344"
         x="139.8875 144.37068 148.85387">400</tspan></text>
<path
       inkscape:connector-curvature="0"
       id="path66"
       style="fill:#000000;fill-opacity:1;fill-rule:nonzero;stroke:#000000;stroke-width:0.5;stroke-linecap:butt;stroke-linejoin:round;stroke-miterlimit:10;stroke-dasharray:none;stroke-opacity:1"
       d="m 198.50984,34.087755 0,4" /><path
       inkscape:connector-curvature="0"
       id="path68"
       style="fill:#000000;fill-opacity:1;fill-rule:nonzero;stroke:#000000;stroke-width:0.5;stroke-linecap:butt;stroke-linejoin:round;stroke-miterlimit:10;stroke-dasharray:none;stroke-opacity:1"
       d="m 198.50984,170.15075 0,-4" /><text
       id="text70"
       style="font-variant:normal;font-size:8.9663763px;font-family:'URW Palladio L';-inkscape-font-specification:URWPalladioL-Roma;writing-mode:lr-tb;fill:#000000;fill-opacity:1;fill-rule:nonzero;stroke:none"
       transform="scale(1,-1)"
       x="191.78506"
       y="-23.672344"><tspan
         id="tspan72"
         sodipodi:role="line"
         y="-23.672344"
         x="191.78506 196.26825 200.75143">600</tspan></text>
<path
       inkscape:connector-curvature="0"
       id="path74"
       style="fill:#000000;fill-opacity:1;fill-rule:nonzero;stroke:#000000;stroke-width:0.5;stroke-linecap:butt;stroke-linejoin:round;stroke-miterlimit:10;stroke-dasharray:none;stroke-opacity:1"
       d="m 250.40741,34.087755 0,4" /><path
       inkscape:connector-curvature="0"
       id="path76"
       style="fill:#000000;fill-opacity:1;fill-rule:nonzero;stroke:#000000;stroke-width:0.5;stroke-linecap:butt;stroke-linejoin:round;stroke-miterlimit:10;stroke-dasharray:none;stroke-opacity:1"
       d="m 250.40741,170.15075 0,-4" /><text
       id="text78"
       style="font-variant:normal;font-size:8.9663763px;font-family:'URW Palladio L';-inkscape-font-specification:URWPalladioL-Roma;writing-mode:lr-tb;fill:#000000;fill-opacity:1;fill-rule:nonzero;stroke:none"
       transform="scale(1,-1)"
       x="243.68263"
       y="-23.672344"><tspan
         id="tspan80"
         sodipodi:role="line"
         y="-23.672344"
         x="243.68263 248.16582 252.649">800</tspan></text>
<path
       inkscape:connector-curvature="0"
       id="path82"
       style="fill:#000000;fill-opacity:1;fill-rule:nonzero;stroke:#000000;stroke-width:0.5;stroke-linecap:butt;stroke-linejoin:round;stroke-miterlimit:10;stroke-dasharray:none;stroke-opacity:1"
       d="m 302.30498,34.087755 0,4" /><path
       inkscape:connector-curvature="0"
       id="path84"
       style="fill:#000000;fill-opacity:1;fill-rule:nonzero;stroke:#000000;stroke-width:0.5;stroke-linecap:butt;stroke-linejoin:round;stroke-miterlimit:10;stroke-dasharray:none;stroke-opacity:1"
       d="m 302.30498,170.15075 0,-4" /><text
       id="text86"
       style="font-variant:normal;font-size:8.9663763px;font-family:'URW Palladio L';-inkscape-font-specification:URWPalladioL-Roma;writing-mode:lr-tb;fill:#000000;fill-opacity:1;fill-rule:nonzero;stroke:none"
       transform="scale(1,-1)"
       x="293.33859"
       y="-23.672344"><tspan
         id="tspan88"
         sodipodi:role="line"
         y="-23.672344"
         x="293.33859 297.82178 302.30496 306.78818">1000</tspan></text>
<text
       id="text90"
       style="font-variant:normal;font-size:8.9663763px;font-family:'URW Palladio L';-inkscape-font-specification:URWPalladioL-Roma;writing-mode:lr-tb;fill:#000000;fill-opacity:1;fill-rule:nonzero;stroke:none"
       transform="scale(1,-1)"
       x="140.83589"
       y="-9.728467"><tspan
         id="tspan92"
         sodipodi:role="line"
         y="-9.728467"
         x="140.83589 145.53427 150.01746 157.9258 163.30563 165.90588 172.4334 176.4055 181.29218 186.68994 191.8994">Samplecount</tspan></text>
<text
       id="text94"
       style="font-style:italic;font-variant:normal;font-size:8.9663763px;font-family:'URW Palladio L';-inkscape-font-specification:URWPalladioL-Ital;writing-mode:lr-tb;fill:#000000;fill-opacity:1;fill-rule:nonzero;stroke:none"
       transform="scale(1,-1)"
       x="197.56996"
       y="-9.728467"><tspan
         id="tspan96"
         y="-9.728467"
         x="197.56996">N</tspan></text>
<path
       inkscape:connector-curvature="0"
       id="path98"
       style="fill:#000000;fill-opacity:1;fill-rule:nonzero;stroke:#000000;stroke-width:0.5;stroke-linecap:butt;stroke-linejoin:round;stroke-miterlimit:10;stroke-dasharray:none;stroke-opacity:1"
       d="m 43.07663,34.087755 4,0" /><text
       id="text100"
       style="font-variant:normal;font-size:8.9663763px;font-family:'URW Palladio L';-inkscape-font-specification:URWPalladioL-Roma;writing-mode:lr-tb;fill:#000000;fill-opacity:1;fill-rule:nonzero;stroke:none"
       transform="scale(1,-1)"
       x="34.593441"
       y="-32.144283"><tspan
         id="tspan102"
         y="-32.144283"
         x="34.593441">0</tspan></text>
<path
       inkscape:connector-curvature="0"
       id="path104"
       style="fill:#000000;fill-opacity:1;fill-rule:nonzero;stroke:#000000;stroke-width:0.5;stroke-linecap:butt;stroke-linejoin:round;stroke-miterlimit:10;stroke-dasharray:none;stroke-opacity:1"
       d="m 43.07663,61.300353 4,0" /><text
       id="text106"
       style="font-variant:normal;font-size:8.9663763px;font-family:'URW Palladio L';-inkscape-font-specification:URWPalladioL-Roma;writing-mode:lr-tb;fill:#000000;fill-opacity:1;fill-rule:nonzero;stroke:none"
       transform="scale(1,-1)"
       x="21.143877"
       y="-59.35688"><tspan
         id="tspan108"
         sodipodi:role="line"
         y="-59.35688"
         x="21.143877 25.627066 30.110252 34.593441">1000</tspan></text>
<path
       inkscape:connector-curvature="0"
       id="path110"
       style="fill:#000000;fill-opacity:1;fill-rule:nonzero;stroke:#000000;stroke-width:0.5;stroke-linecap:butt;stroke-linejoin:round;stroke-miterlimit:10;stroke-dasharray:none;stroke-opacity:1"
       d="m 43.07663,88.512952 4,0" /><text
       id="text112"
       style="font-variant:normal;font-size:8.9663763px;font-family:'URW Palladio L';-inkscape-font-specification:URWPalladioL-Roma;writing-mode:lr-tb;fill:#000000;fill-opacity:1;fill-rule:nonzero;stroke:none"
       transform="scale(1,-1)"
       x="21.143877"
       y="-86.569481"><tspan
         id="tspan114"
         sodipodi:role="line"
         y="-86.569481"
         x="21.143877 25.627066 30.110252 34.593441">2000</tspan></text>
<path
       inkscape:connector-curvature="0"
       id="path116"
       style="fill:#000000;fill-opacity:1;fill-rule:nonzero;stroke:#000000;stroke-width:0.5;stroke-linecap:butt;stroke-linejoin:round;stroke-miterlimit:10;stroke-dasharray:none;stroke-opacity:1"
       d="m 43.07663,115.72555 4,0" /><text
       id="text118"
       style="font-variant:normal;font-size:8.9663763px;font-family:'URW Palladio L';-inkscape-font-specification:URWPalladioL-Roma;writing-mode:lr-tb;fill:#000000;fill-opacity:1;fill-rule:nonzero;stroke:none"
       transform="scale(1,-1)"
       x="21.143877"
       y="-113.78208"><tspan
         id="tspan120"
         sodipodi:role="line"
         y="-113.78208"
         x="21.143877 25.627066 30.110252 34.593441">3000</tspan></text>
<path
       inkscape:connector-curvature="0"
       id="path122"
       style="fill:#000000;fill-opacity:1;fill-rule:nonzero;stroke:#000000;stroke-width:0.5;stroke-linecap:butt;stroke-linejoin:round;stroke-miterlimit:10;stroke-dasharray:none;stroke-opacity:1"
       d="m 43.07663,142.93815 4,0" /><text
       id="text124"
       style="font-variant:normal;font-size:8.9663763px;font-family:'URW Palladio L';-inkscape-font-specification:URWPalladioL-Roma;writing-mode:lr-tb;fill:#000000;fill-opacity:1;fill-rule:nonzero;stroke:none"
       transform="scale(1,-1)"
       x="21.143877"
       y="-140.99467"><tspan
         id="tspan126"
         sodipodi:role="line"
         y="-140.99467"
         x="21.143877 25.627066 30.110252 34.593441">4000</tspan></text>
<path
       inkscape:connector-curvature="0"
       id="path128"
       style="fill:#000000;fill-opacity:1;fill-rule:nonzero;stroke:#000000;stroke-width:0.5;stroke-linecap:butt;stroke-linejoin:round;stroke-miterlimit:10;stroke-dasharray:none;stroke-opacity:1"
       d="m 43.07663,170.15075 4,0" /><text
       id="text130"
       style="font-variant:normal;font-size:8.9663763px;font-family:'URW Palladio L';-inkscape-font-specification:URWPalladioL-Roma;writing-mode:lr-tb;fill:#000000;fill-opacity:1;fill-rule:nonzero;stroke:none"
       transform="scale(1,-1)"
       x="21.143877"
       y="-168.20728"><tspan
         id="tspan132"
         sodipodi:role="line"
         y="-168.20728"
         x="21.143877 25.627066 30.110252 34.593441">5000</tspan></text>
<text
       id="text134"
       style="font-variant:normal;font-size:8.9663763px;font-family:'URW Palladio L';-inkscape-font-specification:URWPalladioL-Roma;writing-mode:lr-tb;fill:#000000;fill-opacity:1;fill-rule:nonzero;stroke:none"
       transform="matrix(0,1,1,0,0,0)"
       x="67.011856"
       y="13.615411"><tspan
         id="tspan136"
         sodipodi:role="line"
         y="13.615411"
         x="67.011856 70.024559 75.234024 78.210861 83.097534 86.630287 94.538635 99.02182 101.93589 104.53614 109.42281 116.87388 119.85072 124.80016 127.4004 130.31447 134.10725">Information[bits]</tspan></text>
<text
       y="-142.71024"
       x="128.16837"
       id="text138"
       style="font-style:italic;font-variant:normal;font-size:7.97011185px;font-family:'URW Palladio L';-inkscape-font-specification:URWPalladioL-Ital;writing-mode:lr-tb;fill:#000000;fill-opacity:1;fill-rule:nonzero;stroke:none"
       transform="scale(1,-1)"><tspan
         id="tspan140"
         sodipodi:role="line"
         y="-142.71024"
         x="128.16837 133.47646 137.00722 141.43063 145.4157 148.50809 152.9315 155.57758 157.78531 161.31607 165.73947 169.27023 173.47049 179.66327 182.75566 188.94844 192.4792 195.57161 201.54919 203.75691 208.18033 210.38805 213.91881 217.01122 223.20398 226.73474 229.38083 231.58853 235.11932">Conventionalmemoryinformation</tspan></text>
<g
       clip-path="url(#clipPath146)"
       id="g144"><path
         inkscape:connector-curvature="0"
         id="path150"
         style="fill:none;stroke:#3465a4;stroke-width:0.75;stroke-linecap:butt;stroke-linejoin:round;stroke-miterlimit:10;stroke-dasharray:3,3;stroke-dashoffset:0;stroke-opacity:1"
         d="m 43.07663,34.087755 2.33539,0 2.594878,0 2.594879,0 2.594878,0 2.594879,0 2.594878,0 2.594878,0 2.594879,0 2.594878,0.0076 2.594878,0.01663 2.594879,0.03326 2.594878,0.04384 2.594878,0.06803 2.594879,0.133039 2.594878,0.148158 2.594878,0.244913 2.594879,0.29178 2.594878,0.368881 2.594878,0.473197 2.594879,0.59263 2.594878,0.745323 2.594878,0.845102 2.594875,1.074898 2.59488,1.05978 2.59488,1.115716 2.59488,1.333417 2.59488,1.233638 2.59488,1.384819 2.59487,1.325858 2.59488,1.532977 2.59488,1.483086 2.59488,1.532977 2.59488,1.907905 2.59488,1.699276 2.59487,1.682645 2.59488,1.96989 2.59488,2.269229 2.59488,1.850456 2.59488,1.637292 2.59488,1.666015 2.59487,1.975937 2.59488,1.622174 2.59488,2.208756 2.59488,2.579149 2.59488,2.022803 2.59488,2.311559 2.59487,2.062111 2.59488,1.85348 2.59488,2.093858 2.59488,1.992567 2.59488,1.797543 2.59488,1.839874 2.59487,2.009197 2.59488,1.66904 2.59488,1.888252 2.59488,2.033385 2.59488,1.684158 2.59488,1.641825 2.59487,1.68567 2.59488,1.8943 2.59488,1.65544 2.59488,1.67206 2.59488,2.08932 2.59488,1.83685 2.59487,1.85348 2.59488,2.07421 2.59488,1.47553 2.59488,1.65543 2.59488,1.80208 2.59488,1.35004 2.59487,1.60706 2.59488,1.70079 2.59488,1.73102 2.59488,1.27143 2.59488,1.45134 2.59488,1.46192 2.59487,1.9578 2.59488,1.57984 2.59488,1.5874 2.59488,1.59194 2.59488,1.3954 2.59488,1.40296 2.59487,1.5103 2.59488,1.50425 2.59488,1.30772 2.59488,1.30772 2.59488,1.41052 2.59488,1.41656 2.59487,1.31528 2.59488,1.64787 2.59488,1.54507 2.59488,1.54356 2.59488,1.32435 2.59488,1.43168 2.59487,1.32284 2.59488,1.32132 2.59488,1.31981 2.59488,1.3183 2.59488,1.32435 2.59488,1.32132" /></g><g
       clip-path="url(#clipPath156)"
       id="g154"><path
         inkscape:connector-curvature="0"
         id="path160"
         style="fill:none;stroke:#3465a4;stroke-width:0.5;stroke-linecap:butt;stroke-linejoin:round;stroke-miterlimit:10;stroke-dasharray:1.5,1.5;stroke-dashoffset:0;stroke-opacity:1"
         d="m 43.07663,34.220794 2.33539,1.197355 2.594878,1.330393 2.594879,1.330394 2.594878,1.330394 2.594879,1.330393 2.594878,1.330394 2.594878,1.330394 2.594879,1.330394 2.594878,1.330393 2.594878,1.330394 2.594879,1.330394 2.594878,1.330393 2.594878,1.330394 2.594879,1.330394 2.594878,1.330393 2.594878,1.330394 2.594879,1.330394 2.594878,1.330394 2.594878,1.330393 2.594879,1.330394 2.594878,1.330394 2.594878,1.330393 2.594875,1.330394 2.59488,1.330394 2.59488,1.330393 2.59488,1.330394 2.59488,1.330394 2.59488,1.330394 2.59487,1.330393 2.59488,1.330394 2.59488,1.330394 2.59488,1.330393 2.59488,1.330394 2.59488,1.330394 2.59487,1.330393 2.59488,1.330394 2.59488,1.330394 2.59488,1.330394 2.59488,1.330393 2.59488,1.330394 2.59487,1.330394 2.59488,1.330393 2.59488,1.330394 2.59488,1.330394 2.59488,1.330393 2.59488,1.330394 2.59487,1.330394 2.59488,1.330394 2.59488,1.330393 2.59488,1.330394 2.59488,1.33039 2.59488,1.3304 2.59487,1.33039 2.59488,1.33039 2.59488,1.3304 2.59488,1.33039 2.59488,1.3304 2.59488,1.33039 2.59487,1.33039 2.59488,1.3304 2.59488,1.33039 2.59488,1.33039 2.59488,1.3304 2.59488,1.33039 2.59487,1.3304 2.59488,1.33039 2.59488,1.33039 2.59488,1.3304 2.59488,1.33039 2.59488,1.33039 2.59487,1.3304 2.59488,1.33039 2.59488,1.3304 2.59488,1.33039 2.59488,1.33039 2.59488,1.3304 2.59487,1.33039 2.59488,1.33039 2.59488,1.3304 2.59488,1.33039 2.59488,1.33039 2.59488,1.3304 2.59487,1.33039 2.59488,1.3304 2.59488,1.33039 2.59488,1.33039 2.59488,1.3304 2.59488,1.33039 2.59487,1.33039 2.59488,1.3304 2.59488,1.33039 2.59488,1.3304 2.59488,1.33039 2.59488,1.33039 2.59487,1.3304 2.59488,1.33039 2.59488,1.33039 2.59488,1.3304 2.59488,1.33039 2.59488,1.33039" /></g><path
       inkscape:connector-curvature="0"
       id="path164"
       style="fill:none;stroke:#000000;stroke-width:0.25;stroke-linecap:square;stroke-linejoin:miter;stroke-miterlimit:10;stroke-dasharray:none;stroke-opacity:1"
       d="m 43.07663,170.15075 259.22835,0" /><path
       inkscape:connector-curvature="0"
       id="path166"
       style="fill:none;stroke:#3465a4;stroke-width:0.25;stroke-linecap:square;stroke-linejoin:miter;stroke-miterlimit:10;stroke-dasharray:none;stroke-opacity:1"
       d="m 302.30498,34.087755 0,136.062995" /><path
       inkscape:connector-curvature="0"
       id="path168"
       style="fill:none;stroke:#000000;stroke-width:0.25;stroke-linecap:square;stroke-linejoin:miter;stroke-miterlimit:10;stroke-dasharray:none;stroke-opacity:1"
       d="m 43.07663,34.087755 259.22835,0" /><path
       inkscape:connector-curvature="0"
       id="path170"
       style="fill:none;stroke:#000000;stroke-width:0.25;stroke-linecap:square;stroke-linejoin:miter;stroke-miterlimit:10;stroke-dasharray:none;stroke-opacity:1"
       d="m 43.07663,34.087755 0,136.062995" /><path
       inkscape:connector-curvature="0"
       id="path172"
       style="fill:#000000;fill-opacity:1;fill-rule:nonzero;stroke:#3465a4;stroke-width:0.5;stroke-linecap:butt;stroke-linejoin:round;stroke-miterlimit:10;stroke-dasharray:none;stroke-opacity:1"
       d="m 302.30498,34.087755 -4,0" /><text
       id="text174"
       style="font-variant:normal;font-size:8.9663763px;font-family:'URW Palladio L';-inkscape-font-specification:URWPalladioL-Roma;writing-mode:lr-tb;fill:#3465a4;fill-opacity:1;fill-rule:nonzero;stroke:none"
       transform="scale(1,-1)"
       x="306.30499"
       y="-32.144283"><tspan
         id="tspan176"
         y="-32.144283"
         x="306.30499">0</tspan></text>
<path
       inkscape:connector-curvature="0"
       id="path178"
       style="fill:#000000;fill-opacity:1;fill-rule:nonzero;stroke:#3465a4;stroke-width:0.5;stroke-linecap:butt;stroke-linejoin:round;stroke-miterlimit:10;stroke-dasharray:none;stroke-opacity:1"
       d="m 302.30498,49.205865 -4,0" /><text
       id="text180"
       style="font-variant:normal;font-size:8.9663763px;font-family:'URW Palladio L';-inkscape-font-specification:URWPalladioL-Roma;writing-mode:lr-tb;fill:#3465a4;fill-opacity:1;fill-rule:nonzero;stroke:none"
       transform="scale(1,-1)"
       x="306.30499"
       y="-47.262394"><tspan
         id="tspan182"
         sodipodi:role="line"
         y="-47.262394"
         x="306.30499 310.78818 315.27136 319.75455 324.23773">10000</tspan></text>
<path
       inkscape:connector-curvature="0"
       id="path184"
       style="fill:#000000;fill-opacity:1;fill-rule:nonzero;stroke:#3465a4;stroke-width:0.5;stroke-linecap:butt;stroke-linejoin:round;stroke-miterlimit:10;stroke-dasharray:none;stroke-opacity:1"
       d="m 302.30498,64.323975 -4,0" /><text
       id="text186"
       style="font-variant:normal;font-size:8.9663763px;font-family:'URW Palladio L';-inkscape-font-specification:URWPalladioL-Roma;writing-mode:lr-tb;fill:#3465a4;fill-opacity:1;fill-rule:nonzero;stroke:none"
       transform="scale(1,-1)"
       x="306.30499"
       y="-62.380505"><tspan
         id="tspan188"
         sodipodi:role="line"
         y="-62.380505"
         x="306.30499 310.78818 315.27136 319.75455 324.23773">20000</tspan></text>
<path
       inkscape:connector-curvature="0"
       id="path190"
       style="fill:#000000;fill-opacity:1;fill-rule:nonzero;stroke:#3465a4;stroke-width:0.5;stroke-linecap:butt;stroke-linejoin:round;stroke-miterlimit:10;stroke-dasharray:none;stroke-opacity:1"
       d="m 302.30498,79.442086 -4,0" /><text
       id="text192"
       style="font-variant:normal;font-size:8.9663763px;font-family:'URW Palladio L';-inkscape-font-specification:URWPalladioL-Roma;writing-mode:lr-tb;fill:#3465a4;fill-opacity:1;fill-rule:nonzero;stroke:none"
       transform="scale(1,-1)"
       x="306.30499"
       y="-77.498611"><tspan
         id="tspan194"
         sodipodi:role="line"
         y="-77.498611"
         x="306.30499 310.78818 315.27136 319.75455 324.23773">30000</tspan></text>
<path
       inkscape:connector-curvature="0"
       id="path196"
       style="fill:#000000;fill-opacity:1;fill-rule:nonzero;stroke:#3465a4;stroke-width:0.5;stroke-linecap:butt;stroke-linejoin:round;stroke-miterlimit:10;stroke-dasharray:none;stroke-opacity:1"
       d="m 302.30498,94.560196 -4,0" /><text
       id="text198"
       style="font-variant:normal;font-size:8.9663763px;font-family:'URW Palladio L';-inkscape-font-specification:URWPalladioL-Roma;writing-mode:lr-tb;fill:#3465a4;fill-opacity:1;fill-rule:nonzero;stroke:none"
       transform="scale(1,-1)"
       x="306.30499"
       y="-92.616722"><tspan
         id="tspan200"
         sodipodi:role="line"
         y="-92.616722"
         x="306.30499 310.78818 315.27136 319.75455 324.23773">40000</tspan></text>
<path
       inkscape:connector-curvature="0"
       id="path202"
       style="fill:#000000;fill-opacity:1;fill-rule:nonzero;stroke:#3465a4;stroke-width:0.5;stroke-linecap:butt;stroke-linejoin:round;stroke-miterlimit:10;stroke-dasharray:none;stroke-opacity:1"
       d="m 302.30498,109.67831 -4,0" /><text
       id="text204"
       style="font-variant:normal;font-size:8.9663763px;font-family:'URW Palladio L';-inkscape-font-specification:URWPalladioL-Roma;writing-mode:lr-tb;fill:#3465a4;fill-opacity:1;fill-rule:nonzero;stroke:none"
       transform="scale(1,-1)"
       x="306.30499"
       y="-107.73483"><tspan
         id="tspan206"
         sodipodi:role="line"
         y="-107.73483"
         x="306.30499 310.78818 315.27136 319.75455 324.23773">50000</tspan></text>
<path
       inkscape:connector-curvature="0"
       id="path208"
       style="fill:#000000;fill-opacity:1;fill-rule:nonzero;stroke:#3465a4;stroke-width:0.5;stroke-linecap:butt;stroke-linejoin:round;stroke-miterlimit:10;stroke-dasharray:none;stroke-opacity:1"
       d="m 302.30498,124.79642 -4,0" /><text
       id="text210"
       style="font-variant:normal;font-size:8.9663763px;font-family:'URW Palladio L';-inkscape-font-specification:URWPalladioL-Roma;writing-mode:lr-tb;fill:#3465a4;fill-opacity:1;fill-rule:nonzero;stroke:none"
       transform="scale(1,-1)"
       x="306.30499"
       y="-122.85294"><tspan
         id="tspan212"
         sodipodi:role="line"
         y="-122.85294"
         x="306.30499 310.78818 315.27136 319.75455 324.23773">60000</tspan></text>
<path
       inkscape:connector-curvature="0"
       id="path214"
       style="fill:#000000;fill-opacity:1;fill-rule:nonzero;stroke:#3465a4;stroke-width:0.5;stroke-linecap:butt;stroke-linejoin:round;stroke-miterlimit:10;stroke-dasharray:none;stroke-opacity:1"
       d="m 302.30498,139.91453 -4,0" /><text
       id="text216"
       style="font-variant:normal;font-size:8.9663763px;font-family:'URW Palladio L';-inkscape-font-specification:URWPalladioL-Roma;writing-mode:lr-tb;fill:#3465a4;fill-opacity:1;fill-rule:nonzero;stroke:none"
       transform="scale(1,-1)"
       x="306.30499"
       y="-137.97105"><tspan
         id="tspan218"
         sodipodi:role="line"
         y="-137.97105"
         x="306.30499 310.78818 315.27136 319.75455 324.23773">70000</tspan></text>
<path
       inkscape:connector-curvature="0"
       id="path220"
       style="fill:#000000;fill-opacity:1;fill-rule:nonzero;stroke:#3465a4;stroke-width:0.5;stroke-linecap:butt;stroke-linejoin:round;stroke-miterlimit:10;stroke-dasharray:none;stroke-opacity:1"
       d="m 302.30498,155.03264 -4,0" /><text
       id="text222"
       style="font-variant:normal;font-size:8.9663763px;font-family:'URW Palladio L';-inkscape-font-specification:URWPalladioL-Roma;writing-mode:lr-tb;fill:#3465a4;fill-opacity:1;fill-rule:nonzero;stroke:none"
       transform="scale(1,-1)"
       x="306.30499"
       y="-153.08916"><tspan
         id="tspan224"
         sodipodi:role="line"
         y="-153.08916"
         x="306.30499 310.78818 315.27136 319.75455 324.23773">80000</tspan></text>
<path
       inkscape:connector-curvature="0"
       id="path226"
       style="fill:#000000;fill-opacity:1;fill-rule:nonzero;stroke:#3465a4;stroke-width:0.5;stroke-linecap:butt;stroke-linejoin:round;stroke-miterlimit:10;stroke-dasharray:none;stroke-opacity:1"
       d="m 302.30498,170.15075 -4,0" /><text
       id="text228"
       style="font-variant:normal;font-size:8.9663763px;font-family:'URW Palladio L';-inkscape-font-specification:URWPalladioL-Roma;writing-mode:lr-tb;fill:#3465a4;fill-opacity:1;fill-rule:nonzero;stroke:none"
       transform="scale(1,-1)"
       x="306.30499"
       y="-168.20728"><tspan
         id="tspan230"
         sodipodi:role="line"
         y="-168.20728"
         x="306.30499 310.78818 315.27136 319.75455 324.23773">90000</tspan></text>
<text
       id="text232"
       style="font-variant:normal;font-size:8.9663763px;font-family:'URW Palladio L';-inkscape-font-specification:URWPalladioL-Roma;writing-mode:lr-tb;fill:#3465a4;fill-opacity:1;fill-rule:nonzero;stroke:none"
       transform="matrix(0,1,1,0,0,0)"
       x="52.051769"
       y="340.13632"><tspan
         id="tspan234"
         sodipodi:role="line"
         y="340.13632"
         x="52.051769 56.714344 61.601017 64.515091 68.998276 73.840118 76.816956 81.300148 83.900398 87.693176 94.220695 99.600525 104.4872 108.27998 110.88023 113.7943 116.39455 121.45158 125.73751 131.77188 134.74872 139.69815 142.2984 145.21248 149.00525">Totalfalsepositives[bits]</tspan></text>
<text
       y="-72.850998"
       x="201.08395"
       id="text236"
       style="font-style:italic;font-variant:normal;font-size:7.97011185px;font-family:'URW Palladio L';-inkscape-font-specification:URWPalladioL-Ital;writing-mode:lr-tb;fill:#000000;fill-opacity:1;fill-rule:nonzero;stroke:none"
       transform="scale(1,-1)"><tspan
         id="tspan238"
         sodipodi:role="line"
         y="-72.850998"
         x="201.08395 208.59976 212.13052 216.11559 218.3233 224.51608 228.9395 237.1248 239.33252 242.86328 245.071 248.16339 253.24832 257.2334 260.76413 263.85654 266.06424 268.71033 270.91803 274.90311 277.99551">Maximumfalsepositives</tspan></text>
<path
       style="color:#000000;display:inline;overflow:visible;visibility:visible;fill:none;fill-rule:evenodd;stroke:#000000;stroke-width:0.40000001;stroke-linecap:butt;stroke-linejoin:miter;stroke-miterlimit:4;stroke-dasharray:none;stroke-dashoffset:0;stroke-opacity:1;marker:none;marker-end:url(#DotM);enable-background:accumulate"
       d="m 199.34157,76.84369 -32.77158,17.176818"
       id="path4464"
       inkscape:path-effect="#path-effect4466"
       inkscape:original-d="m 199.34157,76.84369 -32.77158,17.176818"
       inkscape:connector-curvature="0"
       sodipodi:nodetypes="cc" /><path
       style="color:#000000;display:inline;overflow:visible;visibility:visible;fill:none;fill-rule:evenodd;stroke:#000000;stroke-width:0.40000001;stroke-linecap:butt;stroke-linejoin:miter;stroke-miterlimit:4;stroke-dasharray:none;stroke-dashoffset:0;stroke-opacity:1;marker:none;marker-end:url(#DotM-7);enable-background:accumulate"
       d="m 145.59205,139.36124 -6.24249,-5.51674"
       id="path4464-7"
       inkscape:path-effect="#path-effect4466-1"
       inkscape:original-d="m 145.59205,139.36124 -6.24249,-5.51674"
       inkscape:connector-curvature="0"
       sodipodi:nodetypes="cc" /><path
       style="color:#000000;display:inline;overflow:visible;visibility:visible;fill:none;fill-rule:evenodd;stroke:#000000;stroke-width:0.40000001;stroke-linecap:butt;stroke-linejoin:miter;stroke-miterlimit:4;stroke-dasharray:none;stroke-dashoffset:0;stroke-opacity:1;marker:none;enable-background:accumulate"
       d="m 67.775934,34.120242 0,135.841738"
       id="path4259"
       inkscape:path-effect="#path-effect4261"
       inkscape:original-d="m 67.775934,34.120242 0,135.841738"
       inkscape:connector-curvature="0" /><text
       y="-104.66665"
       x="75.184387"
       id="text138-0"
       style="font-style:italic;font-variant:normal;font-size:7.97011185px;font-family:'URW Palladio L';-inkscape-font-specification:URWPalladioL-Ital;writing-mode:lr-tb;fill:#000000;fill-opacity:1;fill-rule:nonzero;stroke:none"
       transform="scale(1,-1)"><tspan
         sodipodi:role="line"
         x="75.184387"
         id="tspan4605"
         y="-104.66665">Conventional</tspan><tspan
         sodipodi:role="line"
         x="75.184387"
         y="-94.70401"
         id="tspan4609">memory sample</tspan><tspan
         sodipodi:role="line"
         x="75.184387"
         y="-84.741371"
         id="tspan4611">count</tspan></text>
<path
       style="color:#000000;display:inline;overflow:visible;visibility:visible;fill:none;fill-rule:evenodd;stroke:#000000;stroke-width:0.40000001;stroke-linecap:butt;stroke-linejoin:miter;stroke-miterlimit:4;stroke-dasharray:none;stroke-dashoffset:0;stroke-opacity:1;marker:none;marker-end:url(#marker4337);enable-background:accumulate"
       d="m 76.946316,111.70556 -6.881746,6.78893"
       id="path4464-7-4"
       inkscape:path-effect="#path-effect4466-1-9"
       inkscape:original-d="m 76.946316,111.70556 -6.881746,6.78893"
       inkscape:connector-curvature="0"
       sodipodi:nodetypes="cc" /></g></svg>