<?xml version="1.0" encoding="UTF-8" standalone="no"?>
<!-- Created with Inkscape (http://www.inkscape.org/) -->

<svg
   xmlns:dc="http://purl.org/dc/elements/1.1/"
   xmlns:cc="http://creativecommons.org/ns#"
   xmlns:rdf="http://www.w3.org/1999/02/22-rdf-syntax-ns#"
   xmlns:svg="http://www.w3.org/2000/svg"
   xmlns="http://www.w3.org/2000/svg"
   xmlns:sodipodi="http://sodipodi.sourceforge.net/DTD/sodipodi-0.dtd"
   xmlns:inkscape="http://www.inkscape.org/namespaces/inkscape"
   id="svg2"
   version="1.1"
   inkscape:version="0.91 r13725"
   xml:space="preserve"
   width="199.52803"
   height="208.91422"
   viewBox="0 0 199.52803 208.91422"
   sodipodi:docname="sketch_fns_over_noise_corr.svg"><metadata
     id="metadata8"><rdf:RDF><cc:Work
         rdf:about=""><dc:format>image/svg+xml</dc:format><dc:type
           rdf:resource="http://purl.org/dc/dcmitype/StillImage" /><dc:title></dc:title></cc:Work></rdf:RDF></metadata><defs
     id="defs6"><clipPath
       clipPathUnits="userSpaceOnUse"
       id="clipPath20"><path
         d="m 29.627065,34.087755 131.811025,0 0,136.062995 -131.811025,0 0,-136.062995 z"
         id="path22"
         inkscape:connector-curvature="0" /></clipPath><clipPath
       clipPathUnits="userSpaceOnUse"
       id="clipPath30"><path
         d="m 29.627065,34.087755 131.811025,0 0,136.062995 -131.811025,0 0,-136.062995 z"
         id="path32"
         inkscape:connector-curvature="0" /></clipPath><clipPath
       clipPathUnits="userSpaceOnUse"
       id="clipPath40"><path
         d="m 29.627065,34.087755 131.811025,0 0,136.062995 -131.811025,0 0,-136.062995 z"
         id="path42"
         inkscape:connector-curvature="0" /></clipPath><clipPath
       clipPathUnits="userSpaceOnUse"
       id="clipPath50"><path
         d="m 29.627065,34.087755 131.811025,0 0,136.062995 -131.811025,0 0,-136.062995 z"
         id="path52"
         inkscape:connector-curvature="0" /></clipPath></defs><sodipodi:namedview
     pagecolor="#ffffff"
     bordercolor="#666666"
     borderopacity="1"
     objecttolerance="10"
     gridtolerance="10"
     guidetolerance="10"
     inkscape:pageopacity="0"
     inkscape:pageshadow="2"
     inkscape:window-width="2560"
     inkscape:window-height="1376"
     id="namedview4"
     showgrid="false"
     fit-margin-top="0"
     fit-margin-left="0"
     fit-margin-right="0"
     fit-margin-bottom="0"
     inkscape:zoom="4.1534969"
     inkscape:cx="48.670107"
     inkscape:cy="152.44575"
     inkscape:window-x="0"
     inkscape:window-y="27"
     inkscape:window-maximized="1"
     inkscape:current-layer="g10" /><g
     id="g10"
     inkscape:groupmode="layer"
     inkscape:label="sketch_fns_over_noise"
     transform="matrix(1.25,0,0,-1.25,-8.8822773,217.98139)"><path
       d="m 29.627065,34.087755 131.811025,0 0,136.062995 -131.811025,0 0,-136.062995 z"
       style="fill:#ffffff;fill-opacity:1;fill-rule:nonzero;stroke:none"
       id="path14"
       inkscape:connector-curvature="0" /><g
       id="g16"><g
         id="g18"
         clip-path="url(#clipPath20)"><path
           d="m 29.627065,34.087755 1.331425,0 1.331424,0 1.331425,0 1.331424,0 1.331425,0 1.331424,0 1.331425,0 1.331424,0 1.331425,0 1.331424,0 1.331425,0 1.331424,0 1.331425,0 1.331424,0 1.331425,0 1.331424,0 1.331425,0 1.331424,0 1.331425,0 1.331424,0 1.331425,0 1.331424,0 1.331425,0 1.331424,0 1.331425,0 1.331424,0 1.331424,0 1.331425,0 1.331424,0 1.331425,0 1.331424,0 1.331425,0 1.331424,0 1.331425,0 1.331424,0 1.331425,0 1.331424,0 1.331425,0 1.331424,0 1.331425,0 1.331424,0 1.331425,0 1.331424,0 1.331425,0 1.331424,0 1.331425,0 1.331424,0 1.331425,0 1.331424,0 1.331425,0 1.331424,0 1.331425,0 1.331421,0 1.33143,0 1.33142,0 1.33143,0 1.33142,0 1.33143,0 1.33142,0 1.33142,0 1.33143,0 1.33142,0 1.33143,0 1.33142,0 1.33143,0 1.33142,0 1.33143,0 1.33142,0 1.33142,0 1.33143,0 1.33142,0 1.33143,0 1.33142,0 1.33143,0 1.33142,0 1.33143,0 1.33142,0 1.33143,0 1.33142,0 1.33142,0 1.33143,0 1.33142,0 1.33143,0 1.33142,0 1.33143,0 1.33142,0 1.33143,0 1.33142,0 1.33142,0 1.33143,0 1.33142,0 1.33143,0 1.33142,0 1.33143,0 1.33142,0 1.33143,0 1.33142,0 1.33142,0 1.33143,0"
           style="fill:none;stroke:#000000;stroke-width:0.75;stroke-linecap:square;stroke-linejoin:round;stroke-miterlimit:10;stroke-dasharray:none;stroke-opacity:1"
           id="path24"
           inkscape:connector-curvature="0" /></g></g><g
       id="g26"><g
         id="g28"
         clip-path="url(#clipPath30)"><path
           d="m 29.627065,34.087755 1.331425,38.465482 1.331424,18.688885 1.331425,24.325218 1.331424,14.43691 1.331425,12.36038 1.331424,2.47207 1.331425,5.63633 1.331424,6.82293 1.331425,3.95532 1.331424,0.88994 1.331425,3.55979 1.331424,0.98883 1.331425,0.5933 1.331424,0.79106 1.331425,0.29665 1.331424,0.88995 1.331425,0 1.331424,0.39553 1.331425,0.39553 1.331424,-0.19776 1.331425,0.0989 1.331424,0.0989 1.331425,0.0989 1.331424,0 1.331425,-0.0989 1.331424,0.0989 1.331424,0 1.331425,0 1.331424,0 1.331425,0 1.331424,0 1.331425,0 1.331424,0 1.331425,0 1.331424,0 1.331425,0 1.331424,0 1.331425,0 1.331424,0 1.331425,0 1.331424,0 1.331425,0 1.331424,0 1.331425,0 1.331424,0 1.331425,0 1.331424,0 1.331425,0 1.331424,0 1.331425,0 1.331424,0 1.331425,0 1.331421,0 1.33143,0 1.33142,0 1.33143,0 1.33142,0 1.33143,0 1.33142,0 1.33142,0 1.33143,0 1.33142,0 1.33143,0 1.33142,0 1.33143,0 1.33142,0 1.33143,0 1.33142,0 1.33142,0 1.33143,0 1.33142,0 1.33143,0 1.33142,0 1.33143,0 1.33142,0 1.33143,0 1.33142,0 1.33143,0 1.33142,0 1.33142,0 1.33143,0 1.33142,0 1.33143,0 1.33142,0 1.33143,0 1.33142,0 1.33143,0 1.33142,0 1.33142,0 1.33143,0 1.33142,0 1.33143,0 1.33142,0 1.33143,0 1.33142,0 1.33143,0 1.33142,0 1.33142,0 1.33143,0"
           style="fill:none;stroke:#000000;stroke-width:0.75040002;stroke-linecap:butt;stroke-linejoin:round;stroke-miterlimit:10;stroke-dasharray:none;stroke-dashoffset:0;stroke-opacity:1"
           id="path34"
           inkscape:connector-curvature="0" /></g></g><g
       id="g36"><g
         id="g38"
         clip-path="url(#clipPath40)"><path
           d="m 29.627065,34.087755 1.331425,6.328511 1.331424,14.239151 1.331425,15.821278 1.331424,7.119575 1.331425,3.164255 1.331424,2.373192 1.331425,12.657023 1.331424,0 1.331425,10.28383 1.331424,5.53745 1.331425,0.79106 1.331424,18.98554 1.331425,-4.74639 1.331424,2.37319 1.331425,13.44809 1.331424,-5.53745 1.331425,3.95532 1.331424,-0.79106 1.331425,8.7017 1.331424,1.58213 1.331425,-1.58213 1.331424,1.58213 1.331425,3.95532 1.331424,5.53745 1.331425,-0.79107 1.331424,-9.49276 1.331424,13.44808 1.331425,-7.11957 1.331424,5.53744 1.331425,-0.79106 1.331424,3.16426 1.331425,3.16425 1.331424,-1.58213 1.331425,-1.58212 1.331424,1.58212 1.331425,-2.37319 1.331424,5.53745 1.331425,-0.79106 1.331424,-1.58213 1.331425,0.79106 1.331424,2.37319 1.331425,0 1.331424,-0.79106 1.331425,0.79106 1.331424,-0.79106 1.331425,0.79106 1.331424,0 1.331425,0.79107 1.331424,0 1.331425,-0.79107 1.331424,0.79107 1.331425,0 1.331421,0 1.33143,0 1.33142,0 1.33143,-0.79107 1.33142,0.79107 1.33143,0 1.33142,0 1.33142,0 1.33143,0 1.33142,0 1.33143,-0.79107 1.33142,0.79107 1.33143,0 1.33142,0 1.33143,0 1.33142,0 1.33142,0 1.33143,0 1.33142,0 1.33143,0 1.33142,0 1.33143,0 1.33142,0 1.33143,0 1.33142,0 1.33143,0 1.33142,0 1.33142,0 1.33143,0 1.33142,0 1.33143,0 1.33142,0 1.33143,0 1.33142,0 1.33143,0 1.33142,0 1.33142,0 1.33143,0 1.33142,0 1.33143,0 1.33142,0 1.33143,0 1.33142,0 1.33143,0 1.33142,0 1.33142,0 1.33143,0"
           style="fill:none;stroke:#3465a4;stroke-width:0.75;stroke-linecap:square;stroke-linejoin:round;stroke-miterlimit:10;stroke-dasharray:2.25,2.25;stroke-opacity:1;stroke-dashoffset:0"
           id="path44"
           inkscape:connector-curvature="0" /></g></g><g
       id="g46"><g
         id="g48"
         clip-path="url(#clipPath50)"><path
           d="m 29.627065,34.087755 1.331425,0 1.331424,0 1.331425,0 1.331424,0 1.331425,0 1.331424,0 1.331425,0 1.331424,0 1.331425,0 1.331424,0 1.331425,0 1.331424,0 1.331425,0 1.331424,0 1.331425,0 1.331424,0 1.331425,0 1.331424,0 1.331425,0 1.331424,0 1.331425,0 1.331424,0 1.331425,0 1.331424,0 1.331425,0 1.331424,0 1.331424,0 1.331425,0 1.331424,0 1.331425,0 1.331424,0 1.331425,0 1.331424,0 1.331425,0 1.331424,0 1.331425,0 1.331424,0 1.331425,0 1.331424,0 1.331425,0 1.331424,0 1.331425,0 1.331424,0 1.331425,0 1.331424,0 1.331425,0 1.331424,0 1.331425,0 1.331424,0 1.331425,0 1.331424,0 1.331425,0 1.331421,0 1.33143,0 1.33142,0 1.33143,0 1.33142,0 1.33143,0 1.33142,0 1.33142,0 1.33143,0 1.33142,0 1.33143,0 1.33142,0 1.33143,0 1.33142,0 1.33143,0 1.33142,0 1.33142,0 1.33143,0 1.33142,0 1.33143,0 1.33142,0 1.33143,0 1.33142,0 1.33143,0 1.33142,0 1.33143,0 1.33142,0 1.33142,0 1.33143,0 1.33142,0 1.33143,0 1.33142,0 1.33143,0 1.33142,0 1.33143,0 1.33142,0 1.33142,0 1.33143,0 1.33142,0 1.33143,0 1.33142,0 1.33143,0 1.33142,0 1.33143,0 1.33142,0 1.33142,0 1.33143,0"
           style="fill:none;stroke:#3465a4;stroke-width:0.75;stroke-linecap:butt;stroke-linejoin:round;stroke-miterlimit:10;stroke-dasharray:none;stroke-dashoffset:0;stroke-opacity:1"
           id="path54"
           inkscape:connector-curvature="0" /></g></g><g
       id="g56"><path
         d="m 29.627065,170.15075 131.811025,0"
         style="fill:none;stroke:#000000;stroke-width:0.25;stroke-linecap:square;stroke-linejoin:miter;stroke-miterlimit:10;stroke-dasharray:none;stroke-opacity:1"
         id="path58"
         inkscape:connector-curvature="0" /><path
         d="m 161.43809,34.087755 0,136.062995"
         style="fill:none;stroke:#000000;stroke-width:0.25;stroke-linecap:square;stroke-linejoin:miter;stroke-miterlimit:10;stroke-dasharray:none;stroke-opacity:1"
         id="path60"
         inkscape:connector-curvature="0" /><path
         d="m 29.627065,34.087755 131.811025,0"
         style="fill:none;stroke:#000000;stroke-width:0.25;stroke-linecap:square;stroke-linejoin:miter;stroke-miterlimit:10;stroke-dasharray:none;stroke-opacity:1"
         id="path62"
         inkscape:connector-curvature="0" /><path
         d="m 29.627065,34.087755 0,136.062995"
         style="fill:none;stroke:#000000;stroke-width:0.25;stroke-linecap:square;stroke-linejoin:miter;stroke-miterlimit:10;stroke-dasharray:none;stroke-opacity:1"
         id="path64"
         inkscape:connector-curvature="0" /><path
         d="m 29.627065,34.087755 0,4"
         style="fill:#000000;fill-opacity:1;fill-rule:nonzero;stroke:#000000;stroke-width:0.5;stroke-linecap:butt;stroke-linejoin:round;stroke-miterlimit:10;stroke-dasharray:none;stroke-opacity:1"
         id="path66"
         inkscape:connector-curvature="0" /><path
         d="m 29.627065,170.15075 0,-4"
         style="fill:#000000;fill-opacity:1;fill-rule:nonzero;stroke:#000000;stroke-width:0.5;stroke-linecap:butt;stroke-linejoin:round;stroke-miterlimit:10;stroke-dasharray:none;stroke-opacity:1"
         id="path68"
         inkscape:connector-curvature="0" /><text
         transform="matrix(1,0,0,-1,24.02308,23.672344)"
         style="font-variant:normal;font-size:8.9663763px;font-family:'URW Palladio L';-inkscape-font-specification:URWPalladioL-Roma;writing-mode:lr-tb;fill:#000000;fill-opacity:1;fill-rule:nonzero;stroke:none"
         id="text70"><tspan
           x="0 4.4831882 6.724782"
           y="0"
           sodipodi:role="line"
           id="tspan72">0.0</tspan></text>
<path
         d="m 55.98927,34.087755 0,4"
         style="fill:#000000;fill-opacity:1;fill-rule:nonzero;stroke:#000000;stroke-width:0.5;stroke-linecap:butt;stroke-linejoin:round;stroke-miterlimit:10;stroke-dasharray:none;stroke-opacity:1"
         id="path74"
         inkscape:connector-curvature="0" /><path
         d="m 55.98927,170.15075 0,-4"
         style="fill:#000000;fill-opacity:1;fill-rule:nonzero;stroke:#000000;stroke-width:0.5;stroke-linecap:butt;stroke-linejoin:round;stroke-miterlimit:10;stroke-dasharray:none;stroke-opacity:1"
         id="path76"
         inkscape:connector-curvature="0" /><text
         transform="matrix(1,0,0,-1,50.385285,23.672344)"
         style="font-variant:normal;font-size:8.9663763px;font-family:'URW Palladio L';-inkscape-font-specification:URWPalladioL-Roma;writing-mode:lr-tb;fill:#000000;fill-opacity:1;fill-rule:nonzero;stroke:none"
         id="text78"><tspan
           x="0 4.4831882 6.724782"
           y="0"
           sodipodi:role="line"
           id="tspan80">0.2</tspan></text>
<path
         d="m 82.351475,34.087755 0,4"
         style="fill:#000000;fill-opacity:1;fill-rule:nonzero;stroke:#000000;stroke-width:0.5;stroke-linecap:butt;stroke-linejoin:round;stroke-miterlimit:10;stroke-dasharray:none;stroke-opacity:1"
         id="path82"
         inkscape:connector-curvature="0" /><path
         d="m 82.351475,170.15075 0,-4"
         style="fill:#000000;fill-opacity:1;fill-rule:nonzero;stroke:#000000;stroke-width:0.5;stroke-linecap:butt;stroke-linejoin:round;stroke-miterlimit:10;stroke-dasharray:none;stroke-opacity:1"
         id="path84"
         inkscape:connector-curvature="0" /><text
         transform="matrix(1,0,0,-1,76.74749,23.672344)"
         style="font-variant:normal;font-size:8.9663763px;font-family:'URW Palladio L';-inkscape-font-specification:URWPalladioL-Roma;writing-mode:lr-tb;fill:#000000;fill-opacity:1;fill-rule:nonzero;stroke:none"
         id="text86"><tspan
           x="0 4.4831882 6.724782"
           y="0"
           sodipodi:role="line"
           id="tspan88">0.4</tspan></text>
<path
         d="m 108.71368,34.087755 0,4"
         style="fill:#000000;fill-opacity:1;fill-rule:nonzero;stroke:#000000;stroke-width:0.5;stroke-linecap:butt;stroke-linejoin:round;stroke-miterlimit:10;stroke-dasharray:none;stroke-opacity:1"
         id="path90"
         inkscape:connector-curvature="0" /><path
         d="m 108.71368,170.15075 0,-4"
         style="fill:#000000;fill-opacity:1;fill-rule:nonzero;stroke:#000000;stroke-width:0.5;stroke-linecap:butt;stroke-linejoin:round;stroke-miterlimit:10;stroke-dasharray:none;stroke-opacity:1"
         id="path92"
         inkscape:connector-curvature="0" /><text
         transform="matrix(1,0,0,-1,103.10969,23.672344)"
         style="font-variant:normal;font-size:8.9663763px;font-family:'URW Palladio L';-inkscape-font-specification:URWPalladioL-Roma;writing-mode:lr-tb;fill:#000000;fill-opacity:1;fill-rule:nonzero;stroke:none"
         id="text94"><tspan
           x="0 4.4831882 6.724782"
           y="0"
           sodipodi:role="line"
           id="tspan96">0.6</tspan></text>
<path
         d="m 135.07588,34.087755 0,4"
         style="fill:#000000;fill-opacity:1;fill-rule:nonzero;stroke:#000000;stroke-width:0.5;stroke-linecap:butt;stroke-linejoin:round;stroke-miterlimit:10;stroke-dasharray:none;stroke-opacity:1"
         id="path98"
         inkscape:connector-curvature="0" /><path
         d="m 135.07588,170.15075 0,-4"
         style="fill:#000000;fill-opacity:1;fill-rule:nonzero;stroke:#000000;stroke-width:0.5;stroke-linecap:butt;stroke-linejoin:round;stroke-miterlimit:10;stroke-dasharray:none;stroke-opacity:1"
         id="path100"
         inkscape:connector-curvature="0" /><text
         transform="matrix(1,0,0,-1,129.4719,23.672344)"
         style="font-variant:normal;font-size:8.9663763px;font-family:'URW Palladio L';-inkscape-font-specification:URWPalladioL-Roma;writing-mode:lr-tb;fill:#000000;fill-opacity:1;fill-rule:nonzero;stroke:none"
         id="text102"><tspan
           x="0 4.4831882 6.724782"
           y="0"
           sodipodi:role="line"
           id="tspan104">0.8</tspan></text>
<path
         d="m 161.43809,34.087755 0,4"
         style="fill:#000000;fill-opacity:1;fill-rule:nonzero;stroke:#000000;stroke-width:0.5;stroke-linecap:butt;stroke-linejoin:round;stroke-miterlimit:10;stroke-dasharray:none;stroke-opacity:1"
         id="path106"
         inkscape:connector-curvature="0" /><path
         d="m 161.43809,170.15075 0,-4"
         style="fill:#000000;fill-opacity:1;fill-rule:nonzero;stroke:#000000;stroke-width:0.5;stroke-linecap:butt;stroke-linejoin:round;stroke-miterlimit:10;stroke-dasharray:none;stroke-opacity:1"
         id="path108"
         inkscape:connector-curvature="0" /><text
         transform="matrix(1,0,0,-1,155.8341,23.672344)"
         style="font-variant:normal;font-size:8.9663763px;font-family:'URW Palladio L';-inkscape-font-specification:URWPalladioL-Roma;writing-mode:lr-tb;fill:#000000;fill-opacity:1;fill-rule:nonzero;stroke:none"
         id="text110"><tspan
           x="0 4.4831882 6.724782"
           y="0"
           sodipodi:role="line"
           id="tspan112">1.0</tspan></text>
<text
         transform="matrix(1,0,0,-1,80.341436,9.7284669)"
         style="font-variant:normal;font-size:8.9663763px;font-family:'URW Palladio L';-inkscape-font-specification:URWPalladioL-Roma;writing-mode:lr-tb;fill:#000000;fill-opacity:1;fill-rule:nonzero;stroke:none"
         id="text114"><tspan
           x="0 7.4420919 12.328767 14.929016 18.721794"
           y="0"
           sodipodi:role="line"
           id="tspan116">Noise</tspan></text>
<text
         transform="matrix(1,0,0,-1,106.24053,9.7284669)"
         style="font-style:italic;font-variant:normal;font-size:8.9663763px;font-family:'URW Palladio L';-inkscape-font-specification:URWPalladioL-Ital;writing-mode:lr-tb;fill:#000000;fill-opacity:1;fill-rule:nonzero;stroke:none"
         id="text118"><tspan
           x="0"
           y="0"
           id="tspan120">p</tspan></text>
<path
         d="m 29.627065,34.087755 4,0"
         style="fill:#000000;fill-opacity:1;fill-rule:nonzero;stroke:#000000;stroke-width:0.5;stroke-linecap:butt;stroke-linejoin:round;stroke-miterlimit:10;stroke-dasharray:none;stroke-opacity:1"
         id="path122"
         inkscape:connector-curvature="0" /><path
         d="m 161.43809,34.087755 -4,0"
         style="fill:#000000;fill-opacity:1;fill-rule:nonzero;stroke:#000000;stroke-width:0.5;stroke-linecap:butt;stroke-linejoin:round;stroke-miterlimit:10;stroke-dasharray:none;stroke-opacity:1"
         id="path124"
         inkscape:connector-curvature="0" /><text
         transform="matrix(1,0,0,-1,21.143877,32.144283)"
         style="font-variant:normal;font-size:8.9663763px;font-family:'URW Palladio L';-inkscape-font-specification:URWPalladioL-Roma;writing-mode:lr-tb;fill:#000000;fill-opacity:1;fill-rule:nonzero;stroke:none"
         id="text126"><tspan
           x="0"
           y="0"
           id="tspan128">0</tspan></text>
<path
         d="m 29.627065,51.095629 4,0"
         style="fill:#000000;fill-opacity:1;fill-rule:nonzero;stroke:#000000;stroke-width:0.5;stroke-linecap:butt;stroke-linejoin:round;stroke-miterlimit:10;stroke-dasharray:none;stroke-opacity:1"
         id="path130"
         inkscape:connector-curvature="0" /><path
         d="m 161.43809,51.095629 -4,0"
         style="fill:#000000;fill-opacity:1;fill-rule:nonzero;stroke:#000000;stroke-width:0.5;stroke-linecap:butt;stroke-linejoin:round;stroke-miterlimit:10;stroke-dasharray:none;stroke-opacity:1"
         id="path132"
         inkscape:connector-curvature="0" /><text
         transform="matrix(1,0,0,-1,21.143877,49.152157)"
         style="font-variant:normal;font-size:8.9663763px;font-family:'URW Palladio L';-inkscape-font-specification:URWPalladioL-Roma;writing-mode:lr-tb;fill:#000000;fill-opacity:1;fill-rule:nonzero;stroke:none"
         id="text134"><tspan
           x="0"
           y="0"
           id="tspan136">1</tspan></text>
<path
         d="m 29.627065,68.103503 4,0"
         style="fill:#000000;fill-opacity:1;fill-rule:nonzero;stroke:#000000;stroke-width:0.5;stroke-linecap:butt;stroke-linejoin:round;stroke-miterlimit:10;stroke-dasharray:none;stroke-opacity:1"
         id="path138"
         inkscape:connector-curvature="0" /><path
         d="m 161.43809,68.103503 -4,0"
         style="fill:#000000;fill-opacity:1;fill-rule:nonzero;stroke:#000000;stroke-width:0.5;stroke-linecap:butt;stroke-linejoin:round;stroke-miterlimit:10;stroke-dasharray:none;stroke-opacity:1"
         id="path140"
         inkscape:connector-curvature="0" /><text
         transform="matrix(1,0,0,-1,21.143877,66.160031)"
         style="font-variant:normal;font-size:8.9663763px;font-family:'URW Palladio L';-inkscape-font-specification:URWPalladioL-Roma;writing-mode:lr-tb;fill:#000000;fill-opacity:1;fill-rule:nonzero;stroke:none"
         id="text142"><tspan
           x="0"
           y="0"
           id="tspan144">2</tspan></text>
<path
         d="m 29.627065,85.111377 4,0"
         style="fill:#000000;fill-opacity:1;fill-rule:nonzero;stroke:#000000;stroke-width:0.5;stroke-linecap:butt;stroke-linejoin:round;stroke-miterlimit:10;stroke-dasharray:none;stroke-opacity:1"
         id="path146"
         inkscape:connector-curvature="0" /><path
         d="m 161.43809,85.111377 -4,0"
         style="fill:#000000;fill-opacity:1;fill-rule:nonzero;stroke:#000000;stroke-width:0.5;stroke-linecap:butt;stroke-linejoin:round;stroke-miterlimit:10;stroke-dasharray:none;stroke-opacity:1"
         id="path148"
         inkscape:connector-curvature="0" /><text
         transform="matrix(1,0,0,-1,21.143877,83.167905)"
         style="font-variant:normal;font-size:8.9663763px;font-family:'URW Palladio L';-inkscape-font-specification:URWPalladioL-Roma;writing-mode:lr-tb;fill:#000000;fill-opacity:1;fill-rule:nonzero;stroke:none"
         id="text150"><tspan
           x="0"
           y="0"
           id="tspan152">3</tspan></text>
<path
         d="m 29.627065,102.11925 4,0"
         style="fill:#000000;fill-opacity:1;fill-rule:nonzero;stroke:#000000;stroke-width:0.5;stroke-linecap:butt;stroke-linejoin:round;stroke-miterlimit:10;stroke-dasharray:none;stroke-opacity:1"
         id="path154"
         inkscape:connector-curvature="0" /><path
         d="m 161.43809,102.11925 -4,0"
         style="fill:#000000;fill-opacity:1;fill-rule:nonzero;stroke:#000000;stroke-width:0.5;stroke-linecap:butt;stroke-linejoin:round;stroke-miterlimit:10;stroke-dasharray:none;stroke-opacity:1"
         id="path156"
         inkscape:connector-curvature="0" /><text
         transform="matrix(1,0,0,-1,21.143877,100.17578)"
         style="font-variant:normal;font-size:8.9663763px;font-family:'URW Palladio L';-inkscape-font-specification:URWPalladioL-Roma;writing-mode:lr-tb;fill:#000000;fill-opacity:1;fill-rule:nonzero;stroke:none"
         id="text158"><tspan
           x="0"
           y="0"
           id="tspan160">4</tspan></text>
<path
         d="m 29.627065,119.12712 4,0"
         style="fill:#000000;fill-opacity:1;fill-rule:nonzero;stroke:#000000;stroke-width:0.5;stroke-linecap:butt;stroke-linejoin:round;stroke-miterlimit:10;stroke-dasharray:none;stroke-opacity:1"
         id="path162"
         inkscape:connector-curvature="0" /><path
         d="m 161.43809,119.12712 -4,0"
         style="fill:#000000;fill-opacity:1;fill-rule:nonzero;stroke:#000000;stroke-width:0.5;stroke-linecap:butt;stroke-linejoin:round;stroke-miterlimit:10;stroke-dasharray:none;stroke-opacity:1"
         id="path164"
         inkscape:connector-curvature="0" /><text
         transform="matrix(1,0,0,-1,21.143877,117.18365)"
         style="font-variant:normal;font-size:8.9663763px;font-family:'URW Palladio L';-inkscape-font-specification:URWPalladioL-Roma;writing-mode:lr-tb;fill:#000000;fill-opacity:1;fill-rule:nonzero;stroke:none"
         id="text166"><tspan
           x="0"
           y="0"
           id="tspan168">5</tspan></text>
<path
         d="m 29.627065,136.135 4,0"
         style="fill:#000000;fill-opacity:1;fill-rule:nonzero;stroke:#000000;stroke-width:0.5;stroke-linecap:butt;stroke-linejoin:round;stroke-miterlimit:10;stroke-dasharray:none;stroke-opacity:1"
         id="path170"
         inkscape:connector-curvature="0" /><path
         d="m 161.43809,136.135 -4,0"
         style="fill:#000000;fill-opacity:1;fill-rule:nonzero;stroke:#000000;stroke-width:0.5;stroke-linecap:butt;stroke-linejoin:round;stroke-miterlimit:10;stroke-dasharray:none;stroke-opacity:1"
         id="path172"
         inkscape:connector-curvature="0" /><text
         transform="matrix(1,0,0,-1,21.143877,134.19153)"
         style="font-variant:normal;font-size:8.9663763px;font-family:'URW Palladio L';-inkscape-font-specification:URWPalladioL-Roma;writing-mode:lr-tb;fill:#000000;fill-opacity:1;fill-rule:nonzero;stroke:none"
         id="text174"><tspan
           x="0"
           y="0"
           id="tspan176">6</tspan></text>
<path
         d="m 29.627065,153.14287 4,0"
         style="fill:#000000;fill-opacity:1;fill-rule:nonzero;stroke:#000000;stroke-width:0.5;stroke-linecap:butt;stroke-linejoin:round;stroke-miterlimit:10;stroke-dasharray:none;stroke-opacity:1"
         id="path178"
         inkscape:connector-curvature="0" /><path
         d="m 161.43809,153.14287 -4,0"
         style="fill:#000000;fill-opacity:1;fill-rule:nonzero;stroke:#000000;stroke-width:0.5;stroke-linecap:butt;stroke-linejoin:round;stroke-miterlimit:10;stroke-dasharray:none;stroke-opacity:1"
         id="path180"
         inkscape:connector-curvature="0" /><text
         transform="matrix(1,0,0,-1,21.143877,151.1994)"
         style="font-variant:normal;font-size:8.9663763px;font-family:'URW Palladio L';-inkscape-font-specification:URWPalladioL-Roma;writing-mode:lr-tb;fill:#000000;fill-opacity:1;fill-rule:nonzero;stroke:none"
         id="text182"><tspan
           x="0"
           y="0"
           id="tspan184">7</tspan></text>
<path
         d="m 29.627065,170.15075 4,0"
         style="fill:#000000;fill-opacity:1;fill-rule:nonzero;stroke:#000000;stroke-width:0.5;stroke-linecap:butt;stroke-linejoin:round;stroke-miterlimit:10;stroke-dasharray:none;stroke-opacity:1"
         id="path186"
         inkscape:connector-curvature="0" /><path
         d="m 161.43809,170.15075 -4,0"
         style="fill:#000000;fill-opacity:1;fill-rule:nonzero;stroke:#000000;stroke-width:0.5;stroke-linecap:butt;stroke-linejoin:round;stroke-miterlimit:10;stroke-dasharray:none;stroke-opacity:1"
         id="path188"
         inkscape:connector-curvature="0" /><text
         transform="matrix(1,0,0,-1,21.143877,168.20728)"
         style="font-variant:normal;font-size:8.9663763px;font-family:'URW Palladio L';-inkscape-font-specification:URWPalladioL-Roma;writing-mode:lr-tb;fill:#000000;fill-opacity:1;fill-rule:nonzero;stroke:none"
         id="text190"><tspan
           x="0"
           y="0"
           id="tspan192">8</tspan></text>
<text
         transform="matrix(0,1,1,0,13.615411,60.820721)"
         style="font-variant:normal;font-size:8.9663763px;font-family:'URW Palladio L';-inkscape-font-specification:URWPalladioL-Roma;writing-mode:lr-tb;fill:#000000;fill-opacity:1;fill-rule:nonzero;stroke:none"
         id="text194"><tspan
           x="0 4.9763389 9.459527 12.059776 15.852553 22.380075 27.589539 31.875467 36.851807 41.334995 44.249065 46.849316 51.906353 56.19228 62.22665 65.203484 70.152924 72.753174 75.667252 79.460022"
           y="0"
           sodipodi:role="line"
           id="tspan196">Falsenegatives[bits]</tspan></text>
</g></g></svg>