<?xml version="1.0" encoding="UTF-8" standalone="no"?>
<!-- Created with Inkscape (http://www.inkscape.org/) -->

<svg
   xmlns:dc="http://purl.org/dc/elements/1.1/"
   xmlns:cc="http://creativecommons.org/ns#"
   xmlns:rdf="http://www.w3.org/1999/02/22-rdf-syntax-ns#"
   xmlns:svg="http://www.w3.org/2000/svg"
   xmlns="http://www.w3.org/2000/svg"
   xmlns:sodipodi="http://sodipodi.sourceforge.net/DTD/sodipodi-0.dtd"
   xmlns:inkscape="http://www.inkscape.org/namespaces/inkscape"
   id="svg2"
   version="1.1"
   inkscape:version="0.91 r13725"
   xml:space="preserve"
   width="403.0947"
   height="257.81943"
   viewBox="0 0 403.09469 257.81942"
   sodipodi:docname="sketch_info_over_noise_corr.svg"><metadata
     id="metadata8"><rdf:RDF><cc:Work
         rdf:about=""><dc:format>image/svg+xml</dc:format><dc:type
           rdf:resource="http://purl.org/dc/dcmitype/StillImage" /><dc:title></dc:title></cc:Work></rdf:RDF></metadata><defs
     id="defs6"><clipPath
       clipPathUnits="userSpaceOnUse"
       id="clipPath20"><path
         d="m 43.07663,34.087755 281.19685,0 0,136.062995 -281.19685,0 0,-136.062995 z"
         id="path22"
         inkscape:connector-curvature="0" /></clipPath><clipPath
       clipPathUnits="userSpaceOnUse"
       id="clipPath30"><path
         d="m 43.07663,34.087755 281.19685,0 0,136.062995 -281.19685,0 0,-136.062995 z"
         id="path32"
         inkscape:connector-curvature="0" /></clipPath><clipPath
       clipPathUnits="userSpaceOnUse"
       id="clipPath40"><path
         d="m 43.07663,34.087755 281.19685,0 0,136.062995 -281.19685,0 0,-136.062995 z"
         id="path42"
         inkscape:connector-curvature="0" /></clipPath><clipPath
       clipPathUnits="userSpaceOnUse"
       id="clipPath50"><path
         d="m 43.07663,34.087755 281.19685,0 0,136.062995 -281.19685,0 0,-136.062995 z"
         id="path52"
         inkscape:connector-curvature="0" /></clipPath><inkscape:path-effect
       effect="spiro"
       id="path-effect4443"
       is_visible="true" /></defs><sodipodi:namedview
     pagecolor="#ffffff"
     bordercolor="#666666"
     borderopacity="1"
     objecttolerance="10"
     gridtolerance="10"
     guidetolerance="10"
     inkscape:pageopacity="0"
     inkscape:pageshadow="2"
     inkscape:window-width="2560"
     inkscape:window-height="1376"
     id="namedview4"
     showgrid="false"
     fit-margin-top="0"
     fit-margin-left="0"
     fit-margin-right="0"
     fit-margin-bottom="0"
     inkscape:zoom="2.6074845"
     inkscape:cx="100.18704"
     inkscape:cy="155.08277"
     inkscape:window-x="0"
     inkscape:window-y="27"
     inkscape:window-maximized="1"
     inkscape:current-layer="g10" /><g
     id="g10"
     inkscape:groupmode="layer"
     inkscape:label="sketch_info_over_noise"
     transform="matrix(1.25,0,0,-1.25,-8.8598613,266.88662)"><path
       d="m 43.07663,34.087755 281.19685,0 0,136.062995 -281.19685,0 0,-136.062995 z"
       style="fill:#ffffff;fill-opacity:1;fill-rule:nonzero;stroke:none"
       id="path14"
       inkscape:connector-curvature="0" /><g
       id="g16"><g
         id="g18"
         clip-path="url(#clipPath20)"><path
           d="m 43.07663,169.87161 2.840372,-0.64599 2.840372,-1.26702 2.840372,-1.83599 2.840373,-0.78115 2.840372,-0.34724 2.840372,-1.07091 2.840372,0.34695 2.840372,-1.88656 2.840373,-2.0411 2.840372,0.26508 2.840372,-0.62798 2.840372,-3.41396 2.840373,-0.37764 2.840372,-1.25086 2.840372,-1.37375 2.840372,-0.31529 2.840372,-0.27806 2.840373,-3.1237 2.840372,-0.29752 2.840372,-0.78663 2.840376,0.86933 2.84037,-4.06762 2.84037,0.29667 2.84037,-5.01473 2.84038,2.17168 2.84037,0.31015 2.84037,-6.21775 2.84037,2.84913 2.84037,1.31711 2.84038,-5.55371 2.84037,-1.1831 2.84037,-2.2272 2.84037,-0.18216 2.84038,-2.465 2.84037,-0.74832 2.84037,2.27411 2.84037,-5.05024 2.84037,0.5796 2.84038,-1.28764 2.84037,-5.06195 2.84037,-0.75602 2.84037,0.33547 2.84038,-1.04894 2.84037,-3.32167 2.84037,2.3947 2.84037,-4.02877 2.84037,-0.6765 2.84038,-0.80112 2.84037,-3.02516 2.84037,-1.37174 2.84037,-2.12829 2.84038,1.02007 2.84037,-3.76903 2.84037,1.79804 2.84037,-1.28881 2.84037,-5.245221 2.84038,-0.211599 2.84037,-2.239173 2.84037,-3.342215 2.84037,1.501862 2.84038,-0.54305 2.84037,-0.887043 2.84037,-1.991662 2.84037,-1.606639 2.84037,-0.781109 2.84038,0.26739 2.84037,-4.873054 2.84037,2.118234 2.84037,-8.966635 2.84038,5.580714 2.84037,-6.120333 2.84037,0.737772 2.84037,-1.36604 2.84037,-6.547651 2.84038,1.796024 2.84037,-0.47222 2.84037,-4.043633 2.84037,1.357373 2.84038,-0.415647 2.84037,-4.975678 2.84037,-0.517319 2.84037,-0.399743 2.84037,-1.518972 2.84038,0.504959 2.84037,-5.241107 2.84037,-1.790349 2.84037,1.442459 2.84038,-5.830377 2.84037,1.663633 2.84037,-2.632367 2.84037,-2.498882 2.84037,-0.691898 2.84038,-1.107015 2.84037,-2.559217 2.84037,-1.429786 2.84037,-0.20854 2.84038,-2.574128 2.84037,-1.465638 2.84037,-1.491605"
           style="fill:none;stroke:#000000;stroke-width:0.75;stroke-linecap:square;stroke-linejoin:round;stroke-miterlimit:10;stroke-dasharray:2.25,2.25;stroke-opacity:1;stroke-dashoffset:0"
           id="path24"
           inkscape:connector-curvature="0" /></g></g><g
       id="g26"><g
         id="g28"
         clip-path="url(#clipPath30)"><path
           d="m 43.07663,169.87161 2.840372,-43.29987 2.840372,-19.35309 2.840372,-24.60843 2.840373,-12.740732 2.840372,-11.343692 2.840372,-1.966566 2.840372,-4.686688 2.840372,-5.84635 2.840373,-3.43534 2.840372,-1.361121 2.840372,-2.958259 2.840372,-0.945723 2.840373,-0.568915 2.840372,-0.613665 2.840372,-0.279569 2.840372,-0.903552 2.840372,0.02562 2.840373,-0.424095 2.840372,-0.369433 2.840372,0.195112 2.840376,-0.104388 2.84037,-0.09414 2.84037,-0.09756 2.84037,0 2.84038,0.09414 2.84037,-0.09756 2.84037,0 2.84037,0 2.84037,0 2.84038,0 2.84037,0 2.84037,0 2.84037,0 2.84038,0 2.84037,0 2.84037,0 2.84037,0 2.84037,0 2.84038,0 2.84037,0 2.84037,0 2.84037,0 2.84038,0 2.84037,0 2.84037,0 2.84037,0 2.84037,0 2.84038,0 2.84037,0 2.84037,0 2.84037,0 2.84038,0 2.84037,0 2.84037,0 2.84037,0 2.84037,0 2.84038,0 2.84037,0 2.84037,0 2.84037,0 2.84038,0 2.84037,0 2.84037,0 2.84037,0 2.84037,0 2.84038,0 2.84037,0 2.84037,0 2.84037,0 2.84038,0 2.84037,0 2.84037,0 2.84037,0 2.84037,0 2.84038,0 2.84037,0 2.84037,0 2.84037,0 2.84038,0 2.84037,0 2.84037,0 2.84037,0 2.84037,0 2.84038,0 2.84037,0 2.84037,0 2.84037,0 2.84038,0 2.84037,0 2.84037,0 2.84037,0 2.84037,0 2.84038,0 2.84037,0 2.84037,0 2.84037,0 2.84038,0 2.84037,0 2.84037,0"
           style="fill:none;stroke:#000000;stroke-width:0.75;stroke-linecap:butt;stroke-linejoin:round;stroke-miterlimit:10;stroke-dasharray:none;stroke-dashoffset:0;stroke-opacity:1"
           id="path34"
           inkscape:connector-curvature="0" /></g></g><g
       id="g36"><g
         id="g38"
         clip-path="url(#clipPath40)"><path
           d="m 43.07663,169.87161 2.840372,-6.4479 2.840372,-13.74374 2.840372,-15.94157 2.840373,-7.55891 2.840372,-1.95769 2.840372,-3.44994 2.840372,-12.50854 2.840372,-0.57904 2.840373,-10.368701 2.840372,-4.663958 2.840372,-0.804637 2.840372,-18.049108 2.840373,3.774053 2.840372,-2.283341 2.840372,-12.908808 2.840372,4.568059 2.840372,-3.670882 2.840373,1.378955 2.840372,-9.651795 2.840372,-1.430037 2.840376,1.865719 2.84037,-2.459533 2.84037,-3.419917 2.84037,-5.40626 2.84038,0.654614 2.84037,10.054866 2.84037,-13.535068 2.84037,6.751508 2.84037,-5.024447 2.84038,0.212559 2.84037,-2.950096 2.84037,-3.126157 2.84037,1.509593 2.84038,1.774923 2.84037,-1.63138 2.84037,2.137824 2.84037,-5.285068 2.84037,0.775368 2.84038,1.23219 2.84037,-0.503583 2.84037,-2.352109 2.84037,0.157326 2.84038,0.647677 2.84037,-0.761872 2.84037,0.661173 2.84037,-0.704304 2.84037,0.04313 2.84038,-0.805002 2.84037,0 2.84037,0.761871 2.84037,-0.761871 2.84038,0 2.84037,0 2.84037,0 2.84037,0 2.84037,0.761871 2.84038,-0.761871 2.84037,0 2.84037,0 2.84037,0 2.84038,0 2.84037,0 2.84037,0.805002 2.84037,-0.805002 2.84037,0 2.84038,0 2.84037,0 2.84037,0 2.84037,0 2.84038,0 2.84037,0 2.84037,0 2.84037,0 2.84037,0 2.84038,0 2.84037,0 2.84037,0 2.84037,0 2.84038,0 2.84037,0 2.84037,0 2.84037,0 2.84037,0 2.84038,0 2.84037,0 2.84037,0 2.84037,0 2.84038,0 2.84037,0 2.84037,0 2.84037,0 2.84037,0 2.84038,0 2.84037,0 2.84037,0 2.84037,0 2.84038,0 2.84037,0 2.84037,0"
           style="fill:none;stroke:#3465a4;stroke-width:0.75;stroke-linecap:square;stroke-linejoin:round;stroke-miterlimit:10;stroke-dasharray:2.25,2.25;stroke-opacity:1;stroke-dashoffset:0"
           id="path44"
           inkscape:connector-curvature="0" /></g></g><g
       id="g46"><g
         id="g48"
         clip-path="url(#clipPath50)"><path
           d="m 43.07663,169.87161 2.840372,-40.38387 2.840372,-22.62076 2.840372,-25.304272 2.840373,-14.944566 2.840372,-9.034397 2.840372,-6.06779 2.840372,-4.363187 2.840372,-5.445895 2.840373,-3.880116 2.840372,-0.373495 2.840372,-1.889379 2.840372,-0.526938 2.840373,-0.01535 2.840372,-0.334403 2.840372,-0.241605 2.840372,-0.232236 2.840372,-0.04892 2.840373,-0.0074 2.840372,-0.04166 2.840372,-4e-5 2.840376,0.0075 2.84037,-0.02815 2.84037,-0.0035 2.84037,0 2.84038,-0.0034 2.84037,0 2.84037,0 2.84037,0 2.84037,0 2.84038,0 2.84037,0 2.84037,0 2.84037,0 2.84038,0 2.84037,0 2.84037,0 2.84037,0 2.84037,0 2.84038,0 2.84037,0 2.84037,0 2.84037,0 2.84038,0 2.84037,0 2.84037,0 2.84037,0 2.84037,0 2.84038,0 2.84037,0 2.84037,0 2.84037,0 2.84038,0 2.84037,0 2.84037,0 2.84037,0 2.84037,0 2.84038,0 2.84037,0 2.84037,0 2.84037,0 2.84038,0 2.84037,0 2.84037,0 2.84037,0 2.84037,0 2.84038,0 2.84037,0 2.84037,0 2.84037,0 2.84038,0 2.84037,0 2.84037,0 2.84037,0 2.84037,0 2.84038,0 2.84037,0 2.84037,0 2.84037,0 2.84038,0 2.84037,0 2.84037,0 2.84037,0 2.84037,0 2.84038,0 2.84037,0 2.84037,0 2.84037,0 2.84038,0 2.84037,0 2.84037,0 2.84037,0 2.84037,0 2.84038,0 2.84037,0 2.84037,0 2.84037,0 2.84038,0 2.84037,0 2.84037,0"
           style="fill:none;stroke:#3465a4;stroke-width:0.75;stroke-linecap:butt;stroke-linejoin:round;stroke-miterlimit:10;stroke-dasharray:none;stroke-dashoffset:0;stroke-opacity:1"
           id="path54"
           inkscape:connector-curvature="0" /></g></g><g
       id="g56"><path
         d="m 43.07663,170.15075 281.19685,0"
         style="fill:none;stroke:#000000;stroke-width:0.25;stroke-linecap:square;stroke-linejoin:miter;stroke-miterlimit:10;stroke-dasharray:none;stroke-opacity:1"
         id="path58"
         inkscape:connector-curvature="0" /><path
         d="m 324.27348,34.087755 0,136.062995"
         style="fill:none;stroke:#000000;stroke-width:0.25;stroke-linecap:square;stroke-linejoin:miter;stroke-miterlimit:10;stroke-dasharray:none;stroke-opacity:1"
         id="path60"
         inkscape:connector-curvature="0" /><path
         d="m 43.07663,34.087755 281.19685,0"
         style="fill:none;stroke:#000000;stroke-width:0.25;stroke-linecap:square;stroke-linejoin:miter;stroke-miterlimit:10;stroke-dasharray:none;stroke-opacity:1"
         id="path62"
         inkscape:connector-curvature="0" /><path
         d="m 43.07663,34.087755 0,136.062995"
         style="fill:none;stroke:#000000;stroke-width:0.25;stroke-linecap:square;stroke-linejoin:miter;stroke-miterlimit:10;stroke-dasharray:none;stroke-opacity:1"
         id="path64"
         inkscape:connector-curvature="0" /><path
         d="m 43.07663,34.087755 0,4"
         style="fill:#000000;fill-opacity:1;fill-rule:nonzero;stroke:#000000;stroke-width:0.5;stroke-linecap:butt;stroke-linejoin:round;stroke-miterlimit:10;stroke-dasharray:none;stroke-opacity:1"
         id="path66"
         inkscape:connector-curvature="0" /><path
         d="m 43.07663,170.15075 0,-4"
         style="fill:#000000;fill-opacity:1;fill-rule:nonzero;stroke:#000000;stroke-width:0.5;stroke-linecap:butt;stroke-linejoin:round;stroke-miterlimit:10;stroke-dasharray:none;stroke-opacity:1"
         id="path68"
         inkscape:connector-curvature="0" /><text
         transform="matrix(1,0,0,-1,37.472645,23.672344)"
         style="font-variant:normal;font-size:8.9663763px;font-family:'URW Palladio L';-inkscape-font-specification:URWPalladioL-Roma;writing-mode:lr-tb;fill:#000000;fill-opacity:1;fill-rule:nonzero;stroke:none"
         id="text70"><tspan
           x="0 4.4831882 6.724782"
           y="0"
           sodipodi:role="line"
           id="tspan72">0.0</tspan></text>
<path
         d="m 99.316,34.087755 0,4"
         style="fill:#000000;fill-opacity:1;fill-rule:nonzero;stroke:#000000;stroke-width:0.5;stroke-linecap:butt;stroke-linejoin:round;stroke-miterlimit:10;stroke-dasharray:none;stroke-opacity:1"
         id="path74"
         inkscape:connector-curvature="0" /><path
         d="m 99.316,170.15075 0,-4"
         style="fill:#000000;fill-opacity:1;fill-rule:nonzero;stroke:#000000;stroke-width:0.5;stroke-linecap:butt;stroke-linejoin:round;stroke-miterlimit:10;stroke-dasharray:none;stroke-opacity:1"
         id="path76"
         inkscape:connector-curvature="0" /><text
         transform="matrix(1,0,0,-1,93.712015,23.672344)"
         style="font-variant:normal;font-size:8.9663763px;font-family:'URW Palladio L';-inkscape-font-specification:URWPalladioL-Roma;writing-mode:lr-tb;fill:#000000;fill-opacity:1;fill-rule:nonzero;stroke:none"
         id="text78"><tspan
           x="0 4.4831882 6.724782"
           y="0"
           sodipodi:role="line"
           id="tspan80">0.2</tspan></text>
<path
         d="m 155.55537,34.087755 0,4"
         style="fill:#000000;fill-opacity:1;fill-rule:nonzero;stroke:#000000;stroke-width:0.5;stroke-linecap:butt;stroke-linejoin:round;stroke-miterlimit:10;stroke-dasharray:none;stroke-opacity:1"
         id="path82"
         inkscape:connector-curvature="0" /><path
         d="m 155.55537,170.15075 0,-4"
         style="fill:#000000;fill-opacity:1;fill-rule:nonzero;stroke:#000000;stroke-width:0.5;stroke-linecap:butt;stroke-linejoin:round;stroke-miterlimit:10;stroke-dasharray:none;stroke-opacity:1"
         id="path84"
         inkscape:connector-curvature="0" /><text
         transform="matrix(1,0,0,-1,149.95138,23.672344)"
         style="font-variant:normal;font-size:8.9663763px;font-family:'URW Palladio L';-inkscape-font-specification:URWPalladioL-Roma;writing-mode:lr-tb;fill:#000000;fill-opacity:1;fill-rule:nonzero;stroke:none"
         id="text86"><tspan
           x="0 4.4831882 6.724782"
           y="0"
           sodipodi:role="line"
           id="tspan88">0.4</tspan></text>
<path
         d="m 211.79474,34.087755 0,4"
         style="fill:#000000;fill-opacity:1;fill-rule:nonzero;stroke:#000000;stroke-width:0.5;stroke-linecap:butt;stroke-linejoin:round;stroke-miterlimit:10;stroke-dasharray:none;stroke-opacity:1"
         id="path90"
         inkscape:connector-curvature="0" /><path
         d="m 211.79474,170.15075 0,-4"
         style="fill:#000000;fill-opacity:1;fill-rule:nonzero;stroke:#000000;stroke-width:0.5;stroke-linecap:butt;stroke-linejoin:round;stroke-miterlimit:10;stroke-dasharray:none;stroke-opacity:1"
         id="path92"
         inkscape:connector-curvature="0" /><text
         transform="matrix(1,0,0,-1,206.19075,23.672344)"
         style="font-variant:normal;font-size:8.9663763px;font-family:'URW Palladio L';-inkscape-font-specification:URWPalladioL-Roma;writing-mode:lr-tb;fill:#000000;fill-opacity:1;fill-rule:nonzero;stroke:none"
         id="text94"><tspan
           x="0 4.4831882 6.724782"
           y="0"
           sodipodi:role="line"
           id="tspan96">0.6</tspan></text>
<path
         d="m 268.03411,34.087755 0,4"
         style="fill:#000000;fill-opacity:1;fill-rule:nonzero;stroke:#000000;stroke-width:0.5;stroke-linecap:butt;stroke-linejoin:round;stroke-miterlimit:10;stroke-dasharray:none;stroke-opacity:1"
         id="path98"
         inkscape:connector-curvature="0" /><path
         d="m 268.03411,170.15075 0,-4"
         style="fill:#000000;fill-opacity:1;fill-rule:nonzero;stroke:#000000;stroke-width:0.5;stroke-linecap:butt;stroke-linejoin:round;stroke-miterlimit:10;stroke-dasharray:none;stroke-opacity:1"
         id="path100"
         inkscape:connector-curvature="0" /><text
         transform="matrix(1,0,0,-1,262.43012,23.672344)"
         style="font-variant:normal;font-size:8.9663763px;font-family:'URW Palladio L';-inkscape-font-specification:URWPalladioL-Roma;writing-mode:lr-tb;fill:#000000;fill-opacity:1;fill-rule:nonzero;stroke:none"
         id="text102"><tspan
           x="0 4.4831882 6.724782"
           y="0"
           sodipodi:role="line"
           id="tspan104">0.8</tspan></text>
<path
         d="m 324.27348,34.087755 0,4"
         style="fill:#000000;fill-opacity:1;fill-rule:nonzero;stroke:#000000;stroke-width:0.5;stroke-linecap:butt;stroke-linejoin:round;stroke-miterlimit:10;stroke-dasharray:none;stroke-opacity:1"
         id="path106"
         inkscape:connector-curvature="0" /><path
         d="m 324.27348,170.15075 0,-4"
         style="fill:#000000;fill-opacity:1;fill-rule:nonzero;stroke:#000000;stroke-width:0.5;stroke-linecap:butt;stroke-linejoin:round;stroke-miterlimit:10;stroke-dasharray:none;stroke-opacity:1"
         id="path108"
         inkscape:connector-curvature="0" /><text
         transform="matrix(1,0,0,-1,318.66949,23.672344)"
         style="font-variant:normal;font-size:8.9663763px;font-family:'URW Palladio L';-inkscape-font-specification:URWPalladioL-Roma;writing-mode:lr-tb;fill:#000000;fill-opacity:1;fill-rule:nonzero;stroke:none"
         id="text110"><tspan
           x="0 4.4831882 6.724782"
           y="0"
           sodipodi:role="line"
           id="tspan112">1.0</tspan></text>
<text
         transform="matrix(1,0,0,-1,168.48391,9.7284669)"
         style="font-variant:normal;font-size:8.9663763px;font-family:'URW Palladio L';-inkscape-font-specification:URWPalladioL-Roma;writing-mode:lr-tb;fill:#000000;fill-opacity:1;fill-rule:nonzero;stroke:none"
         id="text114"><tspan
           x="0 7.4420919 12.328767 14.929016 18.721794"
           y="0"
           sodipodi:role="line"
           id="tspan116">Noise</tspan></text>
<text
         transform="matrix(1,0,0,-1,194.38301,9.7284669)"
         style="font-style:italic;font-variant:normal;font-size:8.9663763px;font-family:'URW Palladio L';-inkscape-font-specification:URWPalladioL-Ital;writing-mode:lr-tb;fill:#000000;fill-opacity:1;fill-rule:nonzero;stroke:none"
         id="text118"><tspan
           x="0"
           y="0"
           id="tspan120">p</tspan></text>
<path
         d="m 43.07663,34.087755 4,0"
         style="fill:#000000;fill-opacity:1;fill-rule:nonzero;stroke:#000000;stroke-width:0.5;stroke-linecap:butt;stroke-linejoin:round;stroke-miterlimit:10;stroke-dasharray:none;stroke-opacity:1"
         id="path122"
         inkscape:connector-curvature="0" /><path
         d="m 324.27348,34.087755 -4,0"
         style="fill:#000000;fill-opacity:1;fill-rule:nonzero;stroke:#000000;stroke-width:0.5;stroke-linecap:butt;stroke-linejoin:round;stroke-miterlimit:10;stroke-dasharray:none;stroke-opacity:1"
         id="path124"
         inkscape:connector-curvature="0" /><text
         transform="matrix(1,0,0,-1,34.593442,32.144283)"
         style="font-variant:normal;font-size:8.9663763px;font-family:'URW Palladio L';-inkscape-font-specification:URWPalladioL-Roma;writing-mode:lr-tb;fill:#000000;fill-opacity:1;fill-rule:nonzero;stroke:none"
         id="text126"><tspan
           x="0"
           y="0"
           id="tspan128">0</tspan></text>
<path
         d="m 43.07663,61.300353 4,0"
         style="fill:#000000;fill-opacity:1;fill-rule:nonzero;stroke:#000000;stroke-width:0.5;stroke-linecap:butt;stroke-linejoin:round;stroke-miterlimit:10;stroke-dasharray:none;stroke-opacity:1"
         id="path130"
         inkscape:connector-curvature="0" /><path
         d="m 324.27348,61.300353 -4,0"
         style="fill:#000000;fill-opacity:1;fill-rule:nonzero;stroke:#000000;stroke-width:0.5;stroke-linecap:butt;stroke-linejoin:round;stroke-miterlimit:10;stroke-dasharray:none;stroke-opacity:1"
         id="path132"
         inkscape:connector-curvature="0" /><text
         transform="matrix(1,0,0,-1,21.143877,59.356881)"
         style="font-variant:normal;font-size:8.9663763px;font-family:'URW Palladio L';-inkscape-font-specification:URWPalladioL-Roma;writing-mode:lr-tb;fill:#000000;fill-opacity:1;fill-rule:nonzero;stroke:none"
         id="text134"><tspan
           x="0 4.4831882 8.9663763 13.449564"
           y="0"
           sodipodi:role="line"
           id="tspan136">1000</tspan></text>
<path
         d="m 43.07663,88.512952 4,0"
         style="fill:#000000;fill-opacity:1;fill-rule:nonzero;stroke:#000000;stroke-width:0.5;stroke-linecap:butt;stroke-linejoin:round;stroke-miterlimit:10;stroke-dasharray:none;stroke-opacity:1"
         id="path138"
         inkscape:connector-curvature="0" /><path
         d="m 324.27348,88.512952 -4,0"
         style="fill:#000000;fill-opacity:1;fill-rule:nonzero;stroke:#000000;stroke-width:0.5;stroke-linecap:butt;stroke-linejoin:round;stroke-miterlimit:10;stroke-dasharray:none;stroke-opacity:1"
         id="path140"
         inkscape:connector-curvature="0" /><text
         transform="matrix(1,0,0,-1,21.143877,86.56948)"
         style="font-variant:normal;font-size:8.9663763px;font-family:'URW Palladio L';-inkscape-font-specification:URWPalladioL-Roma;writing-mode:lr-tb;fill:#000000;fill-opacity:1;fill-rule:nonzero;stroke:none"
         id="text142"><tspan
           x="0 4.4831882 8.9663763 13.449564"
           y="0"
           sodipodi:role="line"
           id="tspan144">2000</tspan></text>
<path
         d="m 43.07663,115.72555 4,0"
         style="fill:#000000;fill-opacity:1;fill-rule:nonzero;stroke:#000000;stroke-width:0.5;stroke-linecap:butt;stroke-linejoin:round;stroke-miterlimit:10;stroke-dasharray:none;stroke-opacity:1"
         id="path146"
         inkscape:connector-curvature="0" /><path
         d="m 324.27348,115.72555 -4,0"
         style="fill:#000000;fill-opacity:1;fill-rule:nonzero;stroke:#000000;stroke-width:0.5;stroke-linecap:butt;stroke-linejoin:round;stroke-miterlimit:10;stroke-dasharray:none;stroke-opacity:1"
         id="path148"
         inkscape:connector-curvature="0" /><text
         transform="matrix(1,0,0,-1,21.143877,113.78208)"
         style="font-variant:normal;font-size:8.9663763px;font-family:'URW Palladio L';-inkscape-font-specification:URWPalladioL-Roma;writing-mode:lr-tb;fill:#000000;fill-opacity:1;fill-rule:nonzero;stroke:none"
         id="text150"><tspan
           x="0 4.4831882 8.9663763 13.449564"
           y="0"
           sodipodi:role="line"
           id="tspan152">3000</tspan></text>
<path
         d="m 43.07663,142.93815 4,0"
         style="fill:#000000;fill-opacity:1;fill-rule:nonzero;stroke:#000000;stroke-width:0.5;stroke-linecap:butt;stroke-linejoin:round;stroke-miterlimit:10;stroke-dasharray:none;stroke-opacity:1"
         id="path154"
         inkscape:connector-curvature="0" /><path
         d="m 324.27348,142.93815 -4,0"
         style="fill:#000000;fill-opacity:1;fill-rule:nonzero;stroke:#000000;stroke-width:0.5;stroke-linecap:butt;stroke-linejoin:round;stroke-miterlimit:10;stroke-dasharray:none;stroke-opacity:1"
         id="path156"
         inkscape:connector-curvature="0" /><text
         transform="matrix(1,0,0,-1,21.143877,140.99468)"
         style="font-variant:normal;font-size:8.9663763px;font-family:'URW Palladio L';-inkscape-font-specification:URWPalladioL-Roma;writing-mode:lr-tb;fill:#000000;fill-opacity:1;fill-rule:nonzero;stroke:none"
         id="text158"><tspan
           x="0 4.4831882 8.9663763 13.449564"
           y="0"
           sodipodi:role="line"
           id="tspan160">4000</tspan></text>
<path
         d="m 43.07663,170.15075 4,0"
         style="fill:#000000;fill-opacity:1;fill-rule:nonzero;stroke:#000000;stroke-width:0.5;stroke-linecap:butt;stroke-linejoin:round;stroke-miterlimit:10;stroke-dasharray:none;stroke-opacity:1"
         id="path162"
         inkscape:connector-curvature="0" /><path
         d="m 324.27348,170.15075 -4,0"
         style="fill:#000000;fill-opacity:1;fill-rule:nonzero;stroke:#000000;stroke-width:0.5;stroke-linecap:butt;stroke-linejoin:round;stroke-miterlimit:10;stroke-dasharray:none;stroke-opacity:1"
         id="path164"
         inkscape:connector-curvature="0" /><text
         transform="matrix(1,0,0,-1,21.143877,168.20728)"
         style="font-variant:normal;font-size:8.9663763px;font-family:'URW Palladio L';-inkscape-font-specification:URWPalladioL-Roma;writing-mode:lr-tb;fill:#000000;fill-opacity:1;fill-rule:nonzero;stroke:none"
         id="text166"><tspan
           x="0 4.4831882 8.9663763 13.449564"
           y="0"
           sodipodi:role="line"
           id="tspan168">5000</tspan></text>
<text
         transform="matrix(0,1,1,0,13.615411,67.011859)"
         style="font-variant:normal;font-size:8.9663763px;font-family:'URW Palladio L';-inkscape-font-specification:URWPalladioL-Roma;writing-mode:lr-tb;fill:#000000;fill-opacity:1;fill-rule:nonzero;stroke:none"
         id="text170"><tspan
           x="0 3.0127025 8.222167 11.199004 16.085678 19.618431 27.526775 32.009964 34.924034 37.524284 42.410957 49.862019 52.838856 57.788296 60.388542 63.302616 67.09539"
           y="0"
           sodipodi:role="line"
           id="tspan172">Information[bits]</tspan></text>
<path
         sodipodi:nodetypes="cc"
         inkscape:connector-curvature="0"
         inkscape:original-d="m 43.090056,169.83877 281.078404,-135.575863"
         inkscape:path-effect="#path-effect4443"
         id="path4441"
         d="m 43.090056,169.83877 281.078404,-135.575863"
         style="color:#000000;display:inline;overflow:visible;visibility:visible;fill:none;fill-rule:evenodd;stroke:#000000;stroke-width:0.40000001;stroke-linecap:butt;stroke-linejoin:miter;stroke-miterlimit:4;stroke-dasharray:0.4, 0.8;stroke-dashoffset:0;stroke-opacity:1;marker:none;enable-background:accumulate" /><g
         id="g4630"
         transform="translate(-0.37075134,0)"><path
           d="m 73.729821,208.36646 12.6,0"
           style="fill:none;stroke:#000000;stroke-width:0.75;stroke-linecap:square;stroke-linejoin:round;stroke-miterlimit:10;stroke-dasharray:2.25,2.25;stroke-opacity:1;stroke-dashoffset:0"
           id="path174"
           inkscape:connector-curvature="0" /><text
           transform="scale(1,-1)"
           style="font-variant:normal;font-size:8.9663763px;font-family:'URW Palladio L';-inkscape-font-specification:URWPalladioL-Roma;writing-mode:lr-tb;fill:#000000;fill-opacity:1;fill-rule:nonzero;stroke:none"
           id="text176"
           x="96.22982"
           y="-206.89511"><tspan
             x="96.22982 104.70305 107.3033 111.09608 114.88885 117.4891 122.69855 129.91647 134.86594 137.4662 140.38025 146.41463"
             y="-206.89511"
             sodipodi:role="line"
             id="tspan178">Missingbits(</tspan></text>
<text
           transform="scale(1,-1)"
           style="font-style:italic;font-variant:normal;font-size:8.9663763px;font-family:'URW Palladio L';-inkscape-font-specification:URWPalladioL-Ital;writing-mode:lr-tb;fill:#000000;fill-opacity:1;fill-rule:nonzero;stroke:none"
           id="text180"
           x="150.10356"
           y="-206.89511"><tspan
             x="150.10356"
             y="-206.89511"
             id="tspan182">p</tspan></text>
<text
           transform="scale(1,-1)"
           style="font-variant:normal;font-size:6.97384787px;font-family:'URW Palladio L';-inkscape-font-specification:URWPalladioL-Roma;writing-mode:lr-tb;fill:#000000;fill-opacity:1;fill-rule:nonzero;stroke:none"
           id="text184"
           x="154.69875"
           y="-205.21646"><tspan
             x="154.69875"
             y="-205.21646"
             id="tspan186">0</tspan></text>
<text
           transform="scale(1,-1)"
           style="font-variant:normal;font-size:8.9663763px;font-family:'URW Palladio L';-inkscape-font-specification:URWPalladioL-Roma;writing-mode:lr-tb;fill:#000000;fill-opacity:1;fill-rule:nonzero;stroke:none"
           id="text188"
           x="158.68381"
           y="-206.89511"><tspan
             x="158.68381"
             y="-206.89511"
             id="tspan190">)</tspan></text>
<path
           d="m 195.99625,208.36646 12.6,0"
           style="fill:none;stroke:#000000;stroke-width:0.75;stroke-linecap:butt;stroke-linejoin:round;stroke-miterlimit:10;stroke-dasharray:none;stroke-dashoffset:0;stroke-opacity:1"
           id="path192"
           inkscape:connector-curvature="0" /><text
           transform="scale(1,-1)"
           style="font-variant:normal;font-size:8.9663763px;font-family:'URW Palladio L';-inkscape-font-specification:URWPalladioL-Roma;writing-mode:lr-tb;fill:#000000;fill-opacity:1;fill-rule:nonzero;stroke:none"
           id="text194"
           x="218.06236"
           y="-206.99971"><tspan
             x="218.06236 225.02924 230.49872 235.9682 238.56847 241.48254 244.08279 248.96947 254.17894 258.66211 263.50397 268.45337 271.05362 273.96771 280.00208"
             y="-206.99971"
             sodipodi:role="line"
             id="tspan196">Additionalbits(</tspan></text>
<text
           transform="scale(1,-1)"
           style="font-style:italic;font-variant:normal;font-size:8.9663763px;font-family:'URW Palladio L';-inkscape-font-specification:URWPalladioL-Ital;writing-mode:lr-tb;fill:#000000;fill-opacity:1;fill-rule:nonzero;stroke:none"
           id="text198"
           x="283.70874"
           y="-206.99971"><tspan
             x="283.70874"
             y="-206.99971"
             id="tspan200">p</tspan></text>
<text
           transform="scale(1,-1)"
           style="font-variant:normal;font-size:6.97384787px;font-family:'URW Palladio L';-inkscape-font-specification:URWPalladioL-Roma;writing-mode:lr-tb;fill:#000000;fill-opacity:1;fill-rule:nonzero;stroke:none"
           id="text202"
           x="288.30389"
           y="-205.21646"><tspan
             x="288.30389"
             y="-205.21646"
             id="tspan204">1</tspan></text>
<text
           transform="scale(1,-1)"
           style="font-variant:normal;font-size:8.9663763px;font-family:'URW Palladio L';-inkscape-font-specification:URWPalladioL-Roma;writing-mode:lr-tb;fill:#000000;fill-opacity:1;fill-rule:nonzero;stroke:none"
           id="text206"
           x="292.28897"
           y="-206.99971"><tspan
             x="292.28897"
             y="-206.99971"
             id="tspan208">)</tspan></text>
<text
           transform="scale(1,-1)"
           style="font-variant:normal;font-size:8.9663763px;font-family:'URW Palladio L';-inkscape-font-specification:URWPalladioL-Roma;writing-mode:lr-tb;fill:#000000;fill-opacity:1;fill-rule:nonzero;stroke:none"
           id="text176-3"
           x="96.22982"
           y="-187.39171"><tspan
             sodipodi:role="line"
             id="tspan178-3"
             x="96.22982"
             y="-187.39171">Adaptive threshold</tspan></text>
<text
           transform="scale(1,-1)"
           style="font-variant:normal;font-size:8.9663763px;font-family:'URW Palladio L';-inkscape-font-specification:URWPalladioL-Roma;writing-mode:lr-tb;fill:#000000;fill-opacity:1;fill-rule:nonzero;stroke:none"
           id="text194-5"
           x="218.06236"
           y="-187.49631"><tspan
             sodipodi:role="line"
             id="tspan196-2"
             x="218.06236"
             y="-187.49631">Fixed threshold</tspan></text>
<rect
           transform="scale(1,-1)"
           style="opacity:1;fill:#888a85;fill-opacity:1;stroke:#000000;stroke-width:0.40000001;stroke-linecap:butt;stroke-linejoin:miter;stroke-miterlimit:10;stroke-dasharray:none;stroke-dashoffset:0;stroke-opacity:1"
           id="rect4424"
           width="12.800003"
           height="7.2534304"
           x="73.629822"
           y="-194.37711" /><rect
           transform="scale(1,-1)"
           style="opacity:1;fill:#729fcf;fill-opacity:1;stroke:#3465a4;stroke-width:0.40000001;stroke-linecap:butt;stroke-linejoin:miter;stroke-miterlimit:10;stroke-dasharray:none;stroke-dashoffset:0;stroke-opacity:1"
           id="rect4424-3"
           width="12.800003"
           height="6.7932167"
           x="195.89626"
           y="-194.147" /></g></g></g></svg>