<?xml version="1.0" encoding="UTF-8" standalone="no"?>
<!-- Created with Inkscape (http://www.inkscape.org/) -->

<svg
   xmlns:dc="http://purl.org/dc/elements/1.1/"
   xmlns:cc="http://creativecommons.org/ns#"
   xmlns:rdf="http://www.w3.org/1999/02/22-rdf-syntax-ns#"
   xmlns:svg="http://www.w3.org/2000/svg"
   xmlns="http://www.w3.org/2000/svg"
   xmlns:sodipodi="http://sodipodi.sourceforge.net/DTD/sodipodi-0.dtd"
   xmlns:inkscape="http://www.inkscape.org/namespaces/inkscape"
   id="svg4607"
   version="1.1"
   inkscape:version="0.91 r13725"
   xml:space="preserve"
   width="414.34186"
   height="255.99722"
   viewBox="0 0 414.34186 255.99722"
   sodipodi:docname="sketch_info_per_sample_corr.svg"><metadata
     id="metadata4613"><rdf:RDF><cc:Work
         rdf:about=""><dc:format>image/svg+xml</dc:format><dc:type
           rdf:resource="http://purl.org/dc/dcmitype/StillImage" /><dc:title></dc:title></cc:Work></rdf:RDF></metadata><defs
     id="defs4611"><clipPath
       clipPathUnits="userSpaceOnUse"
       id="clipPath4625"><path
         d="m 34.110254,34.087755 281.196846,0 0,136.062995 -281.196846,0 0,-136.062995 z"
         id="path4627"
         inkscape:connector-curvature="0" /></clipPath><clipPath
       clipPathUnits="userSpaceOnUse"
       id="clipPath4635"><path
         d="m 34.110254,34.087755 281.196846,0 0,136.062995 -281.196846,0 0,-136.062995 z"
         id="path4637"
         inkscape:connector-curvature="0" /></clipPath><clipPath
       clipPathUnits="userSpaceOnUse"
       id="clipPath4645"><path
         d="m 34.110254,34.087755 281.196846,0 0,136.062995 -281.196846,0 0,-136.062995 z"
         id="path4647"
         inkscape:connector-curvature="0" /></clipPath><clipPath
       clipPathUnits="userSpaceOnUse"
       id="clipPath4655"><path
         d="m 34.110254,34.087755 281.196846,0 0,136.062995 -281.196846,0 0,-136.062995 z"
         id="path4657"
         inkscape:connector-curvature="0" /></clipPath><clipPath
       clipPathUnits="userSpaceOnUse"
       id="clipPath4665"><path
         d="m 34.110254,34.087755 281.196846,0 0,136.062995 -281.196846,0 0,-136.062995 z"
         id="path4667"
         inkscape:connector-curvature="0" /></clipPath><clipPath
       clipPathUnits="userSpaceOnUse"
       id="clipPath4675"><path
         d="m 34.110254,34.087755 281.196846,0 0,136.062995 -281.196846,0 0,-136.062995 z"
         id="path4677"
         inkscape:connector-curvature="0" /></clipPath></defs><sodipodi:namedview
     pagecolor="#ffffff"
     bordercolor="#666666"
     borderopacity="1"
     objecttolerance="10"
     gridtolerance="10"
     guidetolerance="10"
     inkscape:pageopacity="0"
     inkscape:pageshadow="2"
     inkscape:window-width="2560"
     inkscape:window-height="1376"
     id="namedview4609"
     showgrid="false"
     inkscape:zoom="2.6074845"
     inkscape:cx="277.64566"
     inkscape:cy="104.11505"
     inkscape:window-x="0"
     inkscape:window-y="27"
     inkscape:window-maximized="1"
     inkscape:current-layer="g4615" /><g
     id="g4615"
     inkscape:groupmode="layer"
     inkscape:label="sketch_info_per_sample"
     transform="matrix(1.25,0,0,-1.25,0,255.99722)"><path
       d="m 36.643558,34.087746 2.814784,0 2.814783,0 2.814783,0 2.814784,0 2.814783,0 2.814783,0 2.814784,0 2.814783,3.023624 2.814783,0 2.814783,0 2.814784,1.511816 2.814783,1.511808 2.814783,3.023624 2.814784,1.511808 2.814783,3.023624 2.814783,0 2.814783,4.535432 2.814784,1.511808 2.814783,3.023624 2.814783,3.023624 2.814784,7.55906 2.814783,3.02361 2.814779,1.51182 2.81479,6.04724 2.81478,4.53544 2.81478,1.51181 2.81479,3.02362 2.81478,6.04724 2.81478,4.53543 2.81479,3.023632 2.81478,7.55906 2.81478,0 2.81479,3.02362 2.81478,6.04724 2.81478,3.02362 2.81478,4.53544 2.81479,1.51181 2.81477,4.53543 2.8148,3.02362 2.81478,3.02362 2.81478,0 2.81479,1.51182 2.81477,3.02362 2.81479,4.53543 2.81479,1.51181 2.81478,4.53543 2.81478,0 2.81478,1.51182 2.81479,1.51181 2.81477,3.02362 2.8148,0 2.81478,1.51181 2.81478,1.51181 2.81479,0 2.81477,0 2.81479,0 2.81479,0 2.81478,0 2.81478,3.02362 2.81478,1.51181 2.81479,0 2.81477,1.51181 2.8148,0 2.81478,0 2.81478,0 2.81479,0 2.81477,0 2.81479,0 2.81479,0 2.81478,0 2.81478,0 2.81478,0 2.81479,0 2.81477,0 2.8148,0 2.81478,0 2.81478,0 2.81478,0 2.81478,0 2.81479,0 2.81477,0 2.8148,0 2.81478,0 2.81478,0 2.81479,0 2.81477,0 2.81479,0 2.81479,0 2.81478,0 2.81478,0 2.81478,0 2.81479,0 2.81477,0 2.8148,0 2.81478,0 2.81478,0 2.81479,0 5.63126,0 -0.002,-3.02362 0.002,-3.02362 -5.63126,0 -2.81479,0 -2.81478,0 -2.81478,0 -2.8148,0 -2.81477,0 -2.81479,0 -2.81478,-1.51181 -2.81478,-1.51181 -2.81478,0 -2.81479,0 -2.81479,0 -2.81477,0 -2.81479,0 -2.81478,0 -2.81478,-3.02362 -2.8148,0 -2.81477,0 -2.81479,0 -2.81478,-1.51181 -2.81478,0 -2.81478,0 -2.81478,0 -2.8148,0 -2.81477,0 -2.81479,0 -2.81478,0 -2.81478,-3.02363 -2.81478,0 -2.81479,0 -2.81479,-1.51181 -2.81477,-1.51181 -2.81479,-1.51181 -2.81478,-4.53543 -2.81478,0 -2.8148,0 -2.81477,-3.02362 -2.81479,-1.51182 -2.81478,-1.51181 -2.81478,0 -2.81478,0 -2.81479,0 -2.81479,-1.51181 -2.81477,0 -2.81479,-3.02362 -2.81478,0 -2.81478,-1.51181 -2.8148,-1.51181 -2.81477,-3.02362 -2.81479,-4.53544 -2.81478,0 -2.81478,-1.51181 -2.81478,-6.04724 -2.81479,-3.02362 -2.81479,-3.02363 -2.81477,-3.02362 -2.81479,-3.02362 -2.81478,-1.511822 -2.81478,-7.55905 -2.8148,-3.02362 -2.81477,0 -2.81479,-4.53543 -2.81478,-4.53544 -2.81478,0 -2.81478,-4.53543 -2.81479,-4.53544 -2.81478,-1.51181 -2.81478,-1.5118 -2.81479,-4.53544 -2.81478,-6.047244 -2.81478,-6.04724 -2.81479,-1.511816 -2.81478,-1.511808 -2.81478,-1.511816 -2.81479,0 -2.814779,-1.511808 -2.814783,-3.023624 -2.814784,-3.023616 -2.814783,-1.511816 -2.814783,0 -2.814784,-3.023624 -2.814783,0 -2.814783,0 -2.814783,0 -2.814784,0 -2.814783,0 -2.814783,0 -2.814784,0 -2.814783,0 -2.814783,0 -2.814783,0 -2.814784,0 -2.814783,0 -2.814783,0 -2.814784,0 -2.814783,0 -2.814783,0 -2.814784,0 -2.533304,0 z"
       style="fill:#cbdaef;stroke:none;stroke-width:0.24959999;stroke-linecap:butt;stroke-linejoin:round;stroke-miterlimit:10;stroke-dasharray:none;stroke-dashoffset:0;stroke-opacity:1;fill-opacity:1"
       id="path4659-0"
       inkscape:connector-curvature="0"
       sodipodi:nodetypes="ccccccccccccccccccccccccccccccccccccccccccccccccccccccccccccccccccccccccccccccccccccccccccccccccccccccccccccccccccccccccccccccccccccccccccccccccccccccccccccccccccccccccccccccccccccccccccccccccccccccccc" /><g
       id="g4621"><g
         id="g4623"
         clip-path="url(#clipPath4625)"><path
           d="m 34.110254,89.946603 2.533304,0 2.814784,0 2.814783,0 2.814783,0 2.814784,0 2.814783,0 2.814783,0 2.814784,0 2.814783,-0.251995 2.814783,-0.489137 2.814783,-0.856126 2.814784,-0.879928 2.814783,-1.201174 2.814783,-2.153738 2.814784,-1.752533 2.814783,-2.595388 2.814783,-2.446466 2.814783,-2.402388 2.814784,-2.671235 2.814783,-2.59809 2.814783,-2.637748 2.814784,-2.43192 2.814783,-2.589862 2.814779,-2.063685 2.81479,-1.780513 2.81478,-1.903988 2.81478,-1.428185 2.81479,-1.44905 2.81478,-1.1744 2.81478,-1.25461 2.81479,-1.04197 2.81478,-0.970694 2.81478,-1.183098 2.81479,-0.88614 2.81478,-0.785913 2.81478,-0.891988 2.81479,-0.992874 2.81478,-0.651017 2.81478,-0.480274 2.81479,-0.465322 2.81478,-0.58375 2.81478,-0.366604 2.81479,-0.601286 2.81478,-0.708792 2.81478,-0.43534 2.81479,-0.517177 2.81478,-0.391893 2.81478,-0.295785 2.81479,-0.357731 2.81478,-0.304413 2.81478,-0.230699 2.81479,-0.230857 2.81478,-0.266923 2.81478,-0.158931 2.81479,-0.210293 2.81478,-0.239091 2.81478,-0.139931 2.81479,-0.12247 2.81478,-0.128031 2.81478,-0.171852 2.81479,-0.110073 2.81478,-0.109492 2.81478,-0.196925 2.81479,-0.135048 2.81478,-0.132653 2.81478,-0.173923 2.81479,-0.04753 2.81478,-0.0813 2.81478,-0.106795 2.81479,-0.01751 2.81478,-0.0648 2.81478,-0.07974 2.81479,-0.08266 2.81478,7.9e-4 2.81478,-0.03033 2.81479,-0.03135 2.81478,-0.114051 2.81478,-0.04793 2.81478,-0.04797 2.81479,-0.04741 2.81478,-0.01505 2.81478,-0.01577 2.81479,-0.03201 2.81478,-0.03051 2.81478,1.2e-5 2.81479,5e-6 2.81478,-0.01502 2.81478,-0.01551 2.81479,-7.21e-4 2.81478,-0.04753 2.81478,-0.03221 2.81479,-0.03123 2.81478,-7.24e-4 2.81478,-0.01509 2.81479,-3.41e-4 2.81478,-1.36e-4 2.81478,6.2e-5 2.81479,2.61e-4 2.81478,-5.19e-4 2.81478,-1.26e-4"
           style="fill:none;stroke:#000000;stroke-width:0.75;stroke-linecap:square;stroke-linejoin:round;stroke-miterlimit:10;stroke-dasharray:none;stroke-opacity:1"
           id="path4629"
           inkscape:connector-curvature="0" /></g></g><g
       id="g4631"><g
         id="g4633"
         clip-path="url(#clipPath4635)"><path
           d="m 34.110254,34.087755 2.533304,0 2.814784,0 2.814783,0 2.814783,0 2.814784,0 2.814783,0 2.814783,0 2.814784,0 2.814783,0.08399 2.814783,0.157901 2.814783,0.280372 2.814784,0.321832 2.814783,0.458389 2.814783,0.857247 2.814784,0.843734 2.814783,1.342993 2.814783,1.460676 2.814783,1.726725 2.814784,2.093991 2.814783,2.481757 2.814783,2.972509 2.814784,3.155823 2.814783,3.880514 2.814779,3.494146 2.81479,3.438363 2.81478,4.011183 2.81478,3.344505 2.81479,3.645544 2.81478,3.190815 2.81478,3.668488 2.81479,3.270876 2.81478,3.222352 2.81478,4.163207 2.81479,3.304695 2.81478,3.068341 2.81478,3.695777 2.81479,4.30503 2.81478,2.97642 2.81478,2.2772 2.81479,2.23516 2.81478,2.88202 2.81478,1.9025 2.81479,3.17815 2.81478,3.87549 2.81478,2.46693 2.81479,2.98739 2.81478,2.32954 2.81478,1.79782 2.81479,2.21501 2.81478,1.92382 2.81478,1.46599 2.81479,1.491 2.81478,1.75422 2.81478,1.05932 2.81479,1.41937 2.81478,1.62785 2.81478,0.95805 2.81479,0.85203 2.81478,0.89745 2.81478,1.21526 2.81479,0.78383 2.81478,0.78536 2.81478,1.42275 2.81479,0.98381 2.81478,0.97911 2.81478,1.28388 2.81479,0.352 2.81478,0.60622 2.81478,0.80118 2.81479,0.13252 2.81478,0.49078 2.81478,0.60733 2.81479,0.6321 2.81478,-0.006 2.81478,0.23399 2.81479,0.24175 2.81478,0.87947 2.81478,0.37237 2.81478,0.37251 2.81479,0.36886 2.81478,0.11712 2.81478,0.12348 2.81479,0.24983 2.81478,0.23668 2.81478,-1.1e-4 2.81479,-1e-4 2.81478,0.11806 2.81478,0.12225 2.81479,0.006 2.81478,0.37512 2.81478,0.25391 2.81479,0.24674 2.81478,0.006 2.81478,0.11979 2.81479,0.003 2.81478,0.001 2.81478,-5.2e-4 2.81479,-0.002 2.81478,0.004 2.81478,9.9e-4"
           style="fill:none;stroke:#3465a4;stroke-width:0.75040002;stroke-linecap:butt;stroke-linejoin:round;stroke-miterlimit:10;stroke-dasharray:3.00160007,3.00160007;stroke-dashoffset:0;stroke-opacity:1"
           id="path4639"
           inkscape:connector-curvature="0" /></g></g><g
       id="g4641"><g
         id="g4643"
         clip-path="url(#clipPath4645)"><path
           d="m 34.110254,34.087755 2.533304,0 2.814784,0 2.814783,0 2.814783,0 2.814784,0 2.814783,0 2.814783,0 2.814784,0 2.814783,0 2.814783,0 2.814783,0 2.814784,0 2.814783,0 2.814783,0 2.814784,0 2.814783,0 2.814783,0 2.814783,0 2.814784,3.023622 2.814783,0 2.814783,1.511811 2.814784,3.023622 2.814783,3.023622 2.814779,1.511811 2.81479,0 2.81478,1.511811 2.81478,1.511811 2.81479,1.511811 2.81478,6.047244 2.81478,6.047244 2.81479,4.535433 2.81478,1.511811 2.81478,1.511811 2.81479,4.535434 2.81478,4.535433 2.81478,0 2.81479,4.535433 2.81478,4.535433 2.81478,0 2.81479,3.023622 2.81478,7.559055 2.81478,1.511811 2.81479,3.02362 2.81478,3.02362 2.81478,3.02363 2.81479,3.02362 2.81478,6.04724 2.81478,1.51181 2.81479,0 2.81478,4.53544 2.81478,3.02362 2.81479,1.51181 2.81478,1.51181 2.81478,0 2.81479,3.02362 2.81478,0 2.81478,1.51181 2.81479,0 2.81478,0 2.81478,0 2.81479,1.51181 2.81478,1.51182 2.81478,3.02362 2.81479,0 2.81478,0 2.81478,4.53543 2.81479,1.51181 2.81478,1.51181 2.81478,1.51181 2.81479,0 2.81478,0 2.81478,3.02363 2.81479,0 2.81478,0 2.81478,0 2.81479,0 2.81478,0 2.81478,0 2.81478,0 2.81479,1.51181 2.81478,0 2.81478,0 2.81479,0 2.81478,3.02362 2.81478,0 2.81479,0 2.81478,0 2.81478,0 2.81479,0 2.81478,0 2.81478,1.51181 2.81479,1.51181 2.81478,0 2.81478,0 2.81479,0 2.81478,0 2.81478,0 2.81479,0 2.81478,0 2.81478,0"
           style="fill:none;stroke:#3465a4;stroke-width:0.25;stroke-linecap:butt;stroke-linejoin:round;stroke-miterlimit:10;stroke-dasharray:1, 3;stroke-dashoffset:0;stroke-opacity:1"
           id="path4649"
           inkscape:connector-curvature="0" /></g></g><g
       id="g4651"><g
         id="g4653"
         clip-path="url(#clipPath4655)"><path
           d="m 34.110254,34.087755 2.533304,0 2.814784,0 2.814783,0 2.814783,0 2.814784,0 2.814783,0 2.814783,0 2.814784,0 2.814783,3.023622 2.814783,0 2.814783,0 2.814784,1.511811 2.814783,1.511811 2.814783,3.023622 2.814784,1.511811 2.814783,3.023622 2.814783,0 2.814783,4.535433 2.814784,1.511811 2.814783,3.023622 2.814783,3.023622 2.814784,7.559055 2.814783,3.023622 2.814779,1.511811 2.81479,6.047245 2.81478,4.535433 2.81478,1.511811 2.81479,3.023622 2.81478,6.047244 2.81478,4.535433 2.81479,3.023622 2.81478,7.55906 2.81478,0 2.81479,3.02362 2.81478,6.04724 2.81478,3.02362 2.81479,4.53544 2.81478,1.51181 2.81478,4.53543 2.81479,3.02362 2.81478,3.02362 2.81478,0 2.81479,1.51182 2.81478,3.02362 2.81478,4.53543 2.81479,1.51181 2.81478,4.53543 2.81478,0 2.81479,1.51182 2.81478,1.51181 2.81478,3.02362 2.81479,0 2.81478,1.51181 2.81478,1.51181 2.81479,0 2.81478,0 2.81478,0 2.81479,0 2.81478,0 2.81478,3.02362 2.81479,1.51181 2.81478,0 2.81478,1.51181 2.81479,0 2.81478,0 2.81478,0 2.81479,0 2.81478,0 2.81478,0 2.81479,0 2.81478,0 2.81478,0 2.81479,0 2.81478,0 2.81478,0 2.81479,0 2.81478,0 2.81478,0 2.81478,0 2.81479,0 2.81478,0 2.81478,0 2.81479,0 2.81478,0 2.81478,0 2.81479,0 2.81478,0 2.81478,0 2.81479,0 2.81478,0 2.81478,0 2.81479,0 2.81478,0 2.81478,0 2.81479,0 2.81478,0 2.81478,0 2.81479,0 2.81478,0 2.81478,0"
           style="fill:none;stroke:#3465a4;stroke-width:0.25;stroke-linecap:butt;stroke-linejoin:round;stroke-miterlimit:10;stroke-dasharray:1, 3;stroke-dashoffset:0;stroke-opacity:1"
           id="path4659"
           inkscape:connector-curvature="0" /></g></g><g
       id="g4661"><g
         id="g4663"
         clip-path="url(#clipPath4665)"><path
           d="m 33.828775,167.12712 281.478325,0"
           style="fill:none;stroke:#3465a4;stroke-width:0.5;stroke-linecap:butt;stroke-linejoin:round;stroke-miterlimit:10;stroke-dasharray:6, 6;stroke-dashoffset:0;stroke-opacity:1"
           id="path4669"
           inkscape:connector-curvature="0" /></g></g><g
       id="g4671"><g
         id="g4673"
         clip-path="url(#clipPath4675)"><path
           d="m 33.828775,89.946603 281.478325,0"
           style="fill:none;stroke:#000000;stroke-width:0.5;stroke-linecap:square;stroke-linejoin:round;stroke-miterlimit:10;stroke-dasharray:none;stroke-opacity:1"
           id="path4679"
           inkscape:connector-curvature="0" /></g></g><g
       id="g4681"><path
         d="m 34.110254,170.15075 281.196846,0"
         style="fill:none;stroke:#000000;stroke-width:0.25;stroke-linecap:square;stroke-linejoin:miter;stroke-miterlimit:10;stroke-dasharray:none;stroke-opacity:1"
         id="path4683"
         inkscape:connector-curvature="0" /><path
         d="m 315.3071,34.087755 0,136.062995"
         style="fill:none;stroke:#000000;stroke-width:0.25;stroke-linecap:square;stroke-linejoin:miter;stroke-miterlimit:10;stroke-dasharray:none;stroke-opacity:1"
         id="path4685"
         inkscape:connector-curvature="0" /><path
         d="m 34.110254,34.087755 281.196846,0"
         style="fill:none;stroke:#000000;stroke-width:0.25;stroke-linecap:square;stroke-linejoin:miter;stroke-miterlimit:10;stroke-dasharray:none;stroke-opacity:1"
         id="path4687"
         inkscape:connector-curvature="0" /><path
         d="m 34.110254,34.087755 0,136.062995"
         style="fill:none;stroke:#000000;stroke-width:0.25;stroke-linecap:square;stroke-linejoin:miter;stroke-miterlimit:10;stroke-dasharray:none;stroke-opacity:1"
         id="path4689"
         inkscape:connector-curvature="0" /><text
         transform="matrix(1,0,0,-1,31.587181,23.672344)"
         style="font-variant:normal;font-size:8.9663763px;font-family:'URW Palladio L';-inkscape-font-specification:URWPalladioL-Roma;writing-mode:lr-tb;fill:#000000;fill-opacity:1;fill-rule:nonzero;stroke:none"
         id="text4691"><tspan
           x="0"
           y="0"
           id="tspan4693">0</tspan></text>
<path
         d="m 90.124441,34.087755 0,4"
         style="fill:#000000;fill-opacity:1;fill-rule:nonzero;stroke:#000000;stroke-width:0.5;stroke-linecap:butt;stroke-linejoin:round;stroke-miterlimit:10;stroke-dasharray:none;stroke-opacity:1"
         id="path4695"
         inkscape:connector-curvature="0" /><path
         d="m 90.124441,170.15075 0,-4"
         style="fill:#000000;fill-opacity:1;fill-rule:nonzero;stroke:#000000;stroke-width:0.5;stroke-linecap:butt;stroke-linejoin:round;stroke-miterlimit:10;stroke-dasharray:none;stroke-opacity:1"
         id="path4697"
         inkscape:connector-curvature="0" /><text
         transform="matrix(1,0,0,-1,83.399659,23.672344)"
         style="font-variant:normal;font-size:8.9663763px;font-family:'URW Palladio L';-inkscape-font-specification:URWPalladioL-Roma;writing-mode:lr-tb;fill:#000000;fill-opacity:1;fill-rule:nonzero;stroke:none"
         id="text4699"><tspan
           x="0 4.4831882 8.9663763"
           y="0"
           sodipodi:role="line"
           id="tspan4701">200</tspan></text>
<path
         d="m 146.42011,34.087755 0,4"
         style="fill:#000000;fill-opacity:1;fill-rule:nonzero;stroke:#000000;stroke-width:0.5;stroke-linecap:butt;stroke-linejoin:round;stroke-miterlimit:10;stroke-dasharray:none;stroke-opacity:1"
         id="path4703"
         inkscape:connector-curvature="0" /><path
         d="m 146.42011,170.15075 0,-4"
         style="fill:#000000;fill-opacity:1;fill-rule:nonzero;stroke:#000000;stroke-width:0.5;stroke-linecap:butt;stroke-linejoin:round;stroke-miterlimit:10;stroke-dasharray:none;stroke-opacity:1"
         id="path4705"
         inkscape:connector-curvature="0" /><text
         transform="matrix(1,0,0,-1,139.69532,23.672344)"
         style="font-variant:normal;font-size:8.9663763px;font-family:'URW Palladio L';-inkscape-font-specification:URWPalladioL-Roma;writing-mode:lr-tb;fill:#000000;fill-opacity:1;fill-rule:nonzero;stroke:none"
         id="text4707"><tspan
           x="0 4.4831882 8.9663763"
           y="0"
           sodipodi:role="line"
           id="tspan4709">400</tspan></text>
<path
         d="m 202.71577,34.087755 0,4"
         style="fill:#000000;fill-opacity:1;fill-rule:nonzero;stroke:#000000;stroke-width:0.5;stroke-linecap:butt;stroke-linejoin:round;stroke-miterlimit:10;stroke-dasharray:none;stroke-opacity:1"
         id="path4711"
         inkscape:connector-curvature="0" /><path
         d="m 202.71577,170.15075 0,-4"
         style="fill:#000000;fill-opacity:1;fill-rule:nonzero;stroke:#000000;stroke-width:0.5;stroke-linecap:butt;stroke-linejoin:round;stroke-miterlimit:10;stroke-dasharray:none;stroke-opacity:1"
         id="path4713"
         inkscape:connector-curvature="0" /><text
         transform="matrix(1,0,0,-1,195.99099,23.672344)"
         style="font-variant:normal;font-size:8.9663763px;font-family:'URW Palladio L';-inkscape-font-specification:URWPalladioL-Roma;writing-mode:lr-tb;fill:#000000;fill-opacity:1;fill-rule:nonzero;stroke:none"
         id="text4715"><tspan
           x="0 4.4831882 8.9663763"
           y="0"
           sodipodi:role="line"
           id="tspan4717">600</tspan></text>
<path
         d="m 259.01144,34.087755 0,4"
         style="fill:#000000;fill-opacity:1;fill-rule:nonzero;stroke:#000000;stroke-width:0.5;stroke-linecap:butt;stroke-linejoin:round;stroke-miterlimit:10;stroke-dasharray:none;stroke-opacity:1"
         id="path4719"
         inkscape:connector-curvature="0" /><path
         d="m 259.01144,170.15075 0,-4"
         style="fill:#000000;fill-opacity:1;fill-rule:nonzero;stroke:#000000;stroke-width:0.5;stroke-linecap:butt;stroke-linejoin:round;stroke-miterlimit:10;stroke-dasharray:none;stroke-opacity:1"
         id="path4721"
         inkscape:connector-curvature="0" /><text
         transform="matrix(1,0,0,-1,252.28666,23.672344)"
         style="font-variant:normal;font-size:8.9663763px;font-family:'URW Palladio L';-inkscape-font-specification:URWPalladioL-Roma;writing-mode:lr-tb;fill:#000000;fill-opacity:1;fill-rule:nonzero;stroke:none"
         id="text4723"><tspan
           x="0 4.4831882 8.9663763"
           y="0"
           sodipodi:role="line"
           id="tspan4725">800</tspan></text>
<path
         d="m 315.3071,34.087755 0,4"
         style="fill:#000000;fill-opacity:1;fill-rule:nonzero;stroke:#000000;stroke-width:0.5;stroke-linecap:butt;stroke-linejoin:round;stroke-miterlimit:10;stroke-dasharray:none;stroke-opacity:1"
         id="path4727"
         inkscape:connector-curvature="0" /><path
         d="m 315.3071,170.15075 0,-4"
         style="fill:#000000;fill-opacity:1;fill-rule:nonzero;stroke:#000000;stroke-width:0.5;stroke-linecap:butt;stroke-linejoin:round;stroke-miterlimit:10;stroke-dasharray:none;stroke-opacity:1"
         id="path4729"
         inkscape:connector-curvature="0" /><text
         transform="matrix(1,0,0,-1,306.34073,23.672344)"
         style="font-variant:normal;font-size:8.9663763px;font-family:'URW Palladio L';-inkscape-font-specification:URWPalladioL-Roma;writing-mode:lr-tb;fill:#000000;fill-opacity:1;fill-rule:nonzero;stroke:none"
         id="text4731"><tspan
           x="0 4.4831882 8.9663763 13.449564"
           y="0"
           sodipodi:role="line"
           id="tspan4733">1000</tspan></text>
<text
         transform="matrix(1,0,0,-1,142.85377,9.7284669)"
         style="font-variant:normal;font-size:8.9663763px;font-family:'URW Palladio L';-inkscape-font-specification:URWPalladioL-Roma;writing-mode:lr-tb;fill:#000000;fill-opacity:1;fill-rule:nonzero;stroke:none"
         id="text4735"><tspan
           x="0 4.6983809 9.1815691 17.089912 22.469738 25.069988 31.597509 35.569614 40.456287 45.854046 51.063511"
           y="0"
           sodipodi:role="line"
           id="tspan4737">Samplecount</tspan></text>
<text
         transform="matrix(1,0,0,-1,199.58784,9.7284669)"
         style="font-style:italic;font-variant:normal;font-size:8.9663763px;font-family:'URW Palladio L';-inkscape-font-specification:URWPalladioL-Ital;writing-mode:lr-tb;fill:#000000;fill-opacity:1;fill-rule:nonzero;stroke:none"
         id="text4739"><tspan
           x="0"
           y="0"
           id="tspan4741">N</tspan></text>
<path
         d="m 34.110254,34.087755 4,0"
         style="fill:#000000;fill-opacity:1;fill-rule:nonzero;stroke:#000000;stroke-width:0.5;stroke-linecap:butt;stroke-linejoin:round;stroke-miterlimit:10;stroke-dasharray:none;stroke-opacity:1"
         id="path4743"
         inkscape:connector-curvature="0" /><path
         d="m 315.3071,34.087755 -4,0"
         style="fill:#000000;fill-opacity:1;fill-rule:nonzero;stroke:#000000;stroke-width:0.5;stroke-linecap:butt;stroke-linejoin:round;stroke-miterlimit:10;stroke-dasharray:none;stroke-opacity:1"
         id="path4745"
         inkscape:connector-curvature="0" /><text
         transform="matrix(1,0,0,-1,25.627065,32.144283)"
         style="font-variant:normal;font-size:8.9663763px;font-family:'URW Palladio L';-inkscape-font-specification:URWPalladioL-Roma;writing-mode:lr-tb;fill:#000000;fill-opacity:1;fill-rule:nonzero;stroke:none"
         id="text4747"><tspan
           x="0"
           y="0"
           id="tspan4749">0</tspan></text>
<path
         d="m 34.110254,49.205865 4,0"
         style="fill:#000000;fill-opacity:1;fill-rule:nonzero;stroke:#000000;stroke-width:0.5;stroke-linecap:butt;stroke-linejoin:round;stroke-miterlimit:10;stroke-dasharray:none;stroke-opacity:1"
         id="path4751"
         inkscape:connector-curvature="0" /><path
         d="m 315.3071,49.205865 -4,0"
         style="fill:#000000;fill-opacity:1;fill-rule:nonzero;stroke:#000000;stroke-width:0.5;stroke-linecap:butt;stroke-linejoin:round;stroke-miterlimit:10;stroke-dasharray:none;stroke-opacity:1"
         id="path4753"
         inkscape:connector-curvature="0" /><text
         transform="matrix(1,0,0,-1,21.143877,47.262393)"
         style="font-variant:normal;font-size:8.9663763px;font-family:'URW Palladio L';-inkscape-font-specification:URWPalladioL-Roma;writing-mode:lr-tb;fill:#000000;fill-opacity:1;fill-rule:nonzero;stroke:none"
         id="text4755"><tspan
           x="0 4.4831882"
           y="0"
           sodipodi:role="line"
           id="tspan4757">10</tspan></text>
<path
         d="m 34.110254,64.323975 4,0"
         style="fill:#000000;fill-opacity:1;fill-rule:nonzero;stroke:#000000;stroke-width:0.5;stroke-linecap:butt;stroke-linejoin:round;stroke-miterlimit:10;stroke-dasharray:none;stroke-opacity:1"
         id="path4759"
         inkscape:connector-curvature="0" /><path
         d="m 315.3071,64.323975 -4,0"
         style="fill:#000000;fill-opacity:1;fill-rule:nonzero;stroke:#000000;stroke-width:0.5;stroke-linecap:butt;stroke-linejoin:round;stroke-miterlimit:10;stroke-dasharray:none;stroke-opacity:1"
         id="path4761"
         inkscape:connector-curvature="0" /><text
         transform="matrix(1,0,0,-1,21.143877,62.380504)"
         style="font-variant:normal;font-size:8.9663763px;font-family:'URW Palladio L';-inkscape-font-specification:URWPalladioL-Roma;writing-mode:lr-tb;fill:#000000;fill-opacity:1;fill-rule:nonzero;stroke:none"
         id="text4763"><tspan
           x="0 4.4831882"
           y="0"
           sodipodi:role="line"
           id="tspan4765">20</tspan></text>
<path
         d="m 34.110254,79.442086 4,0"
         style="fill:#000000;fill-opacity:1;fill-rule:nonzero;stroke:#000000;stroke-width:0.5;stroke-linecap:butt;stroke-linejoin:round;stroke-miterlimit:10;stroke-dasharray:none;stroke-opacity:1"
         id="path4767"
         inkscape:connector-curvature="0" /><path
         d="m 315.3071,79.442086 -4,0"
         style="fill:#000000;fill-opacity:1;fill-rule:nonzero;stroke:#000000;stroke-width:0.5;stroke-linecap:butt;stroke-linejoin:round;stroke-miterlimit:10;stroke-dasharray:none;stroke-opacity:1"
         id="path4769"
         inkscape:connector-curvature="0" /><text
         transform="matrix(1,0,0,-1,21.143877,77.498614)"
         style="font-variant:normal;font-size:8.9663763px;font-family:'URW Palladio L';-inkscape-font-specification:URWPalladioL-Roma;writing-mode:lr-tb;fill:#000000;fill-opacity:1;fill-rule:nonzero;stroke:none"
         id="text4771"><tspan
           x="0 4.4831882"
           y="0"
           sodipodi:role="line"
           id="tspan4773">30</tspan></text>
<path
         d="m 34.110254,94.560196 4,0"
         style="fill:#000000;fill-opacity:1;fill-rule:nonzero;stroke:#000000;stroke-width:0.5;stroke-linecap:butt;stroke-linejoin:round;stroke-miterlimit:10;stroke-dasharray:none;stroke-opacity:1"
         id="path4775"
         inkscape:connector-curvature="0" /><path
         d="m 315.3071,94.560196 -4,0"
         style="fill:#000000;fill-opacity:1;fill-rule:nonzero;stroke:#000000;stroke-width:0.5;stroke-linecap:butt;stroke-linejoin:round;stroke-miterlimit:10;stroke-dasharray:none;stroke-opacity:1"
         id="path4777"
         inkscape:connector-curvature="0" /><text
         transform="matrix(1,0,0,-1,21.143877,92.616724)"
         style="font-variant:normal;font-size:8.9663763px;font-family:'URW Palladio L';-inkscape-font-specification:URWPalladioL-Roma;writing-mode:lr-tb;fill:#000000;fill-opacity:1;fill-rule:nonzero;stroke:none"
         id="text4779"><tspan
           x="0 4.4831882"
           y="0"
           sodipodi:role="line"
           id="tspan4781">40</tspan></text>
<path
         d="m 34.110254,109.67831 4,0"
         style="fill:#000000;fill-opacity:1;fill-rule:nonzero;stroke:#000000;stroke-width:0.5;stroke-linecap:butt;stroke-linejoin:round;stroke-miterlimit:10;stroke-dasharray:none;stroke-opacity:1"
         id="path4783"
         inkscape:connector-curvature="0" /><path
         d="m 315.3071,109.67831 -4,0"
         style="fill:#000000;fill-opacity:1;fill-rule:nonzero;stroke:#000000;stroke-width:0.5;stroke-linecap:butt;stroke-linejoin:round;stroke-miterlimit:10;stroke-dasharray:none;stroke-opacity:1"
         id="path4785"
         inkscape:connector-curvature="0" /><text
         transform="matrix(1,0,0,-1,21.143877,107.73483)"
         style="font-variant:normal;font-size:8.9663763px;font-family:'URW Palladio L';-inkscape-font-specification:URWPalladioL-Roma;writing-mode:lr-tb;fill:#000000;fill-opacity:1;fill-rule:nonzero;stroke:none"
         id="text4787"><tspan
           x="0 4.4831882"
           y="0"
           sodipodi:role="line"
           id="tspan4789">50</tspan></text>
<path
         d="m 34.110254,124.79642 4,0"
         style="fill:#000000;fill-opacity:1;fill-rule:nonzero;stroke:#000000;stroke-width:0.5;stroke-linecap:butt;stroke-linejoin:round;stroke-miterlimit:10;stroke-dasharray:none;stroke-opacity:1"
         id="path4791"
         inkscape:connector-curvature="0" /><path
         d="m 315.3071,124.79642 -4,0"
         style="fill:#000000;fill-opacity:1;fill-rule:nonzero;stroke:#000000;stroke-width:0.5;stroke-linecap:butt;stroke-linejoin:round;stroke-miterlimit:10;stroke-dasharray:none;stroke-opacity:1"
         id="path4793"
         inkscape:connector-curvature="0" /><text
         transform="matrix(1,0,0,-1,21.143877,122.85294)"
         style="font-variant:normal;font-size:8.9663763px;font-family:'URW Palladio L';-inkscape-font-specification:URWPalladioL-Roma;writing-mode:lr-tb;fill:#000000;fill-opacity:1;fill-rule:nonzero;stroke:none"
         id="text4795"><tspan
           x="0 4.4831882"
           y="0"
           sodipodi:role="line"
           id="tspan4797">60</tspan></text>
<path
         d="m 34.110254,139.91453 4,0"
         style="fill:#000000;fill-opacity:1;fill-rule:nonzero;stroke:#000000;stroke-width:0.5;stroke-linecap:butt;stroke-linejoin:round;stroke-miterlimit:10;stroke-dasharray:none;stroke-opacity:1"
         id="path4799"
         inkscape:connector-curvature="0" /><path
         d="m 315.3071,139.91453 -4,0"
         style="fill:#000000;fill-opacity:1;fill-rule:nonzero;stroke:#000000;stroke-width:0.5;stroke-linecap:butt;stroke-linejoin:round;stroke-miterlimit:10;stroke-dasharray:none;stroke-opacity:1"
         id="path4801"
         inkscape:connector-curvature="0" /><text
         transform="matrix(1,0,0,-1,21.143877,137.97105)"
         style="font-variant:normal;font-size:8.9663763px;font-family:'URW Palladio L';-inkscape-font-specification:URWPalladioL-Roma;writing-mode:lr-tb;fill:#000000;fill-opacity:1;fill-rule:nonzero;stroke:none"
         id="text4803"><tspan
           x="0 4.4831882"
           y="0"
           sodipodi:role="line"
           id="tspan4805">70</tspan></text>
<path
         d="m 34.110254,155.03264 4,0"
         style="fill:#000000;fill-opacity:1;fill-rule:nonzero;stroke:#000000;stroke-width:0.5;stroke-linecap:butt;stroke-linejoin:round;stroke-miterlimit:10;stroke-dasharray:none;stroke-opacity:1"
         id="path4807"
         inkscape:connector-curvature="0" /><path
         d="m 315.3071,155.03264 -4,0"
         style="fill:#000000;fill-opacity:1;fill-rule:nonzero;stroke:#000000;stroke-width:0.5;stroke-linecap:butt;stroke-linejoin:round;stroke-miterlimit:10;stroke-dasharray:none;stroke-opacity:1"
         id="path4809"
         inkscape:connector-curvature="0" /><text
         transform="matrix(1,0,0,-1,21.143877,153.08916)"
         style="font-variant:normal;font-size:8.9663763px;font-family:'URW Palladio L';-inkscape-font-specification:URWPalladioL-Roma;writing-mode:lr-tb;fill:#000000;fill-opacity:1;fill-rule:nonzero;stroke:none"
         id="text4811"><tspan
           x="0 4.4831882"
           y="0"
           sodipodi:role="line"
           id="tspan4813">80</tspan></text>
<path
         d="m 34.110254,170.15075 4,0"
         style="fill:#000000;fill-opacity:1;fill-rule:nonzero;stroke:#000000;stroke-width:0.5;stroke-linecap:butt;stroke-linejoin:round;stroke-miterlimit:10;stroke-dasharray:none;stroke-opacity:1"
         id="path4815"
         inkscape:connector-curvature="0" /><path
         d="m 315.3071,170.15075 -4,0"
         style="fill:#000000;fill-opacity:1;fill-rule:nonzero;stroke:#000000;stroke-width:0.5;stroke-linecap:butt;stroke-linejoin:round;stroke-miterlimit:10;stroke-dasharray:none;stroke-opacity:1"
         id="path4817"
         inkscape:connector-curvature="0" /><text
         transform="matrix(1,0,0,-1,21.143877,168.20728)"
         style="font-variant:normal;font-size:8.9663763px;font-family:'URW Palladio L';-inkscape-font-specification:URWPalladioL-Roma;writing-mode:lr-tb;fill:#000000;fill-opacity:1;fill-rule:nonzero;stroke:none"
         id="text4819"><tspan
           x="0 4.4831882"
           y="0"
           sodipodi:role="line"
           id="tspan4821">90</tspan></text>
<text
         transform="matrix(0,1,1,0,13.615411,94.71314)"
         style="font-variant:normal;font-size:8.9663763px;font-family:'URW Palladio L';-inkscape-font-specification:URWPalladioL-Roma;writing-mode:lr-tb;fill:#000000;fill-opacity:1;fill-rule:nonzero;stroke:none"
         id="text4823"><tspan
           x="0 5.4694896 8.0697384 10.98381"
           y="0"
           sodipodi:role="line"
           id="tspan4825">Bits</tspan></text>
<text
         transform="scale(1,-1)"
         style="font-style:italic;font-variant:normal;font-size:7.97011185px;font-family:'URW Palladio L';-inkscape-font-specification:URWPalladioL-Ital;writing-mode:lr-tb;fill:#000000;fill-opacity:1;fill-rule:nonzero;stroke:none"
         id="text4827"
         x="46.151756"
         y="-158.45287"><tspan
           x="46.151756 53.667572 57.19833 61.183388 63.391109 69.583885 74.007301 82.192604 84.40033 87.931084 90.138809 93.231209 98.316139 102.30119 105.83195 108.92438 111.13209 113.77817 115.98588 119.97093 123.06333"
           y="-158.45287"
           sodipodi:role="line"
           id="tspan4829">Maximumfalsepositives</tspan></text>
<text
         transform="scale(1,-1)"
         style="font-style:italic;font-variant:normal;font-size:7.97011185px;font-family:'URW Palladio L';-inkscape-font-specification:URWPalladioL-Ital;writing-mode:lr-tb;fill:#000000;fill-opacity:1;fill-rule:nonzero;stroke:none"
         id="text4831"
         x="231.15765"
         y="-94.146645"><tspan
           x="231.15765 238.67346 242.20422 246.18929 248.397 254.58978 259.01318 267.19849 269.40622 273.82962 276.03735 279.56812 282.66049 288.85327 292.38403 295.03012 297.23785 300.76862"
           y="-94.146645"
           sodipodi:role="line"
           id="tspan4833">Maximuminformation</tspan></text>
<path
         d="m 44.248055,190.73236 12.6,0"
         style="fill:none;stroke:#000000;stroke-width:0.75;stroke-linecap:square;stroke-linejoin:round;stroke-miterlimit:10;stroke-dasharray:none;stroke-opacity:1"
         id="path4835"
         inkscape:connector-curvature="0" /><text
         transform="matrix(1,0,0,-1,66.748055,187.58236)"
         style="font-variant:normal;font-size:8.9663763px;font-family:'URW Palladio L';-inkscape-font-specification:URWPalladioL-Roma;writing-mode:lr-tb;fill:#000000;fill-opacity:1;fill-rule:nonzero;stroke:none"
         id="text4837"><tspan
           x="0 3.0127025 8.222167 11.199004 16.085678 19.618431 27.526775 32.009964 34.924034 37.524284 42.410957 49.862019 55.241844 59.527771 65.302116 69.094894 73.578079 81.486427 86.866249 89.466499"
           y="0"
           sodipodi:role="line"
           id="tspan4839">Informationpersample</tspan></text>
<path
         d="m 181.36079,190.73236 12.6,0"
         style="fill:none;stroke:#3465a4;stroke-width:0.75040002;stroke-linecap:butt;stroke-linejoin:round;stroke-miterlimit:10;stroke-dasharray:3.00160007,3.00160007;stroke-dashoffset:0;stroke-opacity:1"
         id="path4841"
         inkscape:connector-curvature="0" /><text
         transform="matrix(1,0,0,-1,203.86079,187.58236)"
         style="font-variant:normal;font-size:8.9663763px;font-family:'URW Palladio L';-inkscape-font-specification:URWPalladioL-Roma;writing-mode:lr-tb;fill:#000000;fill-opacity:1;fill-rule:nonzero;stroke:none"
         id="text4843"><tspan
           x="0 4.9763389 9.459527 12.059776 15.852553 22.380075 27.759901 32.646576 36.439354 39.0396 41.953674 44.553925 49.610958 53.896885 59.931259 65.311081 69.597008 75.371361 79.164131 83.647324 91.555664 96.935493 99.535744"
           y="0"
           sodipodi:role="line"
           id="tspan4845">Falsepositivespersample</tspan></text>
</g></g></svg>