<?xml version="1.0" encoding="UTF-8" standalone="no"?>
<!-- Created with Inkscape (http://www.inkscape.org/) -->

<svg
   xmlns:ns0="http://www.iki.fi/pav/software/textext/"
   xmlns:dc="http://purl.org/dc/elements/1.1/"
   xmlns:cc="http://creativecommons.org/ns#"
   xmlns:rdf="http://www.w3.org/1999/02/22-rdf-syntax-ns#"
   xmlns:svg="http://www.w3.org/2000/svg"
   xmlns="http://www.w3.org/2000/svg"
   xmlns:xlink="http://www.w3.org/1999/xlink"
   xmlns:sodipodi="http://sodipodi.sourceforge.net/DTD/sodipodi-0.dtd"
   xmlns:inkscape="http://www.inkscape.org/namespaces/inkscape"
   width="33.987812mm"
   height="26.647161mm"
   viewBox="0 0 120.42926 94.419078"
   id="svg2"
   version="1.1"
   inkscape:version="0.91 r13725"
   sodipodi:docname="tcrit.svg">
  <sodipodi:namedview
     id="base"
     pagecolor="#ffffff"
     bordercolor="#666666"
     borderopacity="1.0"
     inkscape:pageopacity="0.0"
     inkscape:pageshadow="2"
     inkscape:zoom="7.9195959"
     inkscape:cx="71.576365"
     inkscape:cy="54.732269"
     inkscape:document-units="px"
     inkscape:current-layer="layer1"
     showgrid="true"
     inkscape:snap-bbox="true"
     inkscape:object-nodes="true"
     inkscape:window-width="2560"
     inkscape:window-height="1378"
     inkscape:window-x="0"
     inkscape:window-y="27"
     inkscape:window-maximized="1"
     showguides="true"
     inkscape:guide-bbox="true"
     fit-margin-top="0"
     fit-margin-left="0"
     fit-margin-right="0"
     fit-margin-bottom="0">
    <inkscape:grid
       id="grid4136"
       type="xygrid"
       originx="-2.1199006"
       originy="-951.49096" />
    <sodipodi:guide
       position="55.585068,4.6184264"
       orientation="0,1"
       id="guide4703" />
  </sodipodi:namedview>
  <defs
     id="defs4">
    <inkscape:path-effect
       is_visible="true"
       id="path-effect4496"
       effect="spiro" />
    <inkscape:path-effect
       is_visible="true"
       id="path-effect4460"
       effect="spiro" />
    <inkscape:path-effect
       is_visible="true"
       id="path-effect4456"
       effect="spiro" />
    <marker
       inkscape:stockid="Arrow1Lend"
       orient="auto"
       refY="0"
       refX="0"
       id="marker4426"
       style="overflow:visible"
       inkscape:isstock="true">
      <path
         id="path4428"
         d="m 0,0 5,-5 -17.5,5 17.5,5 -5,-5 z"
         style="fill:#000000;fill-opacity:1;fill-rule:evenodd;stroke:#000000;stroke-width:1pt;stroke-opacity:1"
         transform="matrix(-0.8,0,0,-0.8,-10,0)"
         inkscape:connector-curvature="0" />
    </marker>
    <marker
       inkscape:collect="always"
       inkscape:isstock="true"
       style="overflow:visible"
       id="Arrow1Lend"
       refX="0"
       refY="0"
       orient="auto"
       inkscape:stockid="Arrow1Lend">
      <path
         transform="matrix(-0.8,0,0,-0.8,-10,0)"
         style="fill:#000000;fill-opacity:1;fill-rule:evenodd;stroke:#000000;stroke-width:1pt;stroke-opacity:1"
         d="m 0,0 5,-5 -17.5,5 17.5,5 -5,-5 z"
         id="path4153"
         inkscape:connector-curvature="0" />
    </marker>
    <inkscape:path-effect
       is_visible="true"
       id="path-effect4144"
       effect="spiro" />
    <inkscape:path-effect
       is_visible="true"
       id="path-effect4140"
       effect="spiro" />
    <inkscape:path-effect
       is_visible="true"
       id="path-effect4460-2"
       effect="spiro" />
    <inkscape:path-effect
       is_visible="true"
       id="path-effect4460-2-7"
       effect="spiro" />
    <inkscape:path-effect
       is_visible="true"
       id="path-effect4496-3"
       effect="spiro" />
  </defs>
  <metadata
     id="metadata7">
    <rdf:RDF>
      <cc:Work
         rdf:about="">
        <dc:format>image/svg+xml</dc:format>
        <dc:type
           rdf:resource="http://purl.org/dc/dcmitype/StillImage" />
        <dc:title></dc:title>
      </cc:Work>
    </rdf:RDF>
  </metadata>
  <g
     id="layer1"
     inkscape:groupmode="layer"
     inkscape:label="Layer 1"
     transform="translate(-2.1199023,-6.4521689)">
    <path
       inkscape:connector-curvature="0"
       inkscape:original-d="m 5,82.362183 105,0"
       inkscape:path-effect="#path-effect4140"
       id="path4138"
       d="m 5,82.362183 105,0"
       style="color:#000000;display:inline;overflow:visible;visibility:visible;fill:none;fill-rule:evenodd;stroke:#000000;stroke-width:0.5;stroke-linecap:butt;stroke-linejoin:miter;stroke-miterlimit:4;stroke-dasharray:none;stroke-dashoffset:0;stroke-opacity:1;marker:none;marker-end:url(#marker4426);enable-background:accumulate" />
    <path
       inkscape:connector-curvature="0"
       inkscape:original-d="m 15,92.362183 0,-85.0000004"
       inkscape:path-effect="#path-effect4144"
       id="path4142"
       d="m 15,92.362183 0,-85.0000004"
       style="color:#000000;display:inline;overflow:visible;visibility:visible;fill:none;fill-rule:evenodd;stroke:#000000;stroke-width:0.5;stroke-linecap:butt;stroke-linejoin:miter;stroke-miterlimit:4;stroke-dasharray:none;stroke-dashoffset:0;stroke-opacity:1;marker:none;marker-end:url(#Arrow1Lend);enable-background:accumulate" />
    <path
       sodipodi:nodetypes="cc"
       inkscape:connector-curvature="0"
       inkscape:original-d="m 12,22.362183 6,0"
       inkscape:path-effect="#path-effect4456"
       id="path4454"
       d="m 12,22.362183 6,0"
       style="color:#000000;display:inline;overflow:visible;visibility:visible;fill:none;fill-rule:evenodd;stroke:#000000;stroke-width:0.5;stroke-linecap:butt;stroke-linejoin:miter;stroke-miterlimit:4;stroke-dasharray:none;stroke-dashoffset:0;stroke-opacity:1;marker:none;enable-background:accumulate" />
    <path
       sodipodi:nodetypes="cc"
       inkscape:connector-curvature="0"
       inkscape:original-d="m 12,42.362183 6,0"
       inkscape:path-effect="#path-effect4460"
       id="path4458"
       d="m 12,42.362183 6,0"
       style="color:#000000;display:inline;overflow:visible;visibility:visible;fill:none;fill-rule:evenodd;stroke:#000000;stroke-width:0.5;stroke-linecap:butt;stroke-linejoin:miter;stroke-miterlimit:4;stroke-dasharray:none;stroke-dashoffset:0;stroke-opacity:1;marker:none;enable-background:accumulate" />
    <text
       sodipodi:linespacing="150%"
       id="text4462"
       y="25.817183"
       x="7.6599026"
       style="color:#000000;font-style:normal;font-variant:normal;font-weight:500;font-stretch:normal;font-size:10px;line-height:150%;font-family:'URW Palladio L';-inkscape-font-specification:'URW Palladio L Medium';text-indent:0;text-align:end;text-decoration:none;text-decoration-line:none;text-decoration-style:solid;text-decoration-color:#000000;letter-spacing:0px;word-spacing:0px;text-transform:none;direction:ltr;block-progression:tb;writing-mode:lr-tb;baseline-shift:baseline;text-anchor:end;white-space:normal;clip-rule:nonzero;display:inline;overflow:visible;visibility:visible;opacity:1;isolation:auto;mix-blend-mode:normal;color-interpolation:sRGB;color-interpolation-filters:linearRGB;solid-color:#000000;solid-opacity:1;fill:#000000;fill-opacity:1;fill-rule:nonzero;stroke:none;stroke-width:0.99999976;stroke-linecap:butt;stroke-linejoin:miter;stroke-miterlimit:4;stroke-dasharray:none;stroke-dashoffset:0;stroke-opacity:1;color-rendering:auto;image-rendering:auto;shape-rendering:auto;text-rendering:auto;enable-background:accumulate"
       xml:space="preserve"><tspan
         y="25.817183"
         x="7.6599026"
         id="tspan4464"
         sodipodi:role="line">1</tspan></text>
    <text
       sodipodi:linespacing="150%"
       id="text4466"
       y="44.755039"
       x="7.1899023"
       style="color:#000000;font-style:italic;font-variant:normal;font-weight:normal;font-stretch:normal;font-size:10px;line-height:150%;font-family:'URW Palladio L';-inkscape-font-specification:'URW Palladio L Italic';text-indent:0;text-align:end;text-decoration:none;text-decoration-line:none;text-decoration-style:solid;text-decoration-color:#000000;letter-spacing:0px;word-spacing:0px;text-transform:none;direction:ltr;block-progression:tb;writing-mode:lr-tb;baseline-shift:baseline;text-anchor:end;white-space:normal;clip-rule:nonzero;display:inline;overflow:visible;visibility:visible;opacity:1;isolation:auto;mix-blend-mode:normal;color-interpolation:sRGB;color-interpolation-filters:linearRGB;solid-color:#000000;solid-opacity:1;fill:#000000;fill-opacity:1;fill-rule:nonzero;stroke:none;stroke-width:0.99999976;stroke-linecap:butt;stroke-linejoin:miter;stroke-miterlimit:4;stroke-dasharray:none;stroke-dashoffset:0;stroke-opacity:1;color-rendering:auto;image-rendering:auto;shape-rendering:auto;text-rendering:auto;enable-background:accumulate"
       xml:space="preserve"><tspan
         y="44.755039"
         x="7.1899023"
         id="tspan4468"
         sodipodi:role="line">p</tspan></text>
    <text
       sodipodi:linespacing="150%"
       id="text4462-5"
       y="96.266396"
       x="7.1899023"
       style="color:#000000;font-style:normal;font-variant:normal;font-weight:500;font-stretch:normal;font-size:10px;line-height:150%;font-family:'URW Palladio L';-inkscape-font-specification:'URW Palladio L Medium';text-indent:0;text-align:end;text-decoration:none;text-decoration-line:none;text-decoration-style:solid;text-decoration-color:#000000;letter-spacing:0px;word-spacing:0px;text-transform:none;direction:ltr;block-progression:tb;writing-mode:lr-tb;baseline-shift:baseline;text-anchor:end;white-space:normal;clip-rule:nonzero;display:inline;overflow:visible;visibility:visible;opacity:1;isolation:auto;mix-blend-mode:normal;color-interpolation:sRGB;color-interpolation-filters:linearRGB;solid-color:#000000;solid-opacity:1;fill:#000000;fill-opacity:1;fill-rule:nonzero;stroke:none;stroke-width:0.99999976;stroke-linecap:butt;stroke-linejoin:miter;stroke-miterlimit:4;stroke-dasharray:none;stroke-dashoffset:0;stroke-opacity:1;color-rendering:auto;image-rendering:auto;shape-rendering:auto;text-rendering:auto;enable-background:accumulate"
       xml:space="preserve"><tspan
         y="96.266396"
         x="7.1899023"
         id="tspan4464-7"
         sodipodi:role="line">0</tspan></text>
    <text
       sodipodi:linespacing="150%"
       id="text4488"
       y="96.266396"
       x="102.66992"
       style="color:#000000;font-style:italic;font-variant:normal;font-weight:normal;font-stretch:normal;font-size:10px;line-height:150%;font-family:'URW Palladio L';-inkscape-font-specification:'URW Palladio L Italic';text-indent:0;text-align:end;text-decoration:none;text-decoration-line:none;text-decoration-style:solid;text-decoration-color:#000000;letter-spacing:0px;word-spacing:0px;text-transform:none;direction:ltr;block-progression:tb;writing-mode:lr-tb;baseline-shift:baseline;text-anchor:end;white-space:normal;clip-rule:nonzero;display:inline;overflow:visible;visibility:visible;opacity:1;isolation:auto;mix-blend-mode:normal;color-interpolation:sRGB;color-interpolation-filters:linearRGB;solid-color:#000000;solid-opacity:1;fill:#000000;fill-opacity:1;fill-rule:nonzero;stroke:none;stroke-width:0.99999976;stroke-linecap:butt;stroke-linejoin:miter;stroke-miterlimit:4;stroke-dasharray:none;stroke-dashoffset:0;stroke-opacity:1;color-rendering:auto;image-rendering:auto;shape-rendering:auto;text-rendering:auto;enable-background:accumulate"
       xml:space="preserve"><tspan
         y="96.266396"
         x="102.66992"
         id="tspan4490"
         sodipodi:role="line">T</tspan></text>
    <path
       sodipodi:nodetypes="cszsc"
       inkscape:connector-curvature="0"
       id="path4492"
       d="m 15,82.362183 c 0,0 20,0 30,-5 10,-5 12.272843,-14.242386 15.075506,-24.898475 2.802663,-10.656088 5.316101,-19.052156 19.924494,-25.101525 11.464466,-4.747462 20,-5 20,-5"
       style="fill:none;fill-rule:evenodd;stroke:#000000;stroke-width:1px;stroke-linecap:butt;stroke-linejoin:miter;stroke-opacity:1" />
    <path
       inkscape:connector-curvature="0"
       inkscape:original-d="m 15,42.362183 48,0 0,42"
       inkscape:path-effect="#path-effect4496"
       id="path4494"
       d="m 15,42.362183 48,0 0,42"
       style="color:#000000;display:inline;overflow:visible;visibility:visible;fill:none;fill-rule:evenodd;stroke:#000000;stroke-width:0.5;stroke-linecap:butt;stroke-linejoin:miter;stroke-miterlimit:4;stroke-dasharray:0.5, 0.5;stroke-dashoffset:0;stroke-opacity:1;marker:none;enable-background:accumulate" />
    <path
       sodipodi:nodetypes="cc"
       inkscape:connector-curvature="0"
       inkscape:original-d="m 63,85.362183 0,-6"
       inkscape:path-effect="#path-effect4460-2"
       id="path4458-1"
       d="m 63,85.362183 0,-6"
       style="color:#000000;display:inline;overflow:visible;visibility:visible;fill:none;fill-rule:evenodd;stroke:#000000;stroke-width:0.5;stroke-linecap:butt;stroke-linejoin:miter;stroke-miterlimit:4;stroke-dasharray:none;stroke-dashoffset:0;stroke-opacity:1;marker:none;enable-background:accumulate" />
    <path
       sodipodi:nodetypes="cc"
       inkscape:connector-curvature="0"
       inkscape:original-d="m 100,85.362185 0,-6"
       inkscape:path-effect="#path-effect4460-2-7"
       id="path4458-1-4"
       d="m 100,85.362185 0,-6"
       style="color:#000000;display:inline;overflow:visible;visibility:visible;fill:none;fill-rule:evenodd;stroke:#000000;stroke-width:0.5;stroke-linecap:butt;stroke-linejoin:miter;stroke-miterlimit:4;stroke-dasharray:none;stroke-dashoffset:0;stroke-opacity:1;marker:none;enable-background:accumulate" />
    <path
       sodipodi:nodetypes="ccc"
       inkscape:connector-curvature="0"
       inkscape:original-d="m 15,22.362183 85,0 0,60"
       inkscape:path-effect="#path-effect4496-3"
       id="path4494-3"
       d="m 15,22.362183 85,0 0,60"
       style="color:#000000;display:inline;overflow:visible;visibility:visible;fill:none;fill-rule:evenodd;stroke:#000000;stroke-width:0.5;stroke-linecap:butt;stroke-linejoin:miter;stroke-miterlimit:4;stroke-dasharray:0.5, 0.5;stroke-dashoffset:0;stroke-opacity:1;marker:none;enable-background:accumulate" />
    <g
       id="g4587"
       ns0:preamble="/home/andreas/hbp-thesis/media/tex_text_preamble.tex"
       ns0:text="$T^{\\mathrm{crit}}_p$"
       transform="matrix(1.0114563,0,0,1.0114563,-166.74897,-40.044591)">
      <defs
         id="defs4589">
        <g
           id="g4591">
          <symbol
             id="textext-5336bbfa-0"
             overflow="visible"
             style="overflow:visible">
            <path
               id="path4594"
               d=""
               style="stroke:none"
               inkscape:connector-curvature="0" />
          </symbol>
          <symbol
             id="textext-5336bbfa-1"
             overflow="visible"
             style="overflow:visible">
            <path
               id="path4597"
               d="m 3.890625,-6.4375 0.71875,0 c 0.78125,0 1.140625,0.046875 1.171875,0.171875 0.03125,0.078125 0.046875,0.265625 0.046875,0.359375 l -0.046875,0.640625 0.28125,0 0.265625,-1.625 -0.90625,0 c -0.875,0.015625 -1.546875,0.015625 -1.90625,0.015625 -0.359375,0 -1,0 -1.859375,-0.015625 l -0.953125,0 -0.171875,1.625 0.28125,0 0.15625,-0.59375 c 0.046875,-0.21875 0.125,-0.375 0.171875,-0.453125 0.0625,-0.0625 0.4375,-0.125 0.8125,-0.125 l 1.125,0 -0.859375,5.1875 c -0.171875,0.90625 -0.1875,0.9375 -0.578125,0.96875 l -0.515625,0.03125 -0.03125,0.28125 0.5625,-0.015625 c 0.390625,0 0.6875,-0.015625 0.84375,-0.015625 0.1875,0 0.5,0.015625 0.890625,0.015625 l 0.4375,0.015625 0.03125,-0.28125 -0.59375,-0.03125 c -0.25,-0.015625 -0.359375,-0.09375 -0.359375,-0.296875 0,-0.09375 0.015625,-0.15625 0.046875,-0.34375 z m 0,0"
               style="stroke:none"
               inkscape:connector-curvature="0" />
          </symbol>
          <symbol
             id="textext-5336bbfa-2"
             overflow="visible"
             style="overflow:visible">
            <path
               id="path4600"
               d=""
               style="stroke:none"
               inkscape:connector-curvature="0" />
          </symbol>
          <symbol
             id="textext-5336bbfa-3"
             overflow="visible"
             style="overflow:visible">
            <path
               id="path4603"
               d="m 3.03125,-2.359375 c 0,-0.34375 0.03125,-0.65625 0.09375,-0.921875 -0.296875,-0.1875 -0.5625,-0.265625 -0.875,-0.265625 -0.359375,0 -0.78125,0.140625 -1.234375,0.421875 -0.53125,0.34375 -0.8125,0.859375 -0.8125,1.53125 0,1.03125 0.71875,1.75 1.734375,1.75 0.390625,0 0.953125,-0.15625 1.03125,-0.265625 l 0.15625,-0.234375 -0.078125,-0.125 c -0.265625,0.15625 -0.515625,0.21875 -0.78125,0.21875 -0.84375,0 -1.40625,-0.640625 -1.40625,-1.640625 0,-0.8125 0.390625,-1.265625 1.0625,-1.265625 0.34375,0 0.703125,0.140625 0.84375,0.34375 l 0.046875,0.453125 z m 0,0"
               style="stroke:none"
               inkscape:connector-curvature="0" />
          </symbol>
          <symbol
             id="textext-5336bbfa-4"
             overflow="visible"
             style="overflow:visible">
            <path
               id="path4606"
               d="m 0.171875,-3.03125 0.28125,0 c 0.3125,0 0.328125,0.046875 0.328125,0.546875 l 0,1.71875 c 0,0.46875 -0.015625,0.515625 -0.28125,0.53125 l -0.34375,0.03125 0,0.21875 c 0.546875,-0.015625 0.75,-0.015625 0.9375,-0.015625 0.15625,0 0.15625,0 1.078125,0.015625 l 0,-0.21875 -0.390625,-0.03125 c -0.34375,-0.015625 -0.359375,-0.03125 -0.359375,-0.53125 l 0,-1.3125 c 0,-0.453125 0.3125,-0.828125 0.671875,-0.828125 0.234375,0 0.390625,0.109375 0.515625,0.34375 l 0.15625,0 0.0625,-0.90625 c -0.078125,-0.0625 -0.21875,-0.078125 -0.34375,-0.078125 -0.234375,0 -0.46875,0.109375 -0.640625,0.296875 l -0.421875,0.5 0,-0.78125 -0.0625,-0.015625 c -0.390625,0.15625 -0.78125,0.265625 -1.1875,0.296875 z m 0,0"
               style="stroke:none"
               inkscape:connector-curvature="0" />
          </symbol>
          <symbol
             id="textext-5336bbfa-5"
             overflow="visible"
             style="overflow:visible">
            <path
               id="path4609"
               d="m 1.421875,-3.53125 -0.0625,-0.015625 c -0.390625,0.15625 -0.78125,0.265625 -1.1875,0.296875 l 0,0.21875 0.28125,0 c 0.3125,0 0.328125,0.046875 0.328125,0.546875 l 0,1.71875 c 0,0.46875 -0.015625,0.515625 -0.28125,0.53125 l -0.34375,0.03125 0,0.21875 c 0.765625,-0.015625 0.765625,-0.015625 0.953125,-0.015625 0.1875,0 0.1875,0 0.9375,0.015625 l 0,-0.21875 -0.34375,-0.03125 c -0.25,-0.015625 -0.28125,-0.0625 -0.28125,-0.53125 z m -0.34375,-1.671875 c -0.234375,0 -0.421875,0.1875 -0.421875,0.421875 0,0.21875 0.1875,0.421875 0.40625,0.421875 0.21875,0 0.4375,-0.203125 0.4375,-0.421875 0,-0.21875 -0.21875,-0.421875 -0.421875,-0.421875 z m 0,0"
               style="stroke:none"
               inkscape:connector-curvature="0" />
          </symbol>
          <symbol
             id="textext-5336bbfa-6"
             overflow="visible"
             style="overflow:visible">
            <path
               id="path4612"
               d="m 0.75,-2.890625 0,2.171875 c 0,0.5625 0.25,0.8125 0.828125,0.8125 0.171875,0 0.359375,-0.046875 0.40625,-0.09375 l 0.359375,-0.40625 -0.09375,-0.125 c -0.203125,0.109375 -0.3125,0.140625 -0.453125,0.140625 -0.296875,0 -0.421875,-0.140625 -0.421875,-0.515625 l 0,-1.984375 0.96875,0 0.078125,-0.40625 -1.046875,0.03125 0,-0.28125 c 0,-0.3125 0.03125,-0.59375 0.09375,-1.078125 l -0.09375,-0.078125 c -0.1875,0.109375 -0.40625,0.203125 -0.640625,0.28125 0.015625,0.234375 0.03125,0.375 0.03125,0.609375 l 0,0.53125 -0.59375,0.25 0,0.171875 z m 0,0"
               style="stroke:none"
               inkscape:connector-curvature="0" />
          </symbol>
          <symbol
             id="textext-5336bbfa-7"
             overflow="visible"
             style="overflow:visible">
            <path
               id="path4615"
               d=""
               style="stroke:none"
               inkscape:connector-curvature="0" />
          </symbol>
          <symbol
             id="textext-5336bbfa-8"
             overflow="visible"
             style="overflow:visible">
            <path
               id="path4618"
               d="m 0.875,-0.015625 0.0625,0.015625 c 0.203125,0.0625 0.3125,0.078125 0.390625,0.078125 0.4375,0 1.296875,-0.546875 1.625,-1.03125 0.3125,-0.453125 0.578125,-1.296875 0.578125,-1.859375 0,-0.5 -0.1875,-0.84375 -0.453125,-0.84375 -0.3125,0 -0.71875,0.203125 -1.109375,0.5625 -0.3125,0.265625 -0.46875,0.453125 -0.734375,0.90625 l 0.171875,-0.90625 c 0.03125,-0.125 0.046875,-0.234375 0.046875,-0.328125 0,-0.140625 -0.0625,-0.234375 -0.171875,-0.234375 -0.15625,0 -0.453125,0.15625 -1.015625,0.5625 l -0.203125,0.15625 0.046875,0.15625 0.25,-0.171875 c 0.203125,-0.125 0.296875,-0.171875 0.359375,-0.171875 0.078125,0 0.125,0.078125 0.125,0.171875 0,0.0625 -0.015625,0.21875 -0.03125,0.296875 l -0.4375,2.59375 c -0.078125,0.453125 -0.21875,1.140625 -0.375,1.828125 l -0.046875,0.28125 0.046875,0.046875 c 0.15625,-0.0625 0.3125,-0.09375 0.546875,-0.125 z m 0.203125,-1.234375 c 0.171875,-0.96875 0.984375,-1.96875 1.609375,-1.96875 0.203125,0 0.296875,0.171875 0.296875,0.515625 0,0.625 -0.3125,1.515625 -0.703125,2.09375 -0.15625,0.21875 -0.40625,0.34375 -0.71875,0.34375 -0.234375,0 -0.421875,-0.0625 -0.609375,-0.1875 z m 0,0"
               style="stroke:none"
               inkscape:connector-curvature="0" />
          </symbol>
        </g>
      </defs>
      <g
         id="textext-5336bbfa-9">
        <g
           id="g4621"
           style="fill:#000000;fill-opacity:1">
          <use
             id="use4623"
             y="134.765"
             x="223.686"
             xlink:href="#textext-5336bbfa-1"
             width="100%"
             height="100%" />
        </g>
        <g
           id="g4625"
           style="fill:#000000;fill-opacity:1">
          <use
             id="use4627"
             y="131.14799"
             x="230.13699"
             xlink:href="#textext-5336bbfa-3"
             width="100%"
             height="100%" />
          <use
             id="use4629"
             y="131.14799"
             x="233.49879"
             xlink:href="#textext-5336bbfa-4"
             width="100%"
             height="100%" />
          <use
             id="use4631"
             y="131.14799"
             x="236.48958"
             xlink:href="#textext-5336bbfa-5"
             width="100%"
             height="100%" />
          <use
             id="use4633"
             y="131.14799"
             x="238.6929"
             xlink:href="#textext-5336bbfa-6"
             width="100%"
             height="100%" />
        </g>
        <g
           id="g4635"
           style="fill:#000000;fill-opacity:1">
          <use
             id="use4637"
             y="137.226"
             x="229.662"
             xlink:href="#textext-5336bbfa-8"
             width="100%"
             height="100%" />
        </g>
      </g>
    </g>
    <text
       sodipodi:linespacing="150%"
       id="text4488-7"
       y="86.669945"
       x="122.99924"
       style="color:#000000;font-style:italic;font-variant:normal;font-weight:normal;font-stretch:normal;font-size:10px;line-height:150%;font-family:'URW Palladio L';-inkscape-font-specification:'URW Palladio L Italic';text-indent:0;text-align:end;text-decoration:none;text-decoration-line:none;text-decoration-style:solid;text-decoration-color:#000000;letter-spacing:0px;word-spacing:0px;text-transform:none;direction:ltr;block-progression:tb;writing-mode:lr-tb;baseline-shift:baseline;text-anchor:end;white-space:normal;clip-rule:nonzero;display:inline;overflow:visible;visibility:visible;opacity:1;isolation:auto;mix-blend-mode:normal;color-interpolation:sRGB;color-interpolation-filters:linearRGB;solid-color:#000000;solid-opacity:1;fill:#000000;fill-opacity:1;fill-rule:nonzero;stroke:none;stroke-width:0.99999976;stroke-linecap:butt;stroke-linejoin:miter;stroke-miterlimit:4;stroke-dasharray:none;stroke-dashoffset:0;stroke-opacity:1;color-rendering:auto;image-rendering:auto;shape-rendering:auto;text-rendering:auto;enable-background:accumulate"
       xml:space="preserve"><tspan
         y="86.669945"
         x="122.99924"
         id="tspan4490-9"
         sodipodi:role="line">T'</tspan></text>
    <text
       sodipodi:linespacing="150%"
       id="text4488-7-4"
       y="14.24609"
       x="28.227028"
       style="color:#000000;font-style:italic;font-variant:normal;font-weight:normal;font-stretch:normal;font-size:10px;line-height:150%;font-family:'URW Palladio L';-inkscape-font-specification:'URW Palladio L Italic';text-indent:0;text-align:end;text-decoration:none;text-decoration-line:none;text-decoration-style:solid;text-decoration-color:#000000;letter-spacing:0px;word-spacing:0px;text-transform:none;direction:ltr;block-progression:tb;writing-mode:lr-tb;baseline-shift:baseline;text-anchor:end;white-space:normal;clip-rule:nonzero;display:inline;overflow:visible;visibility:visible;opacity:1;isolation:auto;mix-blend-mode:normal;color-interpolation:sRGB;color-interpolation-filters:linearRGB;solid-color:#000000;solid-opacity:1;fill:#000000;fill-opacity:1;fill-rule:nonzero;stroke:none;stroke-width:0.99999976;stroke-linecap:butt;stroke-linejoin:miter;stroke-miterlimit:4;stroke-dasharray:none;stroke-dashoffset:0;stroke-opacity:1;color-rendering:auto;image-rendering:auto;shape-rendering:auto;text-rendering:auto;enable-background:accumulate"
       xml:space="preserve"><tspan
         y="14.24609"
         x="28.227028"
         id="tspan4490-9-3"
         sodipodi:role="line">I</tspan></text>
  </g>
</svg>
